<ttFont>
<head>
    <!-- Most of this table will be recalculated by the compiler -->
    <tableVersion value="1.0"/>
    <fontRevision value="5.0"/>
    <checkSumAdjustment value="0xede59f8a"/>
    <magicNumber value="0x5f0f3cf5"/>
    <flags value="00000000 00001011"/>
    <unitsPerEm value="2048"/>
    <created value="Sun May 15 08:57:39 2005"/>
    <modified value="Fri Apr 15 03:48:29 2011"/>
    <xMin value="0"/>
    <yMin value="-980"/>
    <xMax value="7515"/>
    <yMax value="2344"/>
    <macStyle value="00000000 00000000"/>
    <lowestRecPPEM value="8"/>
    <fontDirectionHint value="2"/>
    <indexToLocFormat value="1"/>
    <glyphDataFormat value="0"/>
  </head>
    <TTGlyph name=".notdef" xMin="142" yMin="226" xMax="842" yMax="1588">
      <contour>
        <pt x="142" y="226" on="1"/>
        <pt x="142" y="1588" on="1"/>
        <pt x="842" y="1588" on="1"/>
        <pt x="842" y="226" on="1"/>
      </contour>
      <contour>
        <pt x="284" y="368" on="1"/>
        <pt x="700" y="368" on="1"/>
        <pt x="700" y="1447" on="1"/>
        <pt x="284" y="1447" on="1"/>
      </contour>
    </TTGlyph>
    <TTGlyph name=".null" xMin="142" yMin="226" xMax="842" yMax="1588">
      <contour>
        <pt x="142" y="226" on="1"/>
        <pt x="142" y="1588" on="1"/>
        <pt x="842" y="1588" on="1"/>
        <pt x="842" y="226" on="1"/>
      </contour>
      <contour>
        <pt x="284" y="368" on="1"/>
        <pt x="700" y="368" on="1"/>
        <pt x="700" y="1447" on="1"/>
        <pt x="284" y="1447" on="1"/>
      </contour>
    </TTGlyph>
    <TTGlyph name="afii57381" xMin="142" yMin="226" xMax="842" yMax="1588">
      <contour>
        <pt x="142" y="226" on="1"/>
        <pt x="142" y="1588" on="1"/>
        <pt x="842" y="1588" on="1"/>
        <pt x="842" y="226" on="1"/>
      </contour>
      <contour>
        <pt x="284" y="368" on="1"/>
        <pt x="700" y="368" on="1"/>
        <pt x="700" y="1447" on="1"/>
        <pt x="284" y="1447" on="1"/>
      </contour>
    </TTGlyph>
    <TTGlyph name="afii57388" xMin="142" yMin="226" xMax="842" yMax="1588">
      <contour>
        <pt x="142" y="226" on="1"/>
        <pt x="142" y="1588" on="1"/>
        <pt x="842" y="1588" on="1"/>
        <pt x="842" y="226" on="1"/>
      </contour>
      <contour>
        <pt x="284" y="368" on="1"/>
        <pt x="700" y="368" on="1"/>
        <pt x="700" y="1447" on="1"/>
        <pt x="284" y="1447" on="1"/>
      </contour>
    </TTGlyph>
    <TTGlyph name="afii57396" xMin="142" yMin="226" xMax="842" yMax="1588">
      <contour>
        <pt x="142" y="226" on="1"/>
        <pt x="142" y="1588" on="1"/>
        <pt x="842" y="1588" on="1"/>
        <pt x="842" y="226" on="1"/>
      </contour>
      <contour>
        <pt x="284" y="368" on="1"/>
        <pt x="700" y="368" on="1"/>
        <pt x="700" y="1447" on="1"/>
        <pt x="284" y="1447" on="1"/>
      </contour>
    </TTGlyph>
    <TTGlyph name="afii57397" xMin="142" yMin="226" xMax="842" yMax="1588">
      <contour>
        <pt x="142" y="226" on="1"/>
        <pt x="142" y="1588" on="1"/>
        <pt x="842" y="1588" on="1"/>
        <pt x="842" y="226" on="1"/>
      </contour>
      <contour>
        <pt x="284" y="368" on="1"/>
        <pt x="700" y="368" on="1"/>
        <pt x="700" y="1447" on="1"/>
        <pt x="284" y="1447" on="1"/>
      </contour>
    </TTGlyph>
    <TTGlyph name="afii57398" xMin="142" yMin="226" xMax="842" yMax="1588">
      <contour>
        <pt x="142" y="226" on="1"/>
        <pt x="142" y="1588" on="1"/>
        <pt x="842" y="1588" on="1"/>
        <pt x="842" y="226" on="1"/>
      </contour>
      <contour>
        <pt x="284" y="368" on="1"/>
        <pt x="700" y="368" on="1"/>
        <pt x="700" y="1447" on="1"/>
        <pt x="284" y="1447" on="1"/>
      </contour>
    </TTGlyph>
    <TTGlyph name="afii57403" xMin="142" yMin="226" xMax="842" yMax="1588">
      <contour>
        <pt x="142" y="226" on="1"/>
        <pt x="142" y="1588" on="1"/>
        <pt x="842" y="1588" on="1"/>
        <pt x="842" y="226" on="1"/>
      </contour>
      <contour>
        <pt x="284" y="368" on="1"/>
        <pt x="700" y="368" on="1"/>
        <pt x="700" y="1447" on="1"/>
        <pt x="284" y="1447" on="1"/>
      </contour>
    </TTGlyph>
    <TTGlyph name="afii57407" xMin="142" yMin="226" xMax="842" yMax="1588">
      <contour>
        <pt x="142" y="226" on="1"/>
        <pt x="142" y="1588" on="1"/>
        <pt x="842" y="1588" on="1"/>
        <pt x="842" y="226" on="1"/>
      </contour>
      <contour>
        <pt x="284" y="368" on="1"/>
        <pt x="700" y="368" on="1"/>
        <pt x="700" y="1447" on="1"/>
        <pt x="284" y="1447" on="1"/>
      </contour>
    </TTGlyph>
    <TTGlyph name="afii57440" xMin="142" yMin="226" xMax="842" yMax="1588">
      <contour>
        <pt x="142" y="226" on="1"/>
        <pt x="142" y="1588" on="1"/>
        <pt x="842" y="1588" on="1"/>
        <pt x="842" y="226" on="1"/>
      </contour>
      <contour>
        <pt x="284" y="368" on="1"/>
        <pt x="700" y="368" on="1"/>
        <pt x="700" y="1447" on="1"/>
        <pt x="284" y="1447" on="1"/>
      </contour>
    </TTGlyph>
    <TTGlyph name="afii57451" xMin="142" yMin="226" xMax="842" yMax="1588">
      <contour>
        <pt x="142" y="226" on="1"/>
        <pt x="142" y="1588" on="1"/>
        <pt x="842" y="1588" on="1"/>
        <pt x="842" y="226" on="1"/>
      </contour>
      <contour>
        <pt x="284" y="368" on="1"/>
        <pt x="700" y="368" on="1"/>
        <pt x="700" y="1447" on="1"/>
        <pt x="284" y="1447" on="1"/>
      </contour>
    </TTGlyph>
    <TTGlyph name="afii57452" xMin="142" yMin="226" xMax="842" yMax="1588">
      <contour>
        <pt x="142" y="226" on="1"/>
        <pt x="142" y="1588" on="1"/>
        <pt x="842" y="1588" on="1"/>
        <pt x="842" y="226" on="1"/>
      </contour>
      <contour>
        <pt x="284" y="368" on="1"/>
        <pt x="700" y="368" on="1"/>
        <pt x="700" y="1447" on="1"/>
        <pt x="284" y="1447" on="1"/>
      </contour>
    </TTGlyph>
    <TTGlyph name="afii57453" xMin="142" yMin="226" xMax="842" yMax="1588">
      <contour>
        <pt x="142" y="226" on="1"/>
        <pt x="142" y="1588" on="1"/>
        <pt x="842" y="1588" on="1"/>
        <pt x="842" y="226" on="1"/>
      </contour>
      <contour>
        <pt x="284" y="368" on="1"/>
        <pt x="700" y="368" on="1"/>
        <pt x="700" y="1447" on="1"/>
        <pt x="284" y="1447" on="1"/>
      </contour>
    </TTGlyph>
    <TTGlyph name="afii57454" xMin="142" yMin="226" xMax="842" yMax="1588">
      <contour>
        <pt x="142" y="226" on="1"/>
        <pt x="142" y="1588" on="1"/>
        <pt x="842" y="1588" on="1"/>
        <pt x="842" y="226" on="1"/>
      </contour>
      <contour>
        <pt x="284" y="368" on="1"/>
        <pt x="700" y="368" on="1"/>
        <pt x="700" y="1447" on="1"/>
        <pt x="284" y="1447" on="1"/>
      </contour>
    </TTGlyph>
    <TTGlyph name="afii57455" xMin="142" yMin="226" xMax="842" yMax="1588">
      <contour>
        <pt x="142" y="226" on="1"/>
        <pt x="142" y="1588" on="1"/>
        <pt x="842" y="1588" on="1"/>
        <pt x="842" y="226" on="1"/>
      </contour>
      <contour>
        <pt x="284" y="368" on="1"/>
        <pt x="700" y="368" on="1"/>
        <pt x="700" y="1447" on="1"/>
        <pt x="284" y="1447" on="1"/>
      </contour>
    </TTGlyph>
    <TTGlyph name="afii57456" xMin="142" yMin="226" xMax="842" yMax="1588">
      <contour>
        <pt x="142" y="226" on="1"/>
        <pt x="142" y="1588" on="1"/>
        <pt x="842" y="1588" on="1"/>
        <pt x="842" y="226" on="1"/>
      </contour>
      <contour>
        <pt x="284" y="368" on="1"/>
        <pt x="700" y="368" on="1"/>
        <pt x="700" y="1447" on="1"/>
        <pt x="284" y="1447" on="1"/>
      </contour>
    </TTGlyph>
    <TTGlyph name="afii57457" xMin="142" yMin="226" xMax="842" yMax="1588">
      <contour>
        <pt x="142" y="226" on="1"/>
        <pt x="142" y="1588" on="1"/>
        <pt x="842" y="1588" on="1"/>
        <pt x="842" y="226" on="1"/>
      </contour>
      <contour>
        <pt x="284" y="368" on="1"/>
        <pt x="700" y="368" on="1"/>
        <pt x="700" y="1447" on="1"/>
        <pt x="284" y="1447" on="1"/>
      </contour>
    </TTGlyph>
    <TTGlyph name="afii57458" xMin="142" yMin="226" xMax="842" yMax="1588">
      <contour>
        <pt x="142" y="226" on="1"/>
        <pt x="142" y="1588" on="1"/>
        <pt x="842" y="1588" on="1"/>
        <pt x="842" y="226" on="1"/>
      </contour>
      <contour>
        <pt x="284" y="368" on="1"/>
        <pt x="700" y="368" on="1"/>
        <pt x="700" y="1447" on="1"/>
        <pt x="284" y="1447" on="1"/>
      </contour>
    </TTGlyph>
    <TTGlyph name="afii57505" xMin="142" yMin="226" xMax="842" yMax="1588">
      <contour>
        <pt x="142" y="226" on="1"/>
        <pt x="142" y="1588" on="1"/>
        <pt x="842" y="1588" on="1"/>
        <pt x="842" y="226" on="1"/>
      </contour>
      <contour>
        <pt x="284" y="368" on="1"/>
        <pt x="700" y="368" on="1"/>
        <pt x="700" y="1447" on="1"/>
        <pt x="284" y="1447" on="1"/>
      </contour>
    </TTGlyph>
    <TTGlyph name="afii57506" xMin="142" yMin="226" xMax="842" yMax="1588">
      <contour>
        <pt x="142" y="226" on="1"/>
        <pt x="142" y="1588" on="1"/>
        <pt x="842" y="1588" on="1"/>
        <pt x="842" y="226" on="1"/>
      </contour>
      <contour>
        <pt x="284" y="368" on="1"/>
        <pt x="700" y="368" on="1"/>
        <pt x="700" y="1447" on="1"/>
        <pt x="284" y="1447" on="1"/>
      </contour>
    </TTGlyph>
    <TTGlyph name="afii57507" xMin="142" yMin="226" xMax="842" yMax="1588">
      <contour>
        <pt x="142" y="226" on="1"/>
        <pt x="142" y="1588" on="1"/>
        <pt x="842" y="1588" on="1"/>
        <pt x="842" y="226" on="1"/>
      </contour>
      <contour>
        <pt x="284" y="368" on="1"/>
        <pt x="700" y="368" on="1"/>
        <pt x="700" y="1447" on="1"/>
        <pt x="284" y="1447" on="1"/>
      </contour>
    </TTGlyph>
    <TTGlyph name="afii57508" xMin="142" yMin="226" xMax="842" yMax="1588">
      <contour>
        <pt x="142" y="226" on="1"/>
        <pt x="142" y="1588" on="1"/>
        <pt x="842" y="1588" on="1"/>
        <pt x="842" y="226" on="1"/>
      </contour>
      <contour>
        <pt x="284" y="368" on="1"/>
        <pt x="700" y="368" on="1"/>
        <pt x="700" y="1447" on="1"/>
        <pt x="284" y="1447" on="1"/>
      </contour>
    </TTGlyph>
    <TTGlyph name="afii57509" xMin="142" yMin="226" xMax="842" yMax="1588">
      <contour>
        <pt x="142" y="226" on="1"/>
        <pt x="142" y="1588" on="1"/>
        <pt x="842" y="1588" on="1"/>
        <pt x="842" y="226" on="1"/>
      </contour>
      <contour>
        <pt x="284" y="368" on="1"/>
        <pt x="700" y="368" on="1"/>
        <pt x="700" y="1447" on="1"/>
        <pt x="284" y="1447" on="1"/>
      </contour>
    </TTGlyph>
    <TTGlyph name="afii57511" xMin="142" yMin="226" xMax="842" yMax="1588">
      <contour>
        <pt x="142" y="226" on="1"/>
        <pt x="142" y="1588" on="1"/>
        <pt x="842" y="1588" on="1"/>
        <pt x="842" y="226" on="1"/>
      </contour>
      <contour>
        <pt x="284" y="368" on="1"/>
        <pt x="700" y="368" on="1"/>
        <pt x="700" y="1447" on="1"/>
        <pt x="284" y="1447" on="1"/>
      </contour>
    </TTGlyph>
    <TTGlyph name="afii57512" xMin="142" yMin="226" xMax="842" yMax="1588">
      <contour>
        <pt x="142" y="226" on="1"/>
        <pt x="142" y="1588" on="1"/>
        <pt x="842" y="1588" on="1"/>
        <pt x="842" y="226" on="1"/>
      </contour>
      <contour>
        <pt x="284" y="368" on="1"/>
        <pt x="700" y="368" on="1"/>
        <pt x="700" y="1447" on="1"/>
        <pt x="284" y="1447" on="1"/>
      </contour>
    </TTGlyph>
    <TTGlyph name="afii57513" xMin="142" yMin="226" xMax="842" yMax="1588">
      <contour>
        <pt x="142" y="226" on="1"/>
        <pt x="142" y="1588" on="1"/>
        <pt x="842" y="1588" on="1"/>
        <pt x="842" y="226" on="1"/>
      </contour>
      <contour>
        <pt x="284" y="368" on="1"/>
        <pt x="700" y="368" on="1"/>
        <pt x="700" y="1447" on="1"/>
        <pt x="284" y="1447" on="1"/>
      </contour>
    </TTGlyph>
    <TTGlyph name="afii57514" xMin="142" yMin="226" xMax="842" yMax="1588">
      <contour>
        <pt x="142" y="226" on="1"/>
        <pt x="142" y="1588" on="1"/>
        <pt x="842" y="1588" on="1"/>
        <pt x="842" y="226" on="1"/>
      </contour>
      <contour>
        <pt x="284" y="368" on="1"/>
        <pt x="700" y="368" on="1"/>
        <pt x="700" y="1447" on="1"/>
        <pt x="284" y="1447" on="1"/>
      </contour>
    </TTGlyph>
    <TTGlyph name="afii57519" xMin="142" yMin="226" xMax="842" yMax="1588">
      <contour>
        <pt x="142" y="226" on="1"/>
        <pt x="142" y="1588" on="1"/>
        <pt x="842" y="1588" on="1"/>
        <pt x="842" y="226" on="1"/>
      </contour>
      <contour>
        <pt x="284" y="368" on="1"/>
        <pt x="700" y="368" on="1"/>
        <pt x="700" y="1447" on="1"/>
        <pt x="284" y="1447" on="1"/>
      </contour>
    </TTGlyph>
    <TTGlyph name="afii57534" xMin="142" yMin="226" xMax="842" yMax="1588">
      <contour>
        <pt x="142" y="226" on="1"/>
        <pt x="142" y="1588" on="1"/>
        <pt x="842" y="1588" on="1"/>
        <pt x="842" y="226" on="1"/>
      </contour>
      <contour>
        <pt x="284" y="368" on="1"/>
        <pt x="700" y="368" on="1"/>
        <pt x="700" y="1447" on="1"/>
        <pt x="284" y="1447" on="1"/>
      </contour>
    </TTGlyph>
    <TTGlyph name="afii63167" xMin="142" yMin="226" xMax="842" yMax="1588">
      <contour>
        <pt x="142" y="226" on="1"/>
        <pt x="142" y="1588" on="1"/>
        <pt x="842" y="1588" on="1"/>
        <pt x="842" y="226" on="1"/>
      </contour>
      <contour>
        <pt x="284" y="368" on="1"/>
        <pt x="700" y="368" on="1"/>
        <pt x="700" y="1447" on="1"/>
        <pt x="284" y="1447" on="1"/>
      </contour>
    </TTGlyph>
    <TTGlyph name="alefmaksurainitial" xMin="142" yMin="226" xMax="842" yMax="1588">
      <contour>
        <pt x="142" y="226" on="1"/>
        <pt x="142" y="1588" on="1"/>
        <pt x="842" y="1588" on="1"/>
        <pt x="842" y="226" on="1"/>
      </contour>
      <contour>
        <pt x="284" y="368" on="1"/>
        <pt x="700" y="368" on="1"/>
        <pt x="700" y="1447" on="1"/>
        <pt x="284" y="1447" on="1"/>
      </contour>
    </TTGlyph>
    <TTGlyph name="alefwaslafinalarabic" xMin="142" yMin="226" xMax="842" yMax="1588">
      <contour>
        <pt x="142" y="226" on="1"/>
        <pt x="142" y="1588" on="1"/>
        <pt x="842" y="1588" on="1"/>
        <pt x="842" y="226" on="1"/>
      </contour>
      <contour>
        <pt x="284" y="368" on="1"/>
        <pt x="700" y="368" on="1"/>
        <pt x="700" y="1447" on="1"/>
        <pt x="284" y="1447" on="1"/>
      </contour>
    </TTGlyph>
    <TTGlyph name="ampersand" xMin="142" yMin="226" xMax="842" yMax="1588">
      <contour>
        <pt x="142" y="226" on="1"/>
        <pt x="142" y="1588" on="1"/>
        <pt x="842" y="1588" on="1"/>
        <pt x="842" y="226" on="1"/>
      </contour>
      <contour>
        <pt x="284" y="368" on="1"/>
        <pt x="700" y="368" on="1"/>
        <pt x="700" y="1447" on="1"/>
        <pt x="284" y="1447" on="1"/>
      </contour>
    </TTGlyph>
    <TTGlyph name="asterisk" xMin="142" yMin="226" xMax="842" yMax="1588">
      <contour>
        <pt x="142" y="226" on="1"/>
        <pt x="142" y="1588" on="1"/>
        <pt x="842" y="1588" on="1"/>
        <pt x="842" y="226" on="1"/>
      </contour>
      <contour>
        <pt x="284" y="368" on="1"/>
        <pt x="700" y="368" on="1"/>
        <pt x="700" y="1447" on="1"/>
        <pt x="284" y="1447" on="1"/>
      </contour>
    </TTGlyph>
    <TTGlyph name="behmeemisolatedarabic" xMin="142" yMin="226" xMax="842" yMax="1588">
      <contour>
        <pt x="142" y="226" on="1"/>
        <pt x="142" y="1588" on="1"/>
        <pt x="842" y="1588" on="1"/>
        <pt x="842" y="226" on="1"/>
      </contour>
      <contour>
        <pt x="284" y="368" on="1"/>
        <pt x="700" y="368" on="1"/>
        <pt x="700" y="1447" on="1"/>
        <pt x="284" y="1447" on="1"/>
      </contour>
    </TTGlyph>
    <TTGlyph name="behnoonfinalarabic" xMin="142" yMin="226" xMax="842" yMax="1588">
      <contour>
        <pt x="142" y="226" on="1"/>
        <pt x="142" y="1588" on="1"/>
        <pt x="842" y="1588" on="1"/>
        <pt x="842" y="226" on="1"/>
      </contour>
      <contour>
        <pt x="284" y="368" on="1"/>
        <pt x="700" y="368" on="1"/>
        <pt x="700" y="1447" on="1"/>
        <pt x="284" y="1447" on="1"/>
      </contour>
    </TTGlyph>
    <TTGlyph name="colon" xMin="142" yMin="226" xMax="842" yMax="1588">
      <contour>
        <pt x="142" y="226" on="1"/>
        <pt x="142" y="1588" on="1"/>
        <pt x="842" y="1588" on="1"/>
        <pt x="842" y="226" on="1"/>
      </contour>
      <contour>
        <pt x="284" y="368" on="1"/>
        <pt x="700" y="368" on="1"/>
        <pt x="700" y="1447" on="1"/>
        <pt x="284" y="1447" on="1"/>
      </contour>
    </TTGlyph>
    <TTGlyph name="dagger" xMin="142" yMin="226" xMax="842" yMax="1588">
      <contour>
        <pt x="142" y="226" on="1"/>
        <pt x="142" y="1588" on="1"/>
        <pt x="842" y="1588" on="1"/>
        <pt x="842" y="226" on="1"/>
      </contour>
      <contour>
        <pt x="284" y="368" on="1"/>
        <pt x="700" y="368" on="1"/>
        <pt x="700" y="1447" on="1"/>
        <pt x="284" y="1447" on="1"/>
      </contour>
    </TTGlyph>
    <TTGlyph name="dalringfinal" xMin="142" yMin="226" xMax="842" yMax="1588">
      <contour>
        <pt x="142" y="226" on="1"/>
        <pt x="142" y="1588" on="1"/>
        <pt x="842" y="1588" on="1"/>
        <pt x="842" y="226" on="1"/>
      </contour>
      <contour>
        <pt x="284" y="368" on="1"/>
        <pt x="700" y="368" on="1"/>
        <pt x="700" y="1447" on="1"/>
        <pt x="284" y="1447" on="1"/>
      </contour>
    </TTGlyph>
    <TTGlyph name="ddalfinalarabic" xMin="142" yMin="226" xMax="842" yMax="1588">
      <contour>
        <pt x="142" y="226" on="1"/>
        <pt x="142" y="1588" on="1"/>
        <pt x="842" y="1588" on="1"/>
        <pt x="842" y="226" on="1"/>
      </contour>
      <contour>
        <pt x="284" y="368" on="1"/>
        <pt x="700" y="368" on="1"/>
        <pt x="700" y="1447" on="1"/>
        <pt x="284" y="1447" on="1"/>
      </contour>
    </TTGlyph>
    <TTGlyph name="divide" xMin="142" yMin="226" xMax="842" yMax="1588">
      <contour>
        <pt x="142" y="226" on="1"/>
        <pt x="142" y="1588" on="1"/>
        <pt x="842" y="1588" on="1"/>
        <pt x="842" y="226" on="1"/>
      </contour>
      <contour>
        <pt x="284" y="368" on="1"/>
        <pt x="700" y="368" on="1"/>
        <pt x="700" y="1447" on="1"/>
        <pt x="284" y="1447" on="1"/>
      </contour>
    </TTGlyph>
    <TTGlyph name="dollar" xMin="142" yMin="226" xMax="842" yMax="1588">
      <contour>
        <pt x="142" y="226" on="1"/>
        <pt x="142" y="1588" on="1"/>
        <pt x="842" y="1588" on="1"/>
        <pt x="842" y="226" on="1"/>
      </contour>
      <contour>
        <pt x="284" y="368" on="1"/>
        <pt x="700" y="368" on="1"/>
        <pt x="700" y="1447" on="1"/>
        <pt x="284" y="1447" on="1"/>
      </contour>
    </TTGlyph>
    <TTGlyph name="dotlessyehfinalarabic" xMin="142" yMin="226" xMax="842" yMax="1588">
      <contour>
        <pt x="142" y="226" on="1"/>
        <pt x="142" y="1588" on="1"/>
        <pt x="842" y="1588" on="1"/>
        <pt x="842" y="226" on="1"/>
      </contour>
      <contour>
        <pt x="284" y="368" on="1"/>
        <pt x="700" y="368" on="1"/>
        <pt x="700" y="1447" on="1"/>
        <pt x="284" y="1447" on="1"/>
      </contour>
    </TTGlyph>
    <TTGlyph name="dotlessyehinitialarabic" xMin="142" yMin="226" xMax="842" yMax="1588">
      <contour>
        <pt x="142" y="226" on="1"/>
        <pt x="142" y="1588" on="1"/>
        <pt x="842" y="1588" on="1"/>
        <pt x="842" y="226" on="1"/>
      </contour>
      <contour>
        <pt x="284" y="368" on="1"/>
        <pt x="700" y="368" on="1"/>
        <pt x="700" y="1447" on="1"/>
        <pt x="284" y="1447" on="1"/>
      </contour>
    </TTGlyph>
    <TTGlyph name="dotlessyehmedialarabic" xMin="142" yMin="226" xMax="842" yMax="1588">
      <contour>
        <pt x="142" y="226" on="1"/>
        <pt x="142" y="1588" on="1"/>
        <pt x="842" y="1588" on="1"/>
        <pt x="842" y="226" on="1"/>
      </contour>
      <contour>
        <pt x="284" y="368" on="1"/>
        <pt x="700" y="368" on="1"/>
        <pt x="700" y="1447" on="1"/>
        <pt x="284" y="1447" on="1"/>
      </contour>
    </TTGlyph>
    <TTGlyph name="elefmaksuramedial" xMin="142" yMin="226" xMax="842" yMax="1588">
      <contour>
        <pt x="142" y="226" on="1"/>
        <pt x="142" y="1588" on="1"/>
        <pt x="842" y="1588" on="1"/>
        <pt x="842" y="226" on="1"/>
      </contour>
      <contour>
        <pt x="284" y="368" on="1"/>
        <pt x="700" y="368" on="1"/>
        <pt x="700" y="1447" on="1"/>
        <pt x="284" y="1447" on="1"/>
      </contour>
    </TTGlyph>
    <TTGlyph name="ellipsis" xMin="142" yMin="226" xMax="842" yMax="1588">
      <contour>
        <pt x="142" y="226" on="1"/>
        <pt x="142" y="1588" on="1"/>
        <pt x="842" y="1588" on="1"/>
        <pt x="842" y="226" on="1"/>
      </contour>
      <contour>
        <pt x="284" y="368" on="1"/>
        <pt x="700" y="368" on="1"/>
        <pt x="700" y="1447" on="1"/>
        <pt x="284" y="1447" on="1"/>
      </contour>
    </TTGlyph>
    <TTGlyph name="emdash" xMin="154" yMin="-106" xMax="2202" yMax="1531">
      <contour>
        <pt x="2202" y="456" on="1"/>
        <pt x="2202" y="414" on="0"/>
        <pt x="2186" y="334" on="1"/>
        <pt x="2172" y="267" on="0"/>
        <pt x="2162" y="236" on="1"/>
        <pt x="2155" y="216" on="0"/>
        <pt x="2135" y="208" on="1"/>
        <pt x="2119" y="202" on="0"/>
        <pt x="2102" y="197" on="1"/>
        <pt x="2060" y="170" on="0"/>
        <pt x="1970" y="131" on="1"/>
        <pt x="1568" y="37" on="0"/>
        <pt x="1582" y="37" on="1"/>
        <pt x="1246" y="6" on="1"/>
        <pt x="1196" y="6" on="0"/>
        <pt x="1122" y="60" on="1"/>
        <pt x="1088" y="84" on="0"/>
        <pt x="1062" y="199" on="0"/>
        <pt x="1055" y="325" on="1"/>
        <pt x="1051" y="419" on="0"/>
        <pt x="1042" y="605" on="0"/>
        <pt x="1034" y="789" on="1"/>
        <pt x="1030" y="870" on="0"/>
        <pt x="1021" y="1024" on="1"/>
        <pt x="1020" y="1042" on="0"/>
        <pt x="1012" y="1093" on="1"/>
        <pt x="1005" y="1140" on="0"/>
        <pt x="1005" y="1153" on="1"/>
        <pt x="1005" y="1199" on="0"/>
        <pt x="1032" y="1285" on="1"/>
        <pt x="1040" y="1285" on="0"/>
        <pt x="1046" y="1262" on="1"/>
        <pt x="1057" y="1189" on="0"/>
        <pt x="1064" y="1036" on="1"/>
        <pt x="1073" y="829" on="0"/>
        <pt x="1077" y="791" on="1"/>
        <pt x="1077" y="777" on="0"/>
        <pt x="1088" y="501" on="1"/>
        <pt x="1094" y="356" on="0"/>
        <pt x="1117" y="270" on="1"/>
        <pt x="1122" y="249" on="0"/>
        <pt x="1163" y="213" on="1"/>
        <pt x="1201" y="180" on="0"/>
        <pt x="1208" y="180" on="1"/>
        <pt x="1213" y="180" on="0"/>
        <pt x="1335" y="160" on="0"/>
        <pt x="1340" y="160" on="1"/>
        <pt x="1442" y="160" on="0"/>
        <pt x="1700" y="214" on="1"/>
        <pt x="1913" y="259" on="0"/>
        <pt x="1995" y="285" on="1"/>
        <pt x="2041" y="309" on="0"/>
        <pt x="2135" y="354" on="1"/>
        <pt x="2138" y="361" on="0"/>
        <pt x="2138" y="374" on="1"/>
        <pt x="2138" y="464" on="0"/>
        <pt x="2047" y="483" on="1"/>
        <pt x="1602" y="354" on="1"/>
        <pt x="1596" y="354" on="0"/>
        <pt x="1373" y="333" on="0"/>
        <pt x="1367" y="333" on="1"/>
        <pt x="1340" y="333" on="0"/>
        <pt x="1284" y="360" on="1"/>
        <pt x="1220" y="389" on="0"/>
        <pt x="1214" y="419" on="1"/>
        <pt x="1213" y="447" on="0"/>
        <pt x="1215" y="505" on="1"/>
        <pt x="1246" y="724" on="0"/>
        <pt x="1376" y="927" on="1"/>
        <pt x="1486" y="1101" on="0"/>
        <pt x="1592" y="1162" on="1"/>
        <pt x="1592" y="1158" on="0"/>
        <pt x="1597" y="1142" on="0"/>
        <pt x="1597" y="1127" on="1"/>
        <pt x="1597" y="1107" on="0"/>
        <pt x="1589" y="1068" on="1"/>
        <pt x="1580" y="1026" on="0"/>
        <pt x="1571" y="1013" on="1"/>
        <pt x="1536" y="985" on="0"/>
        <pt x="1460" y="904" on="1"/>
        <pt x="1415" y="846" on="0"/>
        <pt x="1369" y="790" on="1"/>
        <pt x="1314" y="710" on="0"/>
        <pt x="1265" y="573" on="1"/>
        <pt x="1265" y="562" on="0"/>
        <pt x="1277" y="541" on="1"/>
        <pt x="1289" y="528" on="0"/>
        <pt x="1314" y="510" on="1"/>
        <pt x="1371" y="487" on="0"/>
        <pt x="1500" y="487" on="1"/>
        <pt x="1504" y="487" on="0"/>
        <pt x="1681" y="508" on="0"/>
        <pt x="1687" y="508" on="1"/>
        <pt x="2076" y="620" on="1"/>
        <pt x="2115" y="620" on="0"/>
        <pt x="2150" y="590" on="1"/>
        <pt x="2202" y="545" on="0"/>
      </contour>
      <contour>
        <pt x="1440" y="1501" on="1"/>
        <pt x="1440" y="1446" on="0"/>
        <pt x="1413" y="1411" on="1"/>
        <pt x="1242" y="1191" on="0"/>
        <pt x="1144" y="1010" on="1"/>
        <pt x="1121" y="1010" on="1"/>
        <pt x="1121" y="1014" on="0"/>
        <pt x="1116" y="1035" on="0"/>
        <pt x="1116" y="1050" on="1"/>
        <pt x="1116" y="1102" on="0"/>
        <pt x="1134" y="1128" on="1"/>
        <pt x="1413" y="1531" on="0"/>
        <pt x="1417" y="1530" on="1"/>
        <pt x="1435" y="1530" on="1"/>
        <pt x="1435" y="1527" on="0"/>
        <pt x="1440" y="1516" on="0"/>
      </contour>
      <contour>
        <pt x="861" y="1480" on="1"/>
        <pt x="861" y="1461" on="0"/>
        <pt x="850" y="1422" on="1"/>
        <pt x="839" y="1380" on="0"/>
        <pt x="829" y="1371" on="1"/>
        <pt x="602" y="1149" on="0"/>
        <pt x="429" y="945" on="1"/>
        <pt x="353" y="845" on="0"/>
        <pt x="211" y="661" on="1"/>
        <pt x="205" y="676" on="0"/>
        <pt x="205" y="697" on="1"/>
        <pt x="205" y="798" on="0"/>
        <pt x="312" y="919" on="1"/>
        <pt x="354" y="972" on="0"/>
        <pt x="436" y="1073" on="1"/>
        <pt x="463" y="1112" on="0"/>
        <pt x="517" y="1179" on="1"/>
        <pt x="677" y="1347" on="0"/>
        <pt x="855" y="1511" on="1"/>
        <pt x="861" y="1497" on="0"/>
      </contour>
      <contour>
        <pt x="635" y="472" on="1"/>
        <pt x="635" y="446" on="0"/>
        <pt x="624" y="407" on="1"/>
        <pt x="613" y="365" on="0"/>
        <pt x="601" y="365" on="1"/>
        <pt x="584" y="365" on="0"/>
        <pt x="570" y="404" on="1"/>
        <pt x="558" y="437" on="0"/>
        <pt x="558" y="456" on="1"/>
        <pt x="558" y="487" on="0"/>
        <pt x="584" y="569" on="0"/>
        <pt x="594" y="569" on="1"/>
        <pt x="606" y="569" on="0"/>
        <pt x="621" y="528" on="1"/>
        <pt x="635" y="490" on="0"/>
      </contour>
      <contour>
        <pt x="971" y="390" on="1"/>
        <pt x="971" y="315" on="0"/>
        <pt x="970" y="297" on="1"/>
        <pt x="965" y="253" on="0"/>
        <pt x="944" y="172" on="1"/>
        <pt x="928" y="112" on="0"/>
        <pt x="880" y="61" on="1"/>
        <pt x="844" y="26" on="0"/>
        <pt x="808" y="-7" on="1"/>
        <pt x="746" y="-72" on="0"/>
        <pt x="676" y="-79" on="1"/>
        <pt x="672" y="-80" on="0"/>
        <pt x="651" y="-96" on="0"/>
        <pt x="640" y="-96" on="0"/>
        <pt x="596" y="-106" on="0"/>
        <pt x="590" y="-106" on="1"/>
        <pt x="386" y="-106" on="0"/>
        <pt x="287" y="9" on="1"/>
        <pt x="252" y="50" on="0"/>
        <pt x="154" y="286" on="1"/>
        <pt x="154" y="320" on="1"/>
        <pt x="159" y="333" on="0"/>
        <pt x="166" y="333" on="1"/>
        <pt x="169" y="333" on="0"/>
        <pt x="221" y="261" on="1"/>
        <pt x="279" y="179" on="0"/>
        <pt x="310" y="152" on="1"/>
        <pt x="356" y="111" on="0"/>
        <pt x="454" y="79" on="1"/>
        <pt x="548" y="47" on="0"/>
        <pt x="612" y="47" on="1"/>
        <pt x="617" y="47" on="0"/>
        <pt x="634" y="63" on="0"/>
        <pt x="637" y="64" on="1"/>
        <pt x="668" y="69" on="0"/>
        <pt x="760" y="101" on="1"/>
        <pt x="785" y="109" on="0"/>
        <pt x="850" y="171" on="1"/>
        <pt x="933" y="251" on="0"/>
        <pt x="933" y="308" on="1"/>
        <pt x="933" y="319" on="0"/>
        <pt x="891" y="482" on="0"/>
        <pt x="891" y="492" on="1"/>
        <pt x="891" y="508" on="0"/>
        <pt x="900" y="556" on="1"/>
        <pt x="910" y="610" on="0"/>
        <pt x="918" y="610" on="1"/>
        <pt x="937" y="610" on="0"/>
        <pt x="970" y="464" on="1"/>
        <pt x="971" y="455" on="0"/>
      </contour>
    </TTGlyph>
    <TTGlyph name="endash" xMin="154" yMin="-106" xMax="1178" yMax="1531">
      <contour>
        <pt x="1178" y="456" on="1"/>
        <pt x="1178" y="414" on="0"/>
        <pt x="1170" y="334" on="1"/>
        <pt x="1163" y="267" on="0"/>
        <pt x="1158" y="236" on="1"/>
        <pt x="1154" y="216" on="0"/>
        <pt x="1145" y="208" on="1"/>
        <pt x="1136" y="202" on="0"/>
        <pt x="1128" y="197" on="1"/>
        <pt x="1107" y="170" on="0"/>
        <pt x="1062" y="131" on="1"/>
        <pt x="861" y="37" on="0"/>
        <pt x="868" y="37" on="1"/>
        <pt x="700" y="6" on="1"/>
        <pt x="675" y="6" on="0"/>
        <pt x="638" y="60" on="1"/>
        <pt x="621" y="84" on="0"/>
        <pt x="608" y="199" on="0"/>
        <pt x="604" y="325" on="1"/>
        <pt x="602" y="419" on="0"/>
        <pt x="598" y="605" on="0"/>
        <pt x="594" y="789" on="1"/>
        <pt x="592" y="870" on="0"/>
        <pt x="587" y="1024" on="1"/>
        <pt x="587" y="1042" on="0"/>
        <pt x="583" y="1093" on="1"/>
        <pt x="580" y="1140" on="0"/>
        <pt x="580" y="1153" on="1"/>
        <pt x="580" y="1199" on="0"/>
        <pt x="593" y="1285" on="1"/>
        <pt x="597" y="1285" on="0"/>
        <pt x="600" y="1262" on="1"/>
        <pt x="605" y="1189" on="0"/>
        <pt x="609" y="1036" on="1"/>
        <pt x="614" y="829" on="0"/>
        <pt x="615" y="791" on="1"/>
        <pt x="615" y="777" on="0"/>
        <pt x="621" y="501" on="1"/>
        <pt x="624" y="356" on="0"/>
        <pt x="635" y="270" on="1"/>
        <pt x="638" y="249" on="0"/>
        <pt x="659" y="213" on="1"/>
        <pt x="678" y="180" on="0"/>
        <pt x="681" y="180" on="1"/>
        <pt x="683" y="180" on="0"/>
        <pt x="745" y="160" on="0"/>
        <pt x="747" y="160" on="1"/>
        <pt x="798" y="160" on="0"/>
        <pt x="927" y="214" on="1"/>
        <pt x="1033" y="259" on="0"/>
        <pt x="1075" y="285" on="1"/>
        <pt x="1098" y="309" on="0"/>
        <pt x="1145" y="354" on="1"/>
        <pt x="1146" y="361" on="0"/>
        <pt x="1146" y="374" on="1"/>
        <pt x="1146" y="464" on="0"/>
        <pt x="1100" y="483" on="1"/>
        <pt x="878" y="354" on="1"/>
        <pt x="875" y="354" on="0"/>
        <pt x="763" y="333" on="0"/>
        <pt x="761" y="333" on="1"/>
        <pt x="747" y="333" on="0"/>
        <pt x="719" y="360" on="1"/>
        <pt x="687" y="389" on="0"/>
        <pt x="684" y="419" on="1"/>
        <pt x="683" y="447" on="0"/>
        <pt x="685" y="505" on="1"/>
        <pt x="700" y="724" on="0"/>
        <pt x="765" y="927" on="1"/>
        <pt x="820" y="1101" on="0"/>
        <pt x="873" y="1162" on="1"/>
        <pt x="873" y="1158" on="0"/>
        <pt x="876" y="1142" on="0"/>
        <pt x="876" y="1127" on="1"/>
        <pt x="876" y="1107" on="0"/>
        <pt x="871" y="1068" on="1"/>
        <pt x="867" y="1026" on="0"/>
        <pt x="862" y="1013" on="1"/>
        <pt x="845" y="985" on="0"/>
        <pt x="807" y="904" on="1"/>
        <pt x="784" y="846" on="0"/>
        <pt x="762" y="790" on="1"/>
        <pt x="734" y="710" on="0"/>
        <pt x="709" y="573" on="1"/>
        <pt x="709" y="562" on="0"/>
        <pt x="715" y="541" on="1"/>
        <pt x="721" y="528" on="0"/>
        <pt x="734" y="510" on="1"/>
        <pt x="763" y="487" on="0"/>
        <pt x="827" y="487" on="1"/>
        <pt x="829" y="487" on="0"/>
        <pt x="918" y="508" on="0"/>
        <pt x="921" y="508" on="1"/>
        <pt x="1115" y="620" on="1"/>
        <pt x="1134" y="620" on="0"/>
        <pt x="1152" y="590" on="1"/>
        <pt x="1178" y="545" on="0"/>
      </contour>
      <contour>
        <pt x="797" y="1501" on="1"/>
        <pt x="797" y="1446" on="0"/>
        <pt x="783" y="1411" on="1"/>
        <pt x="698" y="1191" on="0"/>
        <pt x="649" y="1010" on="1"/>
        <pt x="638" y="1010" on="1"/>
        <pt x="638" y="1014" on="0"/>
        <pt x="635" y="1035" on="0"/>
        <pt x="635" y="1050" on="1"/>
        <pt x="635" y="1102" on="0"/>
        <pt x="644" y="1128" on="1"/>
        <pt x="783" y="1531" on="0"/>
        <pt x="786" y="1530" on="1"/>
        <pt x="795" y="1530" on="1"/>
        <pt x="795" y="1527" on="0"/>
        <pt x="797" y="1516" on="0"/>
      </contour>
      <contour>
        <pt x="507" y="1480" on="1"/>
        <pt x="507" y="1461" on="0"/>
        <pt x="502" y="1422" on="1"/>
        <pt x="497" y="1380" on="0"/>
        <pt x="492" y="1371" on="1"/>
        <pt x="378" y="1149" on="0"/>
        <pt x="292" y="945" on="1"/>
        <pt x="253" y="845" on="0"/>
        <pt x="182" y="661" on="1"/>
        <pt x="179" y="676" on="0"/>
        <pt x="179" y="697" on="1"/>
        <pt x="179" y="798" on="0"/>
        <pt x="233" y="919" on="1"/>
        <pt x="254" y="972" on="0"/>
        <pt x="295" y="1073" on="1"/>
        <pt x="309" y="1112" on="0"/>
        <pt x="335" y="1179" on="1"/>
        <pt x="415" y="1347" on="0"/>
        <pt x="504" y="1511" on="1"/>
        <pt x="507" y="1497" on="0"/>
      </contour>
      <contour>
        <pt x="395" y="472" on="1"/>
        <pt x="395" y="446" on="0"/>
        <pt x="389" y="407" on="1"/>
        <pt x="383" y="365" on="0"/>
        <pt x="378" y="365" on="1"/>
        <pt x="369" y="365" on="0"/>
        <pt x="362" y="404" on="1"/>
        <pt x="356" y="437" on="0"/>
        <pt x="356" y="456" on="1"/>
        <pt x="356" y="487" on="0"/>
        <pt x="369" y="569" on="0"/>
        <pt x="374" y="569" on="1"/>
        <pt x="380" y="569" on="0"/>
        <pt x="388" y="528" on="1"/>
        <pt x="395" y="490" on="0"/>
      </contour>
      <contour>
        <pt x="563" y="390" on="1"/>
        <pt x="563" y="315" on="0"/>
        <pt x="562" y="297" on="1"/>
        <pt x="560" y="253" on="0"/>
        <pt x="549" y="172" on="1"/>
        <pt x="541" y="112" on="0"/>
        <pt x="517" y="61" on="1"/>
        <pt x="499" y="26" on="0"/>
        <pt x="481" y="-7" on="1"/>
        <pt x="450" y="-72" on="0"/>
        <pt x="415" y="-79" on="1"/>
        <pt x="413" y="-80" on="0"/>
        <pt x="403" y="-96" on="0"/>
        <pt x="397" y="-96" on="0"/>
        <pt x="375" y="-106" on="0"/>
        <pt x="372" y="-106" on="1"/>
        <pt x="270" y="-106" on="0"/>
        <pt x="220" y="9" on="1"/>
        <pt x="203" y="50" on="0"/>
        <pt x="154" y="286" on="1"/>
        <pt x="154" y="320" on="1"/>
        <pt x="157" y="333" on="0"/>
        <pt x="160" y="333" on="1"/>
        <pt x="161" y="333" on="0"/>
        <pt x="187" y="261" on="1"/>
        <pt x="216" y="179" on="0"/>
        <pt x="232" y="152" on="1"/>
        <pt x="255" y="111" on="0"/>
        <pt x="304" y="79" on="1"/>
        <pt x="351" y="47" on="0"/>
        <pt x="383" y="47" on="1"/>
        <pt x="385" y="47" on="0"/>
        <pt x="394" y="63" on="0"/>
        <pt x="395" y="64" on="1"/>
        <pt x="411" y="69" on="0"/>
        <pt x="457" y="101" on="1"/>
        <pt x="469" y="109" on="0"/>
        <pt x="502" y="171" on="1"/>
        <pt x="544" y="251" on="0"/>
        <pt x="544" y="308" on="1"/>
        <pt x="544" y="319" on="0"/>
        <pt x="522" y="482" on="0"/>
        <pt x="522" y="492" on="1"/>
        <pt x="522" y="508" on="0"/>
        <pt x="527" y="556" on="1"/>
        <pt x="532" y="610" on="0"/>
        <pt x="536" y="610" on="1"/>
        <pt x="546" y="610" on="0"/>
        <pt x="562" y="464" on="1"/>
        <pt x="563" y="455" on="0"/>
      </contour>
    </TTGlyph>
    <TTGlyph name="equal" xMin="142" yMin="226" xMax="842" yMax="1588">
      <contour>
        <pt x="142" y="226" on="1"/>
        <pt x="142" y="1588" on="1"/>
        <pt x="842" y="1588" on="1"/>
        <pt x="842" y="226" on="1"/>
      </contour>
      <contour>
        <pt x="284" y="368" on="1"/>
        <pt x="700" y="368" on="1"/>
        <pt x="700" y="1447" on="1"/>
        <pt x="284" y="1447" on="1"/>
      </contour>
    </TTGlyph>
    <TTGlyph name="exclam" xMin="142" yMin="226" xMax="842" yMax="1588">
      <contour>
        <pt x="142" y="226" on="1"/>
        <pt x="142" y="1588" on="1"/>
        <pt x="842" y="1588" on="1"/>
        <pt x="842" y="226" on="1"/>
      </contour>
      <contour>
        <pt x="284" y="368" on="1"/>
        <pt x="700" y="368" on="1"/>
        <pt x="700" y="1447" on="1"/>
        <pt x="284" y="1447" on="1"/>
      </contour>
    </TTGlyph>
    <TTGlyph name="figuredash" xMin="154" yMin="-106" xMax="5078" yMax="1531">
      <contour>
        <pt x="5078" y="456" on="1"/>
        <pt x="5078" y="414" on="0"/>
        <pt x="5040" y="334" on="1"/>
        <pt x="5007" y="267" on="0"/>
        <pt x="4981" y="236" on="1"/>
        <pt x="4965" y="216" on="0"/>
        <pt x="4917" y="208" on="1"/>
        <pt x="4878" y="202" on="0"/>
        <pt x="4838" y="197" on="1"/>
        <pt x="4736" y="170" on="0"/>
        <pt x="4520" y="131" on="1"/>
        <pt x="3553" y="37" on="0"/>
        <pt x="3588" y="37" on="1"/>
        <pt x="2780" y="6" on="1"/>
        <pt x="2659" y="6" on="0"/>
        <pt x="2481" y="60" on="1"/>
        <pt x="2400" y="84" on="0"/>
        <pt x="2336" y="199" on="0"/>
        <pt x="2320" y="325" on="1"/>
        <pt x="2310" y="419" on="0"/>
        <pt x="2290" y="605" on="0"/>
        <pt x="2269" y="789" on="1"/>
        <pt x="2259" y="870" on="0"/>
        <pt x="2238" y="1024" on="1"/>
        <pt x="2236" y="1042" on="0"/>
        <pt x="2218" y="1093" on="1"/>
        <pt x="2201" y="1140" on="0"/>
        <pt x="2201" y="1153" on="1"/>
        <pt x="2201" y="1199" on="0"/>
        <pt x="2265" y="1285" on="1"/>
        <pt x="2285" y="1285" on="0"/>
        <pt x="2299" y="1262" on="1"/>
        <pt x="2324" y="1189" on="0"/>
        <pt x="2341" y="1036" on="1"/>
        <pt x="2364" y="829" on="0"/>
        <pt x="2372" y="791" on="1"/>
        <pt x="2373" y="777" on="0"/>
        <pt x="2400" y="501" on="1"/>
        <pt x="2414" y="356" on="0"/>
        <pt x="2469" y="270" on="1"/>
        <pt x="2482" y="249" on="0"/>
        <pt x="2581" y="213" on="1"/>
        <pt x="2672" y="180" on="0"/>
        <pt x="2688" y="180" on="1"/>
        <pt x="2699" y="180" on="0"/>
        <pt x="2994" y="160" on="0"/>
        <pt x="3005" y="160" on="1"/>
        <pt x="3250" y="160" on="0"/>
        <pt x="3870" y="214" on="1"/>
        <pt x="4382" y="259" on="0"/>
        <pt x="4581" y="285" on="1"/>
        <pt x="4692" y="309" on="0"/>
        <pt x="4917" y="354" on="1"/>
        <pt x="4924" y="361" on="0"/>
        <pt x="4924" y="374" on="1"/>
        <pt x="4924" y="464" on="0"/>
        <pt x="4705" y="483" on="1"/>
        <pt x="3635" y="354" on="1"/>
        <pt x="3622" y="354" on="0"/>
        <pt x="3084" y="333" on="0"/>
        <pt x="3071" y="333" on="1"/>
        <pt x="3005" y="333" on="0"/>
        <pt x="2870" y="360" on="1"/>
        <pt x="2718" y="389" on="0"/>
        <pt x="2703" y="419" on="1"/>
        <pt x="2699" y="447" on="0"/>
        <pt x="2706" y="505" on="1"/>
        <pt x="2780" y="724" on="0"/>
        <pt x="3091" y="927" on="1"/>
        <pt x="3356" y="1101" on="0"/>
        <pt x="3612" y="1162" on="1"/>
        <pt x="3612" y="1158" on="0"/>
        <pt x="3624" y="1142" on="0"/>
        <pt x="3624" y="1127" on="1"/>
        <pt x="3624" y="1107" on="0"/>
        <pt x="3604" y="1068" on="1"/>
        <pt x="3583" y="1026" on="0"/>
        <pt x="3560" y="1013" on="1"/>
        <pt x="3476" y="985" on="0"/>
        <pt x="3294" y="904" on="1"/>
        <pt x="3185" y="846" on="0"/>
        <pt x="3076" y="790" on="1"/>
        <pt x="2944" y="710" on="0"/>
        <pt x="2825" y="573" on="1"/>
        <pt x="2825" y="562" on="0"/>
        <pt x="2854" y="541" on="1"/>
        <pt x="2882" y="528" on="0"/>
        <pt x="2944" y="510" on="1"/>
        <pt x="3081" y="487" on="0"/>
        <pt x="3389" y="487" on="1"/>
        <pt x="3401" y="487" on="0"/>
        <pt x="3826" y="508" on="0"/>
        <pt x="3840" y="508" on="1"/>
        <pt x="4776" y="620" on="1"/>
        <pt x="4868" y="620" on="0"/>
        <pt x="4953" y="590" on="1"/>
        <pt x="5078" y="545" on="0"/>
      </contour>
      <contour>
        <pt x="3246" y="1501" on="1"/>
        <pt x="3246" y="1446" on="0"/>
        <pt x="3181" y="1411" on="1"/>
        <pt x="2770" y="1191" on="0"/>
        <pt x="2535" y="1010" on="1"/>
        <pt x="2479" y="1010" on="1"/>
        <pt x="2479" y="1014" on="0"/>
        <pt x="2467" y="1035" on="0"/>
        <pt x="2467" y="1050" on="1"/>
        <pt x="2467" y="1102" on="0"/>
        <pt x="2511" y="1128" on="1"/>
        <pt x="3181" y="1531" on="0"/>
        <pt x="3191" y="1530" on="1"/>
        <pt x="3234" y="1530" on="1"/>
        <pt x="3234" y="1527" on="0"/>
        <pt x="3246" y="1516" on="0"/>
      </contour>
      <contour>
        <pt x="1853" y="1480" on="1"/>
        <pt x="1853" y="1461" on="0"/>
        <pt x="1828" y="1422" on="1"/>
        <pt x="1801" y="1380" on="0"/>
        <pt x="1778" y="1371" on="1"/>
        <pt x="1231" y="1149" on="0"/>
        <pt x="816" y="945" on="1"/>
        <pt x="632" y="845" on="0"/>
        <pt x="291" y="661" on="1"/>
        <pt x="276" y="676" on="0"/>
        <pt x="276" y="697" on="1"/>
        <pt x="276" y="798" on="0"/>
        <pt x="535" y="919" on="1"/>
        <pt x="635" y="972" on="0"/>
        <pt x="832" y="1073" on="1"/>
        <pt x="897" y="1112" on="0"/>
        <pt x="1026" y="1179" on="1"/>
        <pt x="1411" y="1347" on="0"/>
        <pt x="1839" y="1511" on="1"/>
        <pt x="1853" y="1497" on="0"/>
      </contour>
      <contour>
        <pt x="1311" y="472" on="1"/>
        <pt x="1311" y="446" on="0"/>
        <pt x="1285" y="407" on="1"/>
        <pt x="1257" y="365" on="0"/>
        <pt x="1229" y="365" on="1"/>
        <pt x="1189" y="365" on="0"/>
        <pt x="1154" y="404" on="1"/>
        <pt x="1126" y="437" on="0"/>
        <pt x="1126" y="456" on="1"/>
        <pt x="1126" y="487" on="0"/>
        <pt x="1189" y="569" on="0"/>
        <pt x="1213" y="569" on="1"/>
        <pt x="1241" y="569" on="0"/>
        <pt x="1277" y="528" on="1"/>
        <pt x="1311" y="490" on="0"/>
      </contour>
      <contour>
        <pt x="2119" y="390" on="1"/>
        <pt x="2119" y="315" on="0"/>
        <pt x="2115" y="297" on="1"/>
        <pt x="2105" y="253" on="0"/>
        <pt x="2053" y="172" on="1"/>
        <pt x="2014" y="112" on="0"/>
        <pt x="1899" y="61" on="1"/>
        <pt x="1813" y="26" on="0"/>
        <pt x="1727" y="-7" on="1"/>
        <pt x="1578" y="-72" on="0"/>
        <pt x="1408" y="-79" on="1"/>
        <pt x="1399" y="-80" on="0"/>
        <pt x="1350" y="-96" on="0"/>
        <pt x="1323" y="-96" on="0"/>
        <pt x="1216" y="-106" on="0"/>
        <pt x="1203" y="-106" on="1"/>
        <pt x="711" y="-106" on="0"/>
        <pt x="473" y="9" on="1"/>
        <pt x="389" y="50" on="0"/>
        <pt x="154" y="286" on="1"/>
        <pt x="154" y="320" on="1"/>
        <pt x="167" y="333" on="0"/>
        <pt x="184" y="333" on="1"/>
        <pt x="189" y="333" on="0"/>
        <pt x="315" y="261" on="1"/>
        <pt x="454" y="179" on="0"/>
        <pt x="529" y="152" on="1"/>
        <pt x="640" y="111" on="0"/>
        <pt x="876" y="79" on="1"/>
        <pt x="1101" y="47" on="0"/>
        <pt x="1254" y="47" on="1"/>
        <pt x="1266" y="47" on="0"/>
        <pt x="1307" y="63" on="0"/>
        <pt x="1315" y="64" on="1"/>
        <pt x="1390" y="69" on="0"/>
        <pt x="1611" y="101" on="1"/>
        <pt x="1670" y="109" on="0"/>
        <pt x="1828" y="171" on="1"/>
        <pt x="2027" y="251" on="0"/>
        <pt x="2027" y="308" on="1"/>
        <pt x="2027" y="319" on="0"/>
        <pt x="1925" y="482" on="0"/>
        <pt x="1925" y="492" on="1"/>
        <pt x="1925" y="508" on="0"/>
        <pt x="1947" y="556" on="1"/>
        <pt x="1972" y="610" on="0"/>
        <pt x="1991" y="610" on="1"/>
        <pt x="2037" y="610" on="0"/>
        <pt x="2115" y="464" on="1"/>
        <pt x="2119" y="455" on="0"/>
      </contour>
    </TTGlyph>
    <TTGlyph name="gaffinalarabic" xMin="142" yMin="226" xMax="842" yMax="1588">
      <contour>
        <pt x="142" y="226" on="1"/>
        <pt x="142" y="1588" on="1"/>
        <pt x="842" y="1588" on="1"/>
        <pt x="842" y="226" on="1"/>
      </contour>
      <contour>
        <pt x="284" y="368" on="1"/>
        <pt x="700" y="368" on="1"/>
        <pt x="700" y="1447" on="1"/>
        <pt x="284" y="1447" on="1"/>
      </contour>
    </TTGlyph>
    <TTGlyph name="gafinitialarabic" xMin="142" yMin="226" xMax="842" yMax="1588">
      <contour>
        <pt x="142" y="226" on="1"/>
        <pt x="142" y="1588" on="1"/>
        <pt x="842" y="1588" on="1"/>
        <pt x="842" y="226" on="1"/>
      </contour>
      <contour>
        <pt x="284" y="368" on="1"/>
        <pt x="700" y="368" on="1"/>
        <pt x="700" y="1447" on="1"/>
        <pt x="284" y="1447" on="1"/>
      </contour>
    </TTGlyph>
    <TTGlyph name="gafmedialarabic" xMin="142" yMin="226" xMax="842" yMax="1588">
      <contour>
        <pt x="142" y="226" on="1"/>
        <pt x="142" y="1588" on="1"/>
        <pt x="842" y="1588" on="1"/>
        <pt x="842" y="226" on="1"/>
      </contour>
      <contour>
        <pt x="284" y="368" on="1"/>
        <pt x="700" y="368" on="1"/>
        <pt x="700" y="1447" on="1"/>
        <pt x="284" y="1447" on="1"/>
      </contour>
    </TTGlyph>
    <TTGlyph name="glyph41" xMin="142" yMin="226" xMax="842" yMax="1588">
      <contour>
        <pt x="142" y="226" on="1"/>
        <pt x="142" y="1588" on="1"/>
        <pt x="842" y="1588" on="1"/>
        <pt x="842" y="226" on="1"/>
      </contour>
      <contour>
        <pt x="284" y="368" on="1"/>
        <pt x="700" y="368" on="1"/>
        <pt x="700" y="1447" on="1"/>
        <pt x="284" y="1447" on="1"/>
      </contour>
    </TTGlyph>
    <TTGlyph name="glyph42" xMin="142" yMin="226" xMax="842" yMax="1588">
      <contour>
        <pt x="142" y="226" on="1"/>
        <pt x="142" y="1588" on="1"/>
        <pt x="842" y="1588" on="1"/>
        <pt x="842" y="226" on="1"/>
      </contour>
      <contour>
        <pt x="284" y="368" on="1"/>
        <pt x="700" y="368" on="1"/>
        <pt x="700" y="1447" on="1"/>
        <pt x="284" y="1447" on="1"/>
      </contour>
    </TTGlyph>
    <TTGlyph name="glyph43" xMin="142" yMin="226" xMax="842" yMax="1588">
      <contour>
        <pt x="142" y="226" on="1"/>
        <pt x="142" y="1588" on="1"/>
        <pt x="842" y="1588" on="1"/>
        <pt x="842" y="226" on="1"/>
      </contour>
      <contour>
        <pt x="284" y="368" on="1"/>
        <pt x="700" y="368" on="1"/>
        <pt x="700" y="1447" on="1"/>
        <pt x="284" y="1447" on="1"/>
      </contour>
    </TTGlyph>
    <TTGlyph name="glyph44" xMin="142" yMin="226" xMax="842" yMax="1588">
      <contour>
        <pt x="142" y="226" on="1"/>
        <pt x="142" y="1588" on="1"/>
        <pt x="842" y="1588" on="1"/>
        <pt x="842" y="226" on="1"/>
      </contour>
      <contour>
        <pt x="284" y="368" on="1"/>
        <pt x="700" y="368" on="1"/>
        <pt x="700" y="1447" on="1"/>
        <pt x="284" y="1447" on="1"/>
      </contour>
    </TTGlyph>
    <TTGlyph name="glyph45" xMin="142" yMin="226" xMax="842" yMax="1588">
      <contour>
        <pt x="142" y="226" on="1"/>
        <pt x="142" y="1588" on="1"/>
        <pt x="842" y="1588" on="1"/>
        <pt x="842" y="226" on="1"/>
      </contour>
      <contour>
        <pt x="284" y="368" on="1"/>
        <pt x="700" y="368" on="1"/>
        <pt x="700" y="1447" on="1"/>
        <pt x="284" y="1447" on="1"/>
      </contour>
    </TTGlyph>
    <TTGlyph name="glyph46" xMin="142" yMin="226" xMax="842" yMax="1588">
      <contour>
        <pt x="142" y="226" on="1"/>
        <pt x="142" y="1588" on="1"/>
        <pt x="842" y="1588" on="1"/>
        <pt x="842" y="226" on="1"/>
      </contour>
      <contour>
        <pt x="284" y="368" on="1"/>
        <pt x="700" y="368" on="1"/>
        <pt x="700" y="1447" on="1"/>
        <pt x="284" y="1447" on="1"/>
      </contour>
    </TTGlyph>
    <TTGlyph name="glyph47" xMin="142" yMin="226" xMax="842" yMax="1588">
      <contour>
        <pt x="142" y="226" on="1"/>
        <pt x="142" y="1588" on="1"/>
        <pt x="842" y="1588" on="1"/>
        <pt x="842" y="226" on="1"/>
      </contour>
      <contour>
        <pt x="284" y="368" on="1"/>
        <pt x="700" y="368" on="1"/>
        <pt x="700" y="1447" on="1"/>
        <pt x="284" y="1447" on="1"/>
      </contour>
    </TTGlyph>
    <TTGlyph name="glyph48" xMin="142" yMin="226" xMax="842" yMax="1588">
      <contour>
        <pt x="142" y="226" on="1"/>
        <pt x="142" y="1588" on="1"/>
        <pt x="842" y="1588" on="1"/>
        <pt x="842" y="226" on="1"/>
      </contour>
      <contour>
        <pt x="284" y="368" on="1"/>
        <pt x="700" y="368" on="1"/>
        <pt x="700" y="1447" on="1"/>
        <pt x="284" y="1447" on="1"/>
      </contour>
    </TTGlyph>
    <TTGlyph name="glyph50" xMin="142" yMin="226" xMax="842" yMax="1588">
      <contour>
        <pt x="142" y="226" on="1"/>
        <pt x="142" y="1588" on="1"/>
        <pt x="842" y="1588" on="1"/>
        <pt x="842" y="226" on="1"/>
      </contour>
      <contour>
        <pt x="284" y="368" on="1"/>
        <pt x="700" y="368" on="1"/>
        <pt x="700" y="1447" on="1"/>
        <pt x="284" y="1447" on="1"/>
      </contour>
    </TTGlyph>
    <TTGlyph name="glyph51" xMin="142" yMin="226" xMax="842" yMax="1588">
      <contour>
        <pt x="142" y="226" on="1"/>
        <pt x="142" y="1588" on="1"/>
        <pt x="842" y="1588" on="1"/>
        <pt x="842" y="226" on="1"/>
      </contour>
      <contour>
        <pt x="284" y="368" on="1"/>
        <pt x="700" y="368" on="1"/>
        <pt x="700" y="1447" on="1"/>
        <pt x="284" y="1447" on="1"/>
      </contour>
    </TTGlyph>
    <TTGlyph name="greater" xMin="142" yMin="226" xMax="842" yMax="1588">
      <contour>
        <pt x="142" y="226" on="1"/>
        <pt x="142" y="1588" on="1"/>
        <pt x="842" y="1588" on="1"/>
        <pt x="842" y="226" on="1"/>
      </contour>
      <contour>
        <pt x="284" y="368" on="1"/>
        <pt x="700" y="368" on="1"/>
        <pt x="700" y="1447" on="1"/>
        <pt x="284" y="1447" on="1"/>
      </contour>
    </TTGlyph>
    <TTGlyph name="hahhamzabovefinal" xMin="142" yMin="226" xMax="842" yMax="1588">
      <contour>
        <pt x="142" y="226" on="1"/>
        <pt x="142" y="1588" on="1"/>
        <pt x="842" y="1588" on="1"/>
        <pt x="842" y="226" on="1"/>
      </contour>
      <contour>
        <pt x="284" y="368" on="1"/>
        <pt x="700" y="368" on="1"/>
        <pt x="700" y="1447" on="1"/>
        <pt x="284" y="1447" on="1"/>
      </contour>
    </TTGlyph>
    <TTGlyph name="hahhamzaboveinitial" xMin="142" yMin="226" xMax="842" yMax="1588">
      <contour>
        <pt x="142" y="226" on="1"/>
        <pt x="142" y="1588" on="1"/>
        <pt x="842" y="1588" on="1"/>
        <pt x="842" y="226" on="1"/>
      </contour>
      <contour>
        <pt x="284" y="368" on="1"/>
        <pt x="700" y="368" on="1"/>
        <pt x="700" y="1447" on="1"/>
        <pt x="284" y="1447" on="1"/>
      </contour>
    </TTGlyph>
    <TTGlyph name="hahhamzabovemedial" xMin="142" yMin="226" xMax="842" yMax="1588">
      <contour>
        <pt x="142" y="226" on="1"/>
        <pt x="142" y="1588" on="1"/>
        <pt x="842" y="1588" on="1"/>
        <pt x="842" y="226" on="1"/>
      </contour>
      <contour>
        <pt x="284" y="368" on="1"/>
        <pt x="700" y="368" on="1"/>
        <pt x="700" y="1447" on="1"/>
        <pt x="284" y="1447" on="1"/>
      </contour>
    </TTGlyph>
    <TTGlyph name="hahthreedotsabovefinal" xMin="142" yMin="226" xMax="842" yMax="1588">
      <contour>
        <pt x="142" y="226" on="1"/>
        <pt x="142" y="1588" on="1"/>
        <pt x="842" y="1588" on="1"/>
        <pt x="842" y="226" on="1"/>
      </contour>
      <contour>
        <pt x="284" y="368" on="1"/>
        <pt x="700" y="368" on="1"/>
        <pt x="700" y="1447" on="1"/>
        <pt x="284" y="1447" on="1"/>
      </contour>
    </TTGlyph>
    <TTGlyph name="hahthreedotsaboveinitial" xMin="142" yMin="226" xMax="842" yMax="1588">
      <contour>
        <pt x="142" y="226" on="1"/>
        <pt x="142" y="1588" on="1"/>
        <pt x="842" y="1588" on="1"/>
        <pt x="842" y="226" on="1"/>
      </contour>
      <contour>
        <pt x="284" y="368" on="1"/>
        <pt x="700" y="368" on="1"/>
        <pt x="700" y="1447" on="1"/>
        <pt x="284" y="1447" on="1"/>
      </contour>
    </TTGlyph>
    <TTGlyph name="hahthreedotsabovemedial" xMin="142" yMin="226" xMax="842" yMax="1588">
      <contour>
        <pt x="142" y="226" on="1"/>
        <pt x="142" y="1588" on="1"/>
        <pt x="842" y="1588" on="1"/>
        <pt x="842" y="226" on="1"/>
      </contour>
      <contour>
        <pt x="284" y="368" on="1"/>
        <pt x="700" y="368" on="1"/>
        <pt x="700" y="1447" on="1"/>
        <pt x="284" y="1447" on="1"/>
      </contour>
    </TTGlyph>
    <TTGlyph name="hehdoachashmeefinalarabic" xMin="142" yMin="226" xMax="842" yMax="1588">
      <contour>
        <pt x="142" y="226" on="1"/>
        <pt x="142" y="1588" on="1"/>
        <pt x="842" y="1588" on="1"/>
        <pt x="842" y="226" on="1"/>
      </contour>
      <contour>
        <pt x="284" y="368" on="1"/>
        <pt x="700" y="368" on="1"/>
        <pt x="700" y="1447" on="1"/>
        <pt x="284" y="1447" on="1"/>
      </contour>
    </TTGlyph>
    <TTGlyph name="hehdoachashmeeinitialarabic" xMin="142" yMin="226" xMax="842" yMax="1588">
      <contour>
        <pt x="142" y="226" on="1"/>
        <pt x="142" y="1588" on="1"/>
        <pt x="842" y="1588" on="1"/>
        <pt x="842" y="226" on="1"/>
      </contour>
      <contour>
        <pt x="284" y="368" on="1"/>
        <pt x="700" y="368" on="1"/>
        <pt x="700" y="1447" on="1"/>
        <pt x="284" y="1447" on="1"/>
      </contour>
    </TTGlyph>
    <TTGlyph name="hehdoachashmeemedialarabic" xMin="142" yMin="226" xMax="842" yMax="1588">
      <contour>
        <pt x="142" y="226" on="1"/>
        <pt x="142" y="1588" on="1"/>
        <pt x="842" y="1588" on="1"/>
        <pt x="842" y="226" on="1"/>
      </contour>
      <contour>
        <pt x="284" y="368" on="1"/>
        <pt x="700" y="368" on="1"/>
        <pt x="700" y="1447" on="1"/>
        <pt x="284" y="1447" on="1"/>
      </contour>
    </TTGlyph>
    <TTGlyph name="hehfinalaltonearabic" xMin="142" yMin="226" xMax="842" yMax="1588">
      <contour>
        <pt x="142" y="226" on="1"/>
        <pt x="142" y="1588" on="1"/>
        <pt x="842" y="1588" on="1"/>
        <pt x="842" y="226" on="1"/>
      </contour>
      <contour>
        <pt x="284" y="368" on="1"/>
        <pt x="700" y="368" on="1"/>
        <pt x="700" y="1447" on="1"/>
        <pt x="284" y="1447" on="1"/>
      </contour>
    </TTGlyph>
    <TTGlyph name="hehhamzaabovefinalarabic" xMin="142" yMin="226" xMax="842" yMax="1588">
      <contour>
        <pt x="142" y="226" on="1"/>
        <pt x="142" y="1588" on="1"/>
        <pt x="842" y="1588" on="1"/>
        <pt x="842" y="226" on="1"/>
      </contour>
      <contour>
        <pt x="284" y="368" on="1"/>
        <pt x="700" y="368" on="1"/>
        <pt x="700" y="1447" on="1"/>
        <pt x="284" y="1447" on="1"/>
      </contour>
    </TTGlyph>
    <TTGlyph name="hehinitialaltonearabic" xMin="142" yMin="226" xMax="842" yMax="1588">
      <contour>
        <pt x="142" y="226" on="1"/>
        <pt x="142" y="1588" on="1"/>
        <pt x="842" y="1588" on="1"/>
        <pt x="842" y="226" on="1"/>
      </contour>
      <contour>
        <pt x="284" y="368" on="1"/>
        <pt x="700" y="368" on="1"/>
        <pt x="700" y="1447" on="1"/>
        <pt x="284" y="1447" on="1"/>
      </contour>
    </TTGlyph>
    <TTGlyph name="hehmedialaltonearabic" xMin="142" yMin="226" xMax="842" yMax="1588">
      <contour>
        <pt x="142" y="226" on="1"/>
        <pt x="142" y="1588" on="1"/>
        <pt x="842" y="1588" on="1"/>
        <pt x="842" y="226" on="1"/>
      </contour>
      <contour>
        <pt x="284" y="368" on="1"/>
        <pt x="700" y="368" on="1"/>
        <pt x="700" y="1447" on="1"/>
        <pt x="284" y="1447" on="1"/>
      </contour>
    </TTGlyph>
    <TTGlyph name="hyphen" xMin="154" yMin="-106" xMax="5078" yMax="1531">
      <contour>
        <pt x="5078" y="456" on="1"/>
        <pt x="5078" y="414" on="0"/>
        <pt x="5040" y="334" on="1"/>
        <pt x="5007" y="267" on="0"/>
        <pt x="4981" y="236" on="1"/>
        <pt x="4965" y="216" on="0"/>
        <pt x="4917" y="208" on="1"/>
        <pt x="4878" y="202" on="0"/>
        <pt x="4838" y="197" on="1"/>
        <pt x="4736" y="170" on="0"/>
        <pt x="4520" y="131" on="1"/>
        <pt x="3553" y="37" on="0"/>
        <pt x="3588" y="37" on="1"/>
        <pt x="2780" y="6" on="1"/>
        <pt x="2659" y="6" on="0"/>
        <pt x="2481" y="60" on="1"/>
        <pt x="2400" y="84" on="0"/>
        <pt x="2336" y="199" on="0"/>
        <pt x="2320" y="325" on="1"/>
        <pt x="2310" y="419" on="0"/>
        <pt x="2290" y="605" on="0"/>
        <pt x="2269" y="789" on="1"/>
        <pt x="2259" y="870" on="0"/>
        <pt x="2238" y="1024" on="1"/>
        <pt x="2236" y="1042" on="0"/>
        <pt x="2218" y="1093" on="1"/>
        <pt x="2201" y="1140" on="0"/>
        <pt x="2201" y="1153" on="1"/>
        <pt x="2201" y="1199" on="0"/>
        <pt x="2265" y="1285" on="1"/>
        <pt x="2285" y="1285" on="0"/>
        <pt x="2299" y="1262" on="1"/>
        <pt x="2324" y="1189" on="0"/>
        <pt x="2341" y="1036" on="1"/>
        <pt x="2364" y="829" on="0"/>
        <pt x="2372" y="791" on="1"/>
        <pt x="2373" y="777" on="0"/>
        <pt x="2400" y="501" on="1"/>
        <pt x="2414" y="356" on="0"/>
        <pt x="2469" y="270" on="1"/>
        <pt x="2482" y="249" on="0"/>
        <pt x="2581" y="213" on="1"/>
        <pt x="2672" y="180" on="0"/>
        <pt x="2688" y="180" on="1"/>
        <pt x="2699" y="180" on="0"/>
        <pt x="2994" y="160" on="0"/>
        <pt x="3005" y="160" on="1"/>
        <pt x="3250" y="160" on="0"/>
        <pt x="3870" y="214" on="1"/>
        <pt x="4382" y="259" on="0"/>
        <pt x="4581" y="285" on="1"/>
        <pt x="4692" y="309" on="0"/>
        <pt x="4917" y="354" on="1"/>
        <pt x="4924" y="361" on="0"/>
        <pt x="4924" y="374" on="1"/>
        <pt x="4924" y="464" on="0"/>
        <pt x="4705" y="483" on="1"/>
        <pt x="3635" y="354" on="1"/>
        <pt x="3622" y="354" on="0"/>
        <pt x="3084" y="333" on="0"/>
        <pt x="3071" y="333" on="1"/>
        <pt x="3005" y="333" on="0"/>
        <pt x="2870" y="360" on="1"/>
        <pt x="2718" y="389" on="0"/>
        <pt x="2703" y="419" on="1"/>
        <pt x="2699" y="447" on="0"/>
        <pt x="2706" y="505" on="1"/>
        <pt x="2780" y="724" on="0"/>
        <pt x="3091" y="927" on="1"/>
        <pt x="3356" y="1101" on="0"/>
        <pt x="3612" y="1162" on="1"/>
        <pt x="3612" y="1158" on="0"/>
        <pt x="3624" y="1142" on="0"/>
        <pt x="3624" y="1127" on="1"/>
        <pt x="3624" y="1107" on="0"/>
        <pt x="3604" y="1068" on="1"/>
        <pt x="3583" y="1026" on="0"/>
        <pt x="3560" y="1013" on="1"/>
        <pt x="3476" y="985" on="0"/>
        <pt x="3294" y="904" on="1"/>
        <pt x="3185" y="846" on="0"/>
        <pt x="3076" y="790" on="1"/>
        <pt x="2944" y="710" on="0"/>
        <pt x="2825" y="573" on="1"/>
        <pt x="2825" y="562" on="0"/>
        <pt x="2854" y="541" on="1"/>
        <pt x="2882" y="528" on="0"/>
        <pt x="2944" y="510" on="1"/>
        <pt x="3081" y="487" on="0"/>
        <pt x="3389" y="487" on="1"/>
        <pt x="3401" y="487" on="0"/>
        <pt x="3826" y="508" on="0"/>
        <pt x="3840" y="508" on="1"/>
        <pt x="4776" y="620" on="1"/>
        <pt x="4868" y="620" on="0"/>
        <pt x="4953" y="590" on="1"/>
        <pt x="5078" y="545" on="0"/>
      </contour>
      <contour>
        <pt x="3246" y="1501" on="1"/>
        <pt x="3246" y="1446" on="0"/>
        <pt x="3181" y="1411" on="1"/>
        <pt x="2770" y="1191" on="0"/>
        <pt x="2535" y="1010" on="1"/>
        <pt x="2479" y="1010" on="1"/>
        <pt x="2479" y="1014" on="0"/>
        <pt x="2467" y="1035" on="0"/>
        <pt x="2467" y="1050" on="1"/>
        <pt x="2467" y="1102" on="0"/>
        <pt x="2511" y="1128" on="1"/>
        <pt x="3181" y="1531" on="0"/>
        <pt x="3191" y="1530" on="1"/>
        <pt x="3234" y="1530" on="1"/>
        <pt x="3234" y="1527" on="0"/>
        <pt x="3246" y="1516" on="0"/>
      </contour>
      <contour>
        <pt x="1853" y="1480" on="1"/>
        <pt x="1853" y="1461" on="0"/>
        <pt x="1828" y="1422" on="1"/>
        <pt x="1801" y="1380" on="0"/>
        <pt x="1778" y="1371" on="1"/>
        <pt x="1231" y="1149" on="0"/>
        <pt x="816" y="945" on="1"/>
        <pt x="632" y="845" on="0"/>
        <pt x="291" y="661" on="1"/>
        <pt x="276" y="676" on="0"/>
        <pt x="276" y="697" on="1"/>
        <pt x="276" y="798" on="0"/>
        <pt x="535" y="919" on="1"/>
        <pt x="635" y="972" on="0"/>
        <pt x="832" y="1073" on="1"/>
        <pt x="897" y="1112" on="0"/>
        <pt x="1026" y="1179" on="1"/>
        <pt x="1411" y="1347" on="0"/>
        <pt x="1839" y="1511" on="1"/>
        <pt x="1853" y="1497" on="0"/>
      </contour>
      <contour>
        <pt x="1311" y="472" on="1"/>
        <pt x="1311" y="446" on="0"/>
        <pt x="1285" y="407" on="1"/>
        <pt x="1257" y="365" on="0"/>
        <pt x="1229" y="365" on="1"/>
        <pt x="1189" y="365" on="0"/>
        <pt x="1154" y="404" on="1"/>
        <pt x="1126" y="437" on="0"/>
        <pt x="1126" y="456" on="1"/>
        <pt x="1126" y="487" on="0"/>
        <pt x="1189" y="569" on="0"/>
        <pt x="1213" y="569" on="1"/>
        <pt x="1241" y="569" on="0"/>
        <pt x="1277" y="528" on="1"/>
        <pt x="1311" y="490" on="0"/>
      </contour>
      <contour>
        <pt x="2119" y="390" on="1"/>
        <pt x="2119" y="315" on="0"/>
        <pt x="2115" y="297" on="1"/>
        <pt x="2105" y="253" on="0"/>
        <pt x="2053" y="172" on="1"/>
        <pt x="2014" y="112" on="0"/>
        <pt x="1899" y="61" on="1"/>
        <pt x="1813" y="26" on="0"/>
        <pt x="1727" y="-7" on="1"/>
        <pt x="1578" y="-72" on="0"/>
        <pt x="1408" y="-79" on="1"/>
        <pt x="1399" y="-80" on="0"/>
        <pt x="1350" y="-96" on="0"/>
        <pt x="1323" y="-96" on="0"/>
        <pt x="1216" y="-106" on="0"/>
        <pt x="1203" y="-106" on="1"/>
        <pt x="711" y="-106" on="0"/>
        <pt x="473" y="9" on="1"/>
        <pt x="389" y="50" on="0"/>
        <pt x="154" y="286" on="1"/>
        <pt x="154" y="320" on="1"/>
        <pt x="167" y="333" on="0"/>
        <pt x="184" y="333" on="1"/>
        <pt x="189" y="333" on="0"/>
        <pt x="315" y="261" on="1"/>
        <pt x="454" y="179" on="0"/>
        <pt x="529" y="152" on="1"/>
        <pt x="640" y="111" on="0"/>
        <pt x="876" y="79" on="1"/>
        <pt x="1101" y="47" on="0"/>
        <pt x="1254" y="47" on="1"/>
        <pt x="1266" y="47" on="0"/>
        <pt x="1307" y="63" on="0"/>
        <pt x="1315" y="64" on="1"/>
        <pt x="1390" y="69" on="0"/>
        <pt x="1611" y="101" on="1"/>
        <pt x="1670" y="109" on="0"/>
        <pt x="1828" y="171" on="1"/>
        <pt x="2027" y="251" on="0"/>
        <pt x="2027" y="308" on="1"/>
        <pt x="2027" y="319" on="0"/>
        <pt x="1925" y="482" on="0"/>
        <pt x="1925" y="492" on="1"/>
        <pt x="1925" y="508" on="0"/>
        <pt x="1947" y="556" on="1"/>
        <pt x="1972" y="610" on="0"/>
        <pt x="1991" y="610" on="1"/>
        <pt x="2037" y="610" on="0"/>
        <pt x="2115" y="464" on="1"/>
        <pt x="2119" y="455" on="0"/>
      </contour>
    </TTGlyph>
    <TTGlyph name="irghizufinal" xMin="142" yMin="226" xMax="842" yMax="1588">
      <contour>
        <pt x="142" y="226" on="1"/>
        <pt x="142" y="1588" on="1"/>
        <pt x="842" y="1588" on="1"/>
        <pt x="842" y="226" on="1"/>
      </contour>
      <contour>
        <pt x="284" y="368" on="1"/>
        <pt x="700" y="368" on="1"/>
        <pt x="700" y="1447" on="1"/>
        <pt x="284" y="1447" on="1"/>
      </contour>
    </TTGlyph>
    <TTGlyph name="jehfinalarabic" xMin="142" yMin="226" xMax="842" yMax="1588">
      <contour>
        <pt x="142" y="226" on="1"/>
        <pt x="142" y="1588" on="1"/>
        <pt x="842" y="1588" on="1"/>
        <pt x="842" y="226" on="1"/>
      </contour>
      <contour>
        <pt x="284" y="368" on="1"/>
        <pt x="700" y="368" on="1"/>
        <pt x="700" y="1447" on="1"/>
        <pt x="284" y="1447" on="1"/>
      </contour>
    </TTGlyph>
    <TTGlyph name="kafringfinal" xMin="142" yMin="226" xMax="842" yMax="1588">
      <contour>
        <pt x="142" y="226" on="1"/>
        <pt x="142" y="1588" on="1"/>
        <pt x="842" y="1588" on="1"/>
        <pt x="842" y="226" on="1"/>
      </contour>
      <contour>
        <pt x="284" y="368" on="1"/>
        <pt x="700" y="368" on="1"/>
        <pt x="700" y="1447" on="1"/>
        <pt x="284" y="1447" on="1"/>
      </contour>
    </TTGlyph>
    <TTGlyph name="kafringinitial" xMin="142" yMin="226" xMax="842" yMax="1588">
      <contour>
        <pt x="142" y="226" on="1"/>
        <pt x="142" y="1588" on="1"/>
        <pt x="842" y="1588" on="1"/>
        <pt x="842" y="226" on="1"/>
      </contour>
      <contour>
        <pt x="284" y="368" on="1"/>
        <pt x="700" y="368" on="1"/>
        <pt x="700" y="1447" on="1"/>
        <pt x="284" y="1447" on="1"/>
      </contour>
    </TTGlyph>
    <TTGlyph name="kafringmedial" xMin="142" yMin="226" xMax="842" yMax="1588">
      <contour>
        <pt x="142" y="226" on="1"/>
        <pt x="142" y="1588" on="1"/>
        <pt x="842" y="1588" on="1"/>
        <pt x="842" y="226" on="1"/>
      </contour>
      <contour>
        <pt x="284" y="368" on="1"/>
        <pt x="700" y="368" on="1"/>
        <pt x="700" y="1447" on="1"/>
        <pt x="284" y="1447" on="1"/>
      </contour>
    </TTGlyph>
    <TTGlyph name="kashidaautoarabic" xMin="142" yMin="226" xMax="842" yMax="1588">
      <contour>
        <pt x="142" y="226" on="1"/>
        <pt x="142" y="1588" on="1"/>
        <pt x="842" y="1588" on="1"/>
        <pt x="842" y="226" on="1"/>
      </contour>
      <contour>
        <pt x="284" y="368" on="1"/>
        <pt x="700" y="368" on="1"/>
        <pt x="700" y="1447" on="1"/>
        <pt x="284" y="1447" on="1"/>
      </contour>
    </TTGlyph>
    <TTGlyph name="kashidaautonosidebearingarabic" xMin="142" yMin="226" xMax="842" yMax="1588">
      <contour>
        <pt x="142" y="226" on="1"/>
        <pt x="142" y="1588" on="1"/>
        <pt x="842" y="1588" on="1"/>
        <pt x="842" y="226" on="1"/>
      </contour>
      <contour>
        <pt x="284" y="368" on="1"/>
        <pt x="700" y="368" on="1"/>
        <pt x="700" y="1447" on="1"/>
        <pt x="284" y="1447" on="1"/>
      </contour>
    </TTGlyph>
    <TTGlyph name="kehehfinalarabic" xMin="142" yMin="226" xMax="842" yMax="1588">
      <contour>
        <pt x="142" y="226" on="1"/>
        <pt x="142" y="1588" on="1"/>
        <pt x="842" y="1588" on="1"/>
        <pt x="842" y="226" on="1"/>
      </contour>
      <contour>
        <pt x="284" y="368" on="1"/>
        <pt x="700" y="368" on="1"/>
        <pt x="700" y="1447" on="1"/>
        <pt x="284" y="1447" on="1"/>
      </contour>
    </TTGlyph>
    <TTGlyph name="kehehinitialarabic" xMin="142" yMin="226" xMax="842" yMax="1588">
      <contour>
        <pt x="142" y="226" on="1"/>
        <pt x="142" y="1588" on="1"/>
        <pt x="842" y="1588" on="1"/>
        <pt x="842" y="226" on="1"/>
      </contour>
      <contour>
        <pt x="284" y="368" on="1"/>
        <pt x="700" y="368" on="1"/>
        <pt x="700" y="1447" on="1"/>
        <pt x="284" y="1447" on="1"/>
      </contour>
    </TTGlyph>
    <TTGlyph name="kehehmedialarabic" xMin="142" yMin="226" xMax="842" yMax="1588">
      <contour>
        <pt x="142" y="226" on="1"/>
        <pt x="142" y="1588" on="1"/>
        <pt x="842" y="1588" on="1"/>
        <pt x="842" y="226" on="1"/>
      </contour>
      <contour>
        <pt x="284" y="368" on="1"/>
        <pt x="700" y="368" on="1"/>
        <pt x="700" y="1447" on="1"/>
        <pt x="284" y="1447" on="1"/>
      </contour>
    </TTGlyph>
    <TTGlyph name="kirghizyifinal" xMin="142" yMin="226" xMax="842" yMax="1588">
      <contour>
        <pt x="142" y="226" on="1"/>
        <pt x="142" y="1588" on="1"/>
        <pt x="842" y="1588" on="1"/>
        <pt x="842" y="226" on="1"/>
      </contour>
      <contour>
        <pt x="284" y="368" on="1"/>
        <pt x="700" y="368" on="1"/>
        <pt x="700" y="1447" on="1"/>
        <pt x="284" y="1447" on="1"/>
      </contour>
    </TTGlyph>
    <TTGlyph name="lammeemjeeminitialarabic" xMin="142" yMin="226" xMax="842" yMax="1588">
      <contour>
        <pt x="142" y="226" on="1"/>
        <pt x="142" y="1588" on="1"/>
        <pt x="842" y="1588" on="1"/>
        <pt x="842" y="226" on="1"/>
      </contour>
      <contour>
        <pt x="284" y="368" on="1"/>
        <pt x="700" y="368" on="1"/>
        <pt x="700" y="1447" on="1"/>
        <pt x="284" y="1447" on="1"/>
      </contour>
    </TTGlyph>
    <TTGlyph name="lammeemkhahinitialarabic" xMin="142" yMin="226" xMax="842" yMax="1588">
      <contour>
        <pt x="142" y="226" on="1"/>
        <pt x="142" y="1588" on="1"/>
        <pt x="842" y="1588" on="1"/>
        <pt x="842" y="226" on="1"/>
      </contour>
      <contour>
        <pt x="284" y="368" on="1"/>
        <pt x="700" y="368" on="1"/>
        <pt x="700" y="1447" on="1"/>
        <pt x="284" y="1447" on="1"/>
      </contour>
    </TTGlyph>
    <TTGlyph name="lamthreedotsabovefinal" xMin="142" yMin="226" xMax="842" yMax="1588">
      <contour>
        <pt x="142" y="226" on="1"/>
        <pt x="142" y="1588" on="1"/>
        <pt x="842" y="1588" on="1"/>
        <pt x="842" y="226" on="1"/>
      </contour>
      <contour>
        <pt x="284" y="368" on="1"/>
        <pt x="700" y="368" on="1"/>
        <pt x="700" y="1447" on="1"/>
        <pt x="284" y="1447" on="1"/>
      </contour>
    </TTGlyph>
    <TTGlyph name="lamthreedotsaboveinitial" xMin="142" yMin="226" xMax="842" yMax="1588">
      <contour>
        <pt x="142" y="226" on="1"/>
        <pt x="142" y="1588" on="1"/>
        <pt x="842" y="1588" on="1"/>
        <pt x="842" y="226" on="1"/>
      </contour>
      <contour>
        <pt x="284" y="368" on="1"/>
        <pt x="700" y="368" on="1"/>
        <pt x="700" y="1447" on="1"/>
        <pt x="284" y="1447" on="1"/>
      </contour>
    </TTGlyph>
    <TTGlyph name="lamthreedotsabovemedial" xMin="142" yMin="226" xMax="842" yMax="1588">
      <contour>
        <pt x="142" y="226" on="1"/>
        <pt x="142" y="1588" on="1"/>
        <pt x="842" y="1588" on="1"/>
        <pt x="842" y="226" on="1"/>
      </contour>
      <contour>
        <pt x="284" y="368" on="1"/>
        <pt x="700" y="368" on="1"/>
        <pt x="700" y="1447" on="1"/>
        <pt x="284" y="1447" on="1"/>
      </contour>
    </TTGlyph>
    <TTGlyph name="less" xMin="142" yMin="226" xMax="842" yMax="1588">
      <contour>
        <pt x="142" y="226" on="1"/>
        <pt x="142" y="1588" on="1"/>
        <pt x="842" y="1588" on="1"/>
        <pt x="842" y="226" on="1"/>
      </contour>
      <contour>
        <pt x="284" y="368" on="1"/>
        <pt x="700" y="368" on="1"/>
        <pt x="700" y="1447" on="1"/>
        <pt x="284" y="1447" on="1"/>
      </contour>
    </TTGlyph>
    <TTGlyph name="meemmeemisolatedarabic" xMin="142" yMin="226" xMax="842" yMax="1588">
      <contour>
        <pt x="142" y="226" on="1"/>
        <pt x="142" y="1588" on="1"/>
        <pt x="842" y="1588" on="1"/>
        <pt x="842" y="226" on="1"/>
      </contour>
      <contour>
        <pt x="284" y="368" on="1"/>
        <pt x="700" y="368" on="1"/>
        <pt x="700" y="1447" on="1"/>
        <pt x="284" y="1447" on="1"/>
      </contour>
    </TTGlyph>
    <TTGlyph name="multiply" xMin="142" yMin="226" xMax="842" yMax="1588">
      <contour>
        <pt x="142" y="226" on="1"/>
        <pt x="142" y="1588" on="1"/>
        <pt x="842" y="1588" on="1"/>
        <pt x="842" y="226" on="1"/>
      </contour>
      <contour>
        <pt x="284" y="368" on="1"/>
        <pt x="700" y="368" on="1"/>
        <pt x="700" y="1447" on="1"/>
        <pt x="284" y="1447" on="1"/>
      </contour>
    </TTGlyph>
    <TTGlyph name="noonghunnafinalarabic" xMin="142" yMin="226" xMax="842" yMax="1588">
      <contour>
        <pt x="142" y="226" on="1"/>
        <pt x="142" y="1588" on="1"/>
        <pt x="842" y="1588" on="1"/>
        <pt x="842" y="226" on="1"/>
      </contour>
      <contour>
        <pt x="284" y="368" on="1"/>
        <pt x="700" y="368" on="1"/>
        <pt x="700" y="1447" on="1"/>
        <pt x="284" y="1447" on="1"/>
      </contour>
    </TTGlyph>
    <TTGlyph name="noonjeemisolatedarabic" xMin="142" yMin="226" xMax="842" yMax="1588">
      <contour>
        <pt x="142" y="226" on="1"/>
        <pt x="142" y="1588" on="1"/>
        <pt x="842" y="1588" on="1"/>
        <pt x="842" y="226" on="1"/>
      </contour>
      <contour>
        <pt x="284" y="368" on="1"/>
        <pt x="700" y="368" on="1"/>
        <pt x="700" y="1447" on="1"/>
        <pt x="284" y="1447" on="1"/>
      </contour>
    </TTGlyph>
    <TTGlyph name="noonmeemisolatedarabic" xMin="142" yMin="226" xMax="842" yMax="1588">
      <contour>
        <pt x="142" y="226" on="1"/>
        <pt x="142" y="1588" on="1"/>
        <pt x="842" y="1588" on="1"/>
        <pt x="842" y="226" on="1"/>
      </contour>
      <contour>
        <pt x="284" y="368" on="1"/>
        <pt x="700" y="368" on="1"/>
        <pt x="700" y="1447" on="1"/>
        <pt x="284" y="1447" on="1"/>
      </contour>
    </TTGlyph>
    <TTGlyph name="noonringfinal" xMin="142" yMin="226" xMax="842" yMax="1588">
      <contour>
        <pt x="142" y="226" on="1"/>
        <pt x="142" y="1588" on="1"/>
        <pt x="842" y="1588" on="1"/>
        <pt x="842" y="226" on="1"/>
      </contour>
      <contour>
        <pt x="284" y="368" on="1"/>
        <pt x="700" y="368" on="1"/>
        <pt x="700" y="1447" on="1"/>
        <pt x="284" y="1447" on="1"/>
      </contour>
    </TTGlyph>
    <TTGlyph name="noonringinitial" xMin="142" yMin="226" xMax="842" yMax="1588">
      <contour>
        <pt x="142" y="226" on="1"/>
        <pt x="142" y="1588" on="1"/>
        <pt x="842" y="1588" on="1"/>
        <pt x="842" y="226" on="1"/>
      </contour>
      <contour>
        <pt x="284" y="368" on="1"/>
        <pt x="700" y="368" on="1"/>
        <pt x="700" y="1447" on="1"/>
        <pt x="284" y="1447" on="1"/>
      </contour>
    </TTGlyph>
    <TTGlyph name="noonringmedial" xMin="142" yMin="226" xMax="842" yMax="1588">
      <contour>
        <pt x="142" y="226" on="1"/>
        <pt x="142" y="1588" on="1"/>
        <pt x="842" y="1588" on="1"/>
        <pt x="842" y="226" on="1"/>
      </contour>
      <contour>
        <pt x="284" y="368" on="1"/>
        <pt x="700" y="368" on="1"/>
        <pt x="700" y="1447" on="1"/>
        <pt x="284" y="1447" on="1"/>
      </contour>
    </TTGlyph>
    <TTGlyph name="numbersign" xMin="142" yMin="226" xMax="842" yMax="1588">
      <contour>
        <pt x="142" y="226" on="1"/>
        <pt x="142" y="1588" on="1"/>
        <pt x="842" y="1588" on="1"/>
        <pt x="842" y="226" on="1"/>
      </contour>
      <contour>
        <pt x="284" y="368" on="1"/>
        <pt x="700" y="368" on="1"/>
        <pt x="700" y="1447" on="1"/>
        <pt x="284" y="1447" on="1"/>
      </contour>
    </TTGlyph>
    <TTGlyph name="parenleft" xMin="142" yMin="226" xMax="842" yMax="1588">
      <contour>
        <pt x="142" y="226" on="1"/>
        <pt x="142" y="1588" on="1"/>
        <pt x="842" y="1588" on="1"/>
        <pt x="842" y="226" on="1"/>
      </contour>
      <contour>
        <pt x="284" y="368" on="1"/>
        <pt x="700" y="368" on="1"/>
        <pt x="700" y="1447" on="1"/>
        <pt x="284" y="1447" on="1"/>
      </contour>
    </TTGlyph>
    <TTGlyph name="parenright" xMin="142" yMin="226" xMax="842" yMax="1588">
      <contour>
        <pt x="142" y="226" on="1"/>
        <pt x="142" y="1588" on="1"/>
        <pt x="842" y="1588" on="1"/>
        <pt x="842" y="226" on="1"/>
      </contour>
      <contour>
        <pt x="284" y="368" on="1"/>
        <pt x="700" y="368" on="1"/>
        <pt x="700" y="1447" on="1"/>
        <pt x="284" y="1447" on="1"/>
      </contour>
    </TTGlyph>
    <TTGlyph name="pashtoefinal" xMin="142" yMin="226" xMax="842" yMax="1588">
      <contour>
        <pt x="142" y="226" on="1"/>
        <pt x="142" y="1588" on="1"/>
        <pt x="842" y="1588" on="1"/>
        <pt x="842" y="226" on="1"/>
      </contour>
      <contour>
        <pt x="284" y="368" on="1"/>
        <pt x="700" y="368" on="1"/>
        <pt x="700" y="1447" on="1"/>
        <pt x="284" y="1447" on="1"/>
      </contour>
    </TTGlyph>
    <TTGlyph name="pashtoeinitial" xMin="142" yMin="226" xMax="842" yMax="1588">
      <contour>
        <pt x="142" y="226" on="1"/>
        <pt x="142" y="1588" on="1"/>
        <pt x="842" y="1588" on="1"/>
        <pt x="842" y="226" on="1"/>
      </contour>
      <contour>
        <pt x="284" y="368" on="1"/>
        <pt x="700" y="368" on="1"/>
        <pt x="700" y="1447" on="1"/>
        <pt x="284" y="1447" on="1"/>
      </contour>
    </TTGlyph>
    <TTGlyph name="pashtoemedial" xMin="142" yMin="226" xMax="842" yMax="1588">
      <contour>
        <pt x="142" y="226" on="1"/>
        <pt x="142" y="1588" on="1"/>
        <pt x="842" y="1588" on="1"/>
        <pt x="842" y="226" on="1"/>
      </contour>
      <contour>
        <pt x="284" y="368" on="1"/>
        <pt x="700" y="368" on="1"/>
        <pt x="700" y="1447" on="1"/>
        <pt x="284" y="1447" on="1"/>
      </contour>
    </TTGlyph>
    <TTGlyph name="pehfinalarabic" xMin="142" yMin="226" xMax="842" yMax="1588">
      <contour>
        <pt x="142" y="226" on="1"/>
        <pt x="142" y="1588" on="1"/>
        <pt x="842" y="1588" on="1"/>
        <pt x="842" y="226" on="1"/>
      </contour>
      <contour>
        <pt x="284" y="368" on="1"/>
        <pt x="700" y="368" on="1"/>
        <pt x="700" y="1447" on="1"/>
        <pt x="284" y="1447" on="1"/>
      </contour>
    </TTGlyph>
    <TTGlyph name="pehinitialarabic" xMin="142" yMin="226" xMax="842" yMax="1588">
      <contour>
        <pt x="142" y="226" on="1"/>
        <pt x="142" y="1588" on="1"/>
        <pt x="842" y="1588" on="1"/>
        <pt x="842" y="226" on="1"/>
      </contour>
      <contour>
        <pt x="284" y="368" on="1"/>
        <pt x="700" y="368" on="1"/>
        <pt x="700" y="1447" on="1"/>
        <pt x="284" y="1447" on="1"/>
      </contour>
    </TTGlyph>
    <TTGlyph name="pehmedialarabic" xMin="142" yMin="226" xMax="842" yMax="1588">
      <contour>
        <pt x="142" y="226" on="1"/>
        <pt x="142" y="1588" on="1"/>
        <pt x="842" y="1588" on="1"/>
        <pt x="842" y="226" on="1"/>
      </contour>
      <contour>
        <pt x="284" y="368" on="1"/>
        <pt x="700" y="368" on="1"/>
        <pt x="700" y="1447" on="1"/>
        <pt x="284" y="1447" on="1"/>
      </contour>
    </TTGlyph>
    <TTGlyph name="percent" xMin="142" yMin="226" xMax="842" yMax="1588">
      <contour>
        <pt x="142" y="226" on="1"/>
        <pt x="142" y="1588" on="1"/>
        <pt x="842" y="1588" on="1"/>
        <pt x="842" y="226" on="1"/>
      </contour>
      <contour>
        <pt x="284" y="368" on="1"/>
        <pt x="700" y="368" on="1"/>
        <pt x="700" y="1447" on="1"/>
        <pt x="284" y="1447" on="1"/>
      </contour>
    </TTGlyph>
    <TTGlyph name="period" xMin="142" yMin="226" xMax="842" yMax="1588">
      <contour>
        <pt x="142" y="226" on="1"/>
        <pt x="142" y="1588" on="1"/>
        <pt x="842" y="1588" on="1"/>
        <pt x="842" y="226" on="1"/>
      </contour>
      <contour>
        <pt x="284" y="368" on="1"/>
        <pt x="700" y="368" on="1"/>
        <pt x="700" y="1447" on="1"/>
        <pt x="284" y="1447" on="1"/>
      </contour>
    </TTGlyph>
    <TTGlyph name="plus" xMin="142" yMin="226" xMax="842" yMax="1588">
      <contour>
        <pt x="142" y="226" on="1"/>
        <pt x="142" y="1588" on="1"/>
        <pt x="842" y="1588" on="1"/>
        <pt x="842" y="226" on="1"/>
      </contour>
      <contour>
        <pt x="284" y="368" on="1"/>
        <pt x="700" y="368" on="1"/>
        <pt x="700" y="1447" on="1"/>
        <pt x="284" y="1447" on="1"/>
      </contour>
    </TTGlyph>
    <TTGlyph name="quotedbl" xMin="142" yMin="226" xMax="842" yMax="1588">
      <contour>
        <pt x="142" y="226" on="1"/>
        <pt x="142" y="1588" on="1"/>
        <pt x="842" y="1588" on="1"/>
        <pt x="842" y="226" on="1"/>
      </contour>
      <contour>
        <pt x="284" y="368" on="1"/>
        <pt x="700" y="368" on="1"/>
        <pt x="700" y="1447" on="1"/>
        <pt x="284" y="1447" on="1"/>
      </contour>
    </TTGlyph>
    <TTGlyph name="quotesingle" xMin="142" yMin="226" xMax="842" yMax="1588">
      <contour>
        <pt x="142" y="226" on="1"/>
        <pt x="142" y="1588" on="1"/>
        <pt x="842" y="1588" on="1"/>
        <pt x="842" y="226" on="1"/>
      </contour>
      <contour>
        <pt x="284" y="368" on="1"/>
        <pt x="700" y="368" on="1"/>
        <pt x="700" y="1447" on="1"/>
        <pt x="284" y="1447" on="1"/>
      </contour>
    </TTGlyph>
    <TTGlyph name="rehdotbelowdotabovefinal" xMin="142" yMin="226" xMax="842" yMax="1588">
      <contour>
        <pt x="142" y="226" on="1"/>
        <pt x="142" y="1588" on="1"/>
        <pt x="842" y="1588" on="1"/>
        <pt x="842" y="226" on="1"/>
      </contour>
      <contour>
        <pt x="284" y="368" on="1"/>
        <pt x="700" y="368" on="1"/>
        <pt x="700" y="1447" on="1"/>
        <pt x="284" y="1447" on="1"/>
      </contour>
    </TTGlyph>
    <TTGlyph name="rehringfinal" xMin="142" yMin="226" xMax="842" yMax="1588">
      <contour>
        <pt x="142" y="226" on="1"/>
        <pt x="142" y="1588" on="1"/>
        <pt x="842" y="1588" on="1"/>
        <pt x="842" y="226" on="1"/>
      </contour>
      <contour>
        <pt x="284" y="368" on="1"/>
        <pt x="700" y="368" on="1"/>
        <pt x="700" y="1447" on="1"/>
        <pt x="284" y="1447" on="1"/>
      </contour>
    </TTGlyph>
    <TTGlyph name="rrehfinalarabic" xMin="142" yMin="226" xMax="842" yMax="1588">
      <contour>
        <pt x="142" y="226" on="1"/>
        <pt x="142" y="1588" on="1"/>
        <pt x="842" y="1588" on="1"/>
        <pt x="842" y="226" on="1"/>
      </contour>
      <contour>
        <pt x="284" y="368" on="1"/>
        <pt x="700" y="368" on="1"/>
        <pt x="700" y="1447" on="1"/>
        <pt x="284" y="1447" on="1"/>
      </contour>
    </TTGlyph>
    <TTGlyph name="seendotbelowdotabovefinal" xMin="142" yMin="226" xMax="842" yMax="1588">
      <contour>
        <pt x="142" y="226" on="1"/>
        <pt x="142" y="1588" on="1"/>
        <pt x="842" y="1588" on="1"/>
        <pt x="842" y="226" on="1"/>
      </contour>
      <contour>
        <pt x="284" y="368" on="1"/>
        <pt x="700" y="368" on="1"/>
        <pt x="700" y="1447" on="1"/>
        <pt x="284" y="1447" on="1"/>
      </contour>
    </TTGlyph>
    <TTGlyph name="seendotbelowdotaboveinitial" xMin="142" yMin="226" xMax="842" yMax="1588">
      <contour>
        <pt x="142" y="226" on="1"/>
        <pt x="142" y="1588" on="1"/>
        <pt x="842" y="1588" on="1"/>
        <pt x="842" y="226" on="1"/>
      </contour>
      <contour>
        <pt x="284" y="368" on="1"/>
        <pt x="700" y="368" on="1"/>
        <pt x="700" y="1447" on="1"/>
        <pt x="284" y="1447" on="1"/>
      </contour>
    </TTGlyph>
    <TTGlyph name="seendotbelowdotabovemedial" xMin="142" yMin="226" xMax="842" yMax="1588">
      <contour>
        <pt x="142" y="226" on="1"/>
        <pt x="142" y="1588" on="1"/>
        <pt x="842" y="1588" on="1"/>
        <pt x="842" y="226" on="1"/>
      </contour>
      <contour>
        <pt x="284" y="368" on="1"/>
        <pt x="700" y="368" on="1"/>
        <pt x="700" y="1447" on="1"/>
        <pt x="284" y="1447" on="1"/>
      </contour>
    </TTGlyph>
    <TTGlyph name="shaddadammaarabic" xMin="142" yMin="226" xMax="842" yMax="1588">
      <contour>
        <pt x="142" y="226" on="1"/>
        <pt x="142" y="1588" on="1"/>
        <pt x="842" y="1588" on="1"/>
        <pt x="842" y="226" on="1"/>
      </contour>
      <contour>
        <pt x="284" y="368" on="1"/>
        <pt x="700" y="368" on="1"/>
        <pt x="700" y="1447" on="1"/>
        <pt x="284" y="1447" on="1"/>
      </contour>
    </TTGlyph>
    <TTGlyph name="shaddadammatanarabic" xMin="142" yMin="226" xMax="842" yMax="1588">
      <contour>
        <pt x="142" y="226" on="1"/>
        <pt x="142" y="1588" on="1"/>
        <pt x="842" y="1588" on="1"/>
        <pt x="842" y="226" on="1"/>
      </contour>
      <contour>
        <pt x="284" y="368" on="1"/>
        <pt x="700" y="368" on="1"/>
        <pt x="700" y="1447" on="1"/>
        <pt x="284" y="1447" on="1"/>
      </contour>
    </TTGlyph>
    <TTGlyph name="shaddafathaarabic" xMin="142" yMin="226" xMax="842" yMax="1588">
      <contour>
        <pt x="142" y="226" on="1"/>
        <pt x="142" y="1588" on="1"/>
        <pt x="842" y="1588" on="1"/>
        <pt x="842" y="226" on="1"/>
      </contour>
      <contour>
        <pt x="284" y="368" on="1"/>
        <pt x="700" y="368" on="1"/>
        <pt x="700" y="1447" on="1"/>
        <pt x="284" y="1447" on="1"/>
      </contour>
    </TTGlyph>
    <TTGlyph name="shaddakasraarabic" xMin="142" yMin="226" xMax="842" yMax="1588">
      <contour>
        <pt x="142" y="226" on="1"/>
        <pt x="142" y="1588" on="1"/>
        <pt x="842" y="1588" on="1"/>
        <pt x="842" y="226" on="1"/>
      </contour>
      <contour>
        <pt x="284" y="368" on="1"/>
        <pt x="700" y="368" on="1"/>
        <pt x="700" y="1447" on="1"/>
        <pt x="284" y="1447" on="1"/>
      </contour>
    </TTGlyph>
    <TTGlyph name="shaddakasratanarabic" xMin="142" yMin="226" xMax="842" yMax="1588">
      <contour>
        <pt x="142" y="226" on="1"/>
        <pt x="142" y="1588" on="1"/>
        <pt x="842" y="1588" on="1"/>
        <pt x="842" y="226" on="1"/>
      </contour>
      <contour>
        <pt x="284" y="368" on="1"/>
        <pt x="700" y="368" on="1"/>
        <pt x="700" y="1447" on="1"/>
        <pt x="284" y="1447" on="1"/>
      </contour>
    </TTGlyph>
    <TTGlyph name="slash" xMin="142" yMin="226" xMax="842" yMax="1588">
      <contour>
        <pt x="142" y="226" on="1"/>
        <pt x="142" y="1588" on="1"/>
        <pt x="842" y="1588" on="1"/>
        <pt x="842" y="226" on="1"/>
      </contour>
      <contour>
        <pt x="284" y="368" on="1"/>
        <pt x="700" y="368" on="1"/>
        <pt x="700" y="1447" on="1"/>
        <pt x="284" y="1447" on="1"/>
      </contour>
    </TTGlyph>
    <TTGlyph name="space" xMin="142" yMin="226" xMax="842" yMax="1588">
      <contour>
        <pt x="142" y="226" on="1"/>
        <pt x="142" y="1588" on="1"/>
        <pt x="842" y="1588" on="1"/>
        <pt x="842" y="226" on="1"/>
      </contour>
      <contour>
        <pt x="284" y="368" on="1"/>
        <pt x="700" y="368" on="1"/>
        <pt x="700" y="1447" on="1"/>
        <pt x="284" y="1447" on="1"/>
      </contour>
    </TTGlyph>
    <TTGlyph name="tchehfinalarabic" xMin="142" yMin="226" xMax="842" yMax="1588">
      <contour>
        <pt x="142" y="226" on="1"/>
        <pt x="142" y="1588" on="1"/>
        <pt x="842" y="1588" on="1"/>
        <pt x="842" y="226" on="1"/>
      </contour>
      <contour>
        <pt x="284" y="368" on="1"/>
        <pt x="700" y="368" on="1"/>
        <pt x="700" y="1447" on="1"/>
        <pt x="284" y="1447" on="1"/>
      </contour>
    </TTGlyph>
    <TTGlyph name="tchehinitialarabic" xMin="142" yMin="226" xMax="842" yMax="1588">
      <contour>
        <pt x="142" y="226" on="1"/>
        <pt x="142" y="1588" on="1"/>
        <pt x="842" y="1588" on="1"/>
        <pt x="842" y="226" on="1"/>
      </contour>
      <contour>
        <pt x="284" y="368" on="1"/>
        <pt x="700" y="368" on="1"/>
        <pt x="700" y="1447" on="1"/>
        <pt x="284" y="1447" on="1"/>
      </contour>
    </TTGlyph>
    <TTGlyph name="tchehmedialarabic" xMin="142" yMin="226" xMax="842" yMax="1588">
      <contour>
        <pt x="142" y="226" on="1"/>
        <pt x="142" y="1588" on="1"/>
        <pt x="842" y="1588" on="1"/>
        <pt x="842" y="226" on="1"/>
      </contour>
      <contour>
        <pt x="284" y="368" on="1"/>
        <pt x="700" y="368" on="1"/>
        <pt x="700" y="1447" on="1"/>
        <pt x="284" y="1447" on="1"/>
      </contour>
    </TTGlyph>
    <TTGlyph name="tehhahisolatedarabic" xMin="142" yMin="226" xMax="842" yMax="1588">
      <contour>
        <pt x="142" y="226" on="1"/>
        <pt x="142" y="1588" on="1"/>
        <pt x="842" y="1588" on="1"/>
        <pt x="842" y="226" on="1"/>
      </contour>
      <contour>
        <pt x="284" y="368" on="1"/>
        <pt x="700" y="368" on="1"/>
        <pt x="700" y="1447" on="1"/>
        <pt x="284" y="1447" on="1"/>
      </contour>
    </TTGlyph>
    <TTGlyph name="tehjeemisolatedarabic" xMin="142" yMin="226" xMax="842" yMax="1588">
      <contour>
        <pt x="142" y="226" on="1"/>
        <pt x="142" y="1588" on="1"/>
        <pt x="842" y="1588" on="1"/>
        <pt x="842" y="226" on="1"/>
      </contour>
      <contour>
        <pt x="284" y="368" on="1"/>
        <pt x="700" y="368" on="1"/>
        <pt x="700" y="1447" on="1"/>
        <pt x="284" y="1447" on="1"/>
      </contour>
    </TTGlyph>
    <TTGlyph name="tehmeemisolatedarabic" xMin="142" yMin="226" xMax="842" yMax="1588">
      <contour>
        <pt x="142" y="226" on="1"/>
        <pt x="142" y="1588" on="1"/>
        <pt x="842" y="1588" on="1"/>
        <pt x="842" y="226" on="1"/>
      </contour>
      <contour>
        <pt x="284" y="368" on="1"/>
        <pt x="700" y="368" on="1"/>
        <pt x="700" y="1447" on="1"/>
        <pt x="284" y="1447" on="1"/>
      </contour>
    </TTGlyph>
    <TTGlyph name="tehnoonfinalarabic" xMin="142" yMin="226" xMax="842" yMax="1588">
      <contour>
        <pt x="142" y="226" on="1"/>
        <pt x="142" y="1588" on="1"/>
        <pt x="842" y="1588" on="1"/>
        <pt x="842" y="226" on="1"/>
      </contour>
      <contour>
        <pt x="284" y="368" on="1"/>
        <pt x="700" y="368" on="1"/>
        <pt x="700" y="1447" on="1"/>
        <pt x="284" y="1447" on="1"/>
      </contour>
    </TTGlyph>
    <TTGlyph name="tehringfinal" xMin="142" yMin="226" xMax="842" yMax="1588">
      <contour>
        <pt x="142" y="226" on="1"/>
        <pt x="142" y="1588" on="1"/>
        <pt x="842" y="1588" on="1"/>
        <pt x="842" y="226" on="1"/>
      </contour>
      <contour>
        <pt x="284" y="368" on="1"/>
        <pt x="700" y="368" on="1"/>
        <pt x="700" y="1447" on="1"/>
        <pt x="284" y="1447" on="1"/>
      </contour>
    </TTGlyph>
    <TTGlyph name="tehringinitial" xMin="142" yMin="226" xMax="842" yMax="1588">
      <contour>
        <pt x="142" y="226" on="1"/>
        <pt x="142" y="1588" on="1"/>
        <pt x="842" y="1588" on="1"/>
        <pt x="842" y="226" on="1"/>
      </contour>
      <contour>
        <pt x="284" y="368" on="1"/>
        <pt x="700" y="368" on="1"/>
        <pt x="700" y="1447" on="1"/>
        <pt x="284" y="1447" on="1"/>
      </contour>
    </TTGlyph>
    <TTGlyph name="tehringmedial" xMin="142" yMin="226" xMax="842" yMax="1588">
      <contour>
        <pt x="142" y="226" on="1"/>
        <pt x="142" y="1588" on="1"/>
        <pt x="842" y="1588" on="1"/>
        <pt x="842" y="226" on="1"/>
      </contour>
      <contour>
        <pt x="284" y="368" on="1"/>
        <pt x="700" y="368" on="1"/>
        <pt x="700" y="1447" on="1"/>
        <pt x="284" y="1447" on="1"/>
      </contour>
    </TTGlyph>
    <TTGlyph name="ttehfinalarabic" xMin="142" yMin="226" xMax="842" yMax="1588">
      <contour>
        <pt x="142" y="226" on="1"/>
        <pt x="142" y="1588" on="1"/>
        <pt x="842" y="1588" on="1"/>
        <pt x="842" y="226" on="1"/>
      </contour>
      <contour>
        <pt x="284" y="368" on="1"/>
        <pt x="700" y="368" on="1"/>
        <pt x="700" y="1447" on="1"/>
        <pt x="284" y="1447" on="1"/>
      </contour>
    </TTGlyph>
    <TTGlyph name="ttehinitialarabic" xMin="142" yMin="226" xMax="842" yMax="1588">
      <contour>
        <pt x="142" y="226" on="1"/>
        <pt x="142" y="1588" on="1"/>
        <pt x="842" y="1588" on="1"/>
        <pt x="842" y="226" on="1"/>
      </contour>
      <contour>
        <pt x="284" y="368" on="1"/>
        <pt x="700" y="368" on="1"/>
        <pt x="700" y="1447" on="1"/>
        <pt x="284" y="1447" on="1"/>
      </contour>
    </TTGlyph>
    <TTGlyph name="ttehmedialarabic" xMin="142" yMin="226" xMax="842" yMax="1588">
      <contour>
        <pt x="142" y="226" on="1"/>
        <pt x="142" y="1588" on="1"/>
        <pt x="842" y="1588" on="1"/>
        <pt x="842" y="226" on="1"/>
      </contour>
      <contour>
        <pt x="284" y="368" on="1"/>
        <pt x="700" y="368" on="1"/>
        <pt x="700" y="1447" on="1"/>
        <pt x="284" y="1447" on="1"/>
      </contour>
    </TTGlyph>
    <TTGlyph name="uni000D" xMin="142" yMin="226" xMax="842" yMax="1588">
      <contour>
        <pt x="142" y="226" on="1"/>
        <pt x="142" y="1588" on="1"/>
        <pt x="842" y="1588" on="1"/>
        <pt x="842" y="226" on="1"/>
      </contour>
      <contour>
        <pt x="284" y="368" on="1"/>
        <pt x="700" y="368" on="1"/>
        <pt x="700" y="1447" on="1"/>
        <pt x="284" y="1447" on="1"/>
      </contour>
    </TTGlyph>
    <TTGlyph name="uni00A0" xMin="142" yMin="226" xMax="842" yMax="1588">
      <contour>
        <pt x="142" y="226" on="1"/>
        <pt x="142" y="1588" on="1"/>
        <pt x="842" y="1588" on="1"/>
        <pt x="842" y="226" on="1"/>
      </contour>
      <contour>
        <pt x="284" y="368" on="1"/>
        <pt x="700" y="368" on="1"/>
        <pt x="700" y="1447" on="1"/>
        <pt x="284" y="1447" on="1"/>
      </contour>
    </TTGlyph>
    <TTGlyph name="uni00AD" xMin="142" yMin="226" xMax="842" yMax="1588">
      <contour>
        <pt x="142" y="226" on="1"/>
        <pt x="142" y="1588" on="1"/>
        <pt x="842" y="1588" on="1"/>
        <pt x="842" y="226" on="1"/>
      </contour>
      <contour>
        <pt x="284" y="368" on="1"/>
        <pt x="700" y="368" on="1"/>
        <pt x="700" y="1447" on="1"/>
        <pt x="284" y="1447" on="1"/>
      </contour>
    </TTGlyph>
    <TTGlyph name="uni0653" xMin="142" yMin="226" xMax="842" yMax="1588">
      <contour>
        <pt x="142" y="226" on="1"/>
        <pt x="142" y="1588" on="1"/>
        <pt x="842" y="1588" on="1"/>
        <pt x="842" y="226" on="1"/>
      </contour>
      <contour>
        <pt x="284" y="368" on="1"/>
        <pt x="700" y="368" on="1"/>
        <pt x="700" y="1447" on="1"/>
        <pt x="284" y="1447" on="1"/>
      </contour>
    </TTGlyph>
    <TTGlyph name="uni0654" xMin="142" yMin="226" xMax="842" yMax="1588">
      <contour>
        <pt x="142" y="226" on="1"/>
        <pt x="142" y="1588" on="1"/>
        <pt x="842" y="1588" on="1"/>
        <pt x="842" y="226" on="1"/>
      </contour>
      <contour>
        <pt x="284" y="368" on="1"/>
        <pt x="700" y="368" on="1"/>
        <pt x="700" y="1447" on="1"/>
        <pt x="284" y="1447" on="1"/>
      </contour>
    </TTGlyph>
    <TTGlyph name="uni0655" xMin="142" yMin="226" xMax="842" yMax="1588">
      <contour>
        <pt x="142" y="226" on="1"/>
        <pt x="142" y="1588" on="1"/>
        <pt x="842" y="1588" on="1"/>
        <pt x="842" y="226" on="1"/>
      </contour>
      <contour>
        <pt x="284" y="368" on="1"/>
        <pt x="700" y="368" on="1"/>
        <pt x="700" y="1447" on="1"/>
        <pt x="284" y="1447" on="1"/>
      </contour>
    </TTGlyph>
    <TTGlyph name="uni066B" xMin="142" yMin="226" xMax="842" yMax="1588">
      <contour>
        <pt x="142" y="226" on="1"/>
        <pt x="142" y="1588" on="1"/>
        <pt x="842" y="1588" on="1"/>
        <pt x="842" y="226" on="1"/>
      </contour>
      <contour>
        <pt x="284" y="368" on="1"/>
        <pt x="700" y="368" on="1"/>
        <pt x="700" y="1447" on="1"/>
        <pt x="284" y="1447" on="1"/>
      </contour>
    </TTGlyph>
    <TTGlyph name="uni066C" xMin="142" yMin="226" xMax="842" yMax="1588">
      <contour>
        <pt x="142" y="226" on="1"/>
        <pt x="142" y="1588" on="1"/>
        <pt x="842" y="1588" on="1"/>
        <pt x="842" y="226" on="1"/>
      </contour>
      <contour>
        <pt x="284" y="368" on="1"/>
        <pt x="700" y="368" on="1"/>
        <pt x="700" y="1447" on="1"/>
        <pt x="284" y="1447" on="1"/>
      </contour>
    </TTGlyph>
    <TTGlyph name="uni0671" xMin="142" yMin="226" xMax="842" yMax="1588">
      <contour>
        <pt x="142" y="226" on="1"/>
        <pt x="142" y="1588" on="1"/>
        <pt x="842" y="1588" on="1"/>
        <pt x="842" y="226" on="1"/>
      </contour>
      <contour>
        <pt x="284" y="368" on="1"/>
        <pt x="700" y="368" on="1"/>
        <pt x="700" y="1447" on="1"/>
        <pt x="284" y="1447" on="1"/>
      </contour>
    </TTGlyph>
    <TTGlyph name="uni067C" xMin="142" yMin="226" xMax="842" yMax="1588">
      <contour>
        <pt x="142" y="226" on="1"/>
        <pt x="142" y="1588" on="1"/>
        <pt x="842" y="1588" on="1"/>
        <pt x="842" y="226" on="1"/>
      </contour>
      <contour>
        <pt x="284" y="368" on="1"/>
        <pt x="700" y="368" on="1"/>
        <pt x="700" y="1447" on="1"/>
        <pt x="284" y="1447" on="1"/>
      </contour>
    </TTGlyph>
    <TTGlyph name="uni0681" xMin="142" yMin="226" xMax="842" yMax="1588">
      <contour>
        <pt x="142" y="226" on="1"/>
        <pt x="142" y="1588" on="1"/>
        <pt x="842" y="1588" on="1"/>
        <pt x="842" y="226" on="1"/>
      </contour>
      <contour>
        <pt x="284" y="368" on="1"/>
        <pt x="700" y="368" on="1"/>
        <pt x="700" y="1447" on="1"/>
        <pt x="284" y="1447" on="1"/>
      </contour>
    </TTGlyph>
    <TTGlyph name="uni0685" xMin="142" yMin="226" xMax="842" yMax="1588">
      <contour>
        <pt x="142" y="226" on="1"/>
        <pt x="142" y="1588" on="1"/>
        <pt x="842" y="1588" on="1"/>
        <pt x="842" y="226" on="1"/>
      </contour>
      <contour>
        <pt x="284" y="368" on="1"/>
        <pt x="700" y="368" on="1"/>
        <pt x="700" y="1447" on="1"/>
        <pt x="284" y="1447" on="1"/>
      </contour>
    </TTGlyph>
    <TTGlyph name="uni0689" xMin="142" yMin="226" xMax="842" yMax="1588">
      <contour>
        <pt x="142" y="226" on="1"/>
        <pt x="142" y="1588" on="1"/>
        <pt x="842" y="1588" on="1"/>
        <pt x="842" y="226" on="1"/>
      </contour>
      <contour>
        <pt x="284" y="368" on="1"/>
        <pt x="700" y="368" on="1"/>
        <pt x="700" y="1447" on="1"/>
        <pt x="284" y="1447" on="1"/>
      </contour>
    </TTGlyph>
    <TTGlyph name="uni0693" xMin="142" yMin="226" xMax="842" yMax="1588">
      <contour>
        <pt x="142" y="226" on="1"/>
        <pt x="142" y="1588" on="1"/>
        <pt x="842" y="1588" on="1"/>
        <pt x="842" y="226" on="1"/>
      </contour>
      <contour>
        <pt x="284" y="368" on="1"/>
        <pt x="700" y="368" on="1"/>
        <pt x="700" y="1447" on="1"/>
        <pt x="284" y="1447" on="1"/>
      </contour>
    </TTGlyph>
    <TTGlyph name="uni0696" xMin="142" yMin="226" xMax="842" yMax="1588">
      <contour>
        <pt x="142" y="226" on="1"/>
        <pt x="142" y="1588" on="1"/>
        <pt x="842" y="1588" on="1"/>
        <pt x="842" y="226" on="1"/>
      </contour>
      <contour>
        <pt x="284" y="368" on="1"/>
        <pt x="700" y="368" on="1"/>
        <pt x="700" y="1447" on="1"/>
        <pt x="284" y="1447" on="1"/>
      </contour>
    </TTGlyph>
    <TTGlyph name="uni069A" xMin="142" yMin="226" xMax="842" yMax="1588">
      <contour>
        <pt x="142" y="226" on="1"/>
        <pt x="142" y="1588" on="1"/>
        <pt x="842" y="1588" on="1"/>
        <pt x="842" y="226" on="1"/>
      </contour>
      <contour>
        <pt x="284" y="368" on="1"/>
        <pt x="700" y="368" on="1"/>
        <pt x="700" y="1447" on="1"/>
        <pt x="284" y="1447" on="1"/>
      </contour>
    </TTGlyph>
    <TTGlyph name="uni06A9" xMin="142" yMin="226" xMax="842" yMax="1588">
      <contour>
        <pt x="142" y="226" on="1"/>
        <pt x="142" y="1588" on="1"/>
        <pt x="842" y="1588" on="1"/>
        <pt x="842" y="226" on="1"/>
      </contour>
      <contour>
        <pt x="284" y="368" on="1"/>
        <pt x="700" y="368" on="1"/>
        <pt x="700" y="1447" on="1"/>
        <pt x="284" y="1447" on="1"/>
      </contour>
    </TTGlyph>
    <TTGlyph name="uni06AB" xMin="142" yMin="226" xMax="842" yMax="1588">
      <contour>
        <pt x="142" y="226" on="1"/>
        <pt x="142" y="1588" on="1"/>
        <pt x="842" y="1588" on="1"/>
        <pt x="842" y="226" on="1"/>
      </contour>
      <contour>
        <pt x="284" y="368" on="1"/>
        <pt x="700" y="368" on="1"/>
        <pt x="700" y="1447" on="1"/>
        <pt x="284" y="1447" on="1"/>
      </contour>
    </TTGlyph>
    <TTGlyph name="uni06B7" xMin="142" yMin="226" xMax="842" yMax="1588">
      <contour>
        <pt x="142" y="226" on="1"/>
        <pt x="142" y="1588" on="1"/>
        <pt x="842" y="1588" on="1"/>
        <pt x="842" y="226" on="1"/>
      </contour>
      <contour>
        <pt x="284" y="368" on="1"/>
        <pt x="700" y="368" on="1"/>
        <pt x="700" y="1447" on="1"/>
        <pt x="284" y="1447" on="1"/>
      </contour>
    </TTGlyph>
    <TTGlyph name="uni06BC" xMin="142" yMin="226" xMax="842" yMax="1588">
      <contour>
        <pt x="142" y="226" on="1"/>
        <pt x="142" y="1588" on="1"/>
        <pt x="842" y="1588" on="1"/>
        <pt x="842" y="226" on="1"/>
      </contour>
      <contour>
        <pt x="284" y="368" on="1"/>
        <pt x="700" y="368" on="1"/>
        <pt x="700" y="1447" on="1"/>
        <pt x="284" y="1447" on="1"/>
      </contour>
    </TTGlyph>
    <TTGlyph name="uni06BE" xMin="142" yMin="226" xMax="842" yMax="1588">
      <contour>
        <pt x="142" y="226" on="1"/>
        <pt x="142" y="1588" on="1"/>
        <pt x="842" y="1588" on="1"/>
        <pt x="842" y="226" on="1"/>
      </contour>
      <contour>
        <pt x="284" y="368" on="1"/>
        <pt x="700" y="368" on="1"/>
        <pt x="700" y="1447" on="1"/>
        <pt x="284" y="1447" on="1"/>
      </contour>
    </TTGlyph>
    <TTGlyph name="uni06C2" xMin="142" yMin="226" xMax="842" yMax="1588">
      <contour>
        <pt x="142" y="226" on="1"/>
        <pt x="142" y="1588" on="1"/>
        <pt x="842" y="1588" on="1"/>
        <pt x="842" y="226" on="1"/>
      </contour>
      <contour>
        <pt x="284" y="368" on="1"/>
        <pt x="700" y="368" on="1"/>
        <pt x="700" y="1447" on="1"/>
        <pt x="284" y="1447" on="1"/>
      </contour>
    </TTGlyph>
    <TTGlyph name="uni06C7" xMin="142" yMin="226" xMax="842" yMax="1588">
      <contour>
        <pt x="142" y="226" on="1"/>
        <pt x="142" y="1588" on="1"/>
        <pt x="842" y="1588" on="1"/>
        <pt x="842" y="226" on="1"/>
      </contour>
      <contour>
        <pt x="284" y="368" on="1"/>
        <pt x="700" y="368" on="1"/>
        <pt x="700" y="1447" on="1"/>
        <pt x="284" y="1447" on="1"/>
      </contour>
    </TTGlyph>
    <TTGlyph name="uni06C9" xMin="142" yMin="226" xMax="842" yMax="1588">
      <contour>
        <pt x="142" y="226" on="1"/>
        <pt x="142" y="1588" on="1"/>
        <pt x="842" y="1588" on="1"/>
        <pt x="842" y="226" on="1"/>
      </contour>
      <contour>
        <pt x="284" y="368" on="1"/>
        <pt x="700" y="368" on="1"/>
        <pt x="700" y="1447" on="1"/>
        <pt x="284" y="1447" on="1"/>
      </contour>
    </TTGlyph>
    <TTGlyph name="uni06CC" xMin="142" yMin="226" xMax="842" yMax="1588">
      <contour>
        <pt x="142" y="226" on="1"/>
        <pt x="142" y="1588" on="1"/>
        <pt x="842" y="1588" on="1"/>
        <pt x="842" y="226" on="1"/>
      </contour>
      <contour>
        <pt x="284" y="368" on="1"/>
        <pt x="700" y="368" on="1"/>
        <pt x="700" y="1447" on="1"/>
        <pt x="284" y="1447" on="1"/>
      </contour>
    </TTGlyph>
    <TTGlyph name="uni06CD" xMin="142" yMin="226" xMax="842" yMax="1588">
      <contour>
        <pt x="142" y="226" on="1"/>
        <pt x="142" y="1588" on="1"/>
        <pt x="842" y="1588" on="1"/>
        <pt x="842" y="226" on="1"/>
      </contour>
      <contour>
        <pt x="284" y="368" on="1"/>
        <pt x="700" y="368" on="1"/>
        <pt x="700" y="1447" on="1"/>
        <pt x="284" y="1447" on="1"/>
      </contour>
    </TTGlyph>
    <TTGlyph name="uni06D0" xMin="142" yMin="226" xMax="842" yMax="1588">
      <contour>
        <pt x="142" y="226" on="1"/>
        <pt x="142" y="1588" on="1"/>
        <pt x="842" y="1588" on="1"/>
        <pt x="842" y="226" on="1"/>
      </contour>
      <contour>
        <pt x="284" y="368" on="1"/>
        <pt x="700" y="368" on="1"/>
        <pt x="700" y="1447" on="1"/>
        <pt x="284" y="1447" on="1"/>
      </contour>
    </TTGlyph>
    <TTGlyph name="uni06D1" xMin="142" yMin="226" xMax="842" yMax="1588">
      <contour>
        <pt x="142" y="226" on="1"/>
        <pt x="142" y="1588" on="1"/>
        <pt x="842" y="1588" on="1"/>
        <pt x="842" y="226" on="1"/>
      </contour>
      <contour>
        <pt x="284" y="368" on="1"/>
        <pt x="700" y="368" on="1"/>
        <pt x="700" y="1447" on="1"/>
        <pt x="284" y="1447" on="1"/>
      </contour>
    </TTGlyph>
    <TTGlyph name="uni06D3" xMin="142" yMin="226" xMax="842" yMax="1588">
      <contour>
        <pt x="142" y="226" on="1"/>
        <pt x="142" y="1588" on="1"/>
        <pt x="842" y="1588" on="1"/>
        <pt x="842" y="226" on="1"/>
      </contour>
      <contour>
        <pt x="284" y="368" on="1"/>
        <pt x="700" y="368" on="1"/>
        <pt x="700" y="1447" on="1"/>
        <pt x="284" y="1447" on="1"/>
      </contour>
    </TTGlyph>
    <TTGlyph name="uni06D4" xMin="142" yMin="226" xMax="842" yMax="1588">
      <contour>
        <pt x="142" y="226" on="1"/>
        <pt x="142" y="1588" on="1"/>
        <pt x="842" y="1588" on="1"/>
        <pt x="842" y="226" on="1"/>
      </contour>
      <contour>
        <pt x="284" y="368" on="1"/>
        <pt x="700" y="368" on="1"/>
        <pt x="700" y="1447" on="1"/>
        <pt x="284" y="1447" on="1"/>
      </contour>
    </TTGlyph>
    <TTGlyph name="uni06F0" xMin="142" yMin="226" xMax="842" yMax="1588">
      <contour>
        <pt x="142" y="226" on="1"/>
        <pt x="142" y="1588" on="1"/>
        <pt x="842" y="1588" on="1"/>
        <pt x="842" y="226" on="1"/>
      </contour>
      <contour>
        <pt x="284" y="368" on="1"/>
        <pt x="700" y="368" on="1"/>
        <pt x="700" y="1447" on="1"/>
        <pt x="284" y="1447" on="1"/>
      </contour>
    </TTGlyph>
    <TTGlyph name="uni06F1" xMin="142" yMin="226" xMax="842" yMax="1588">
      <contour>
        <pt x="142" y="226" on="1"/>
        <pt x="142" y="1588" on="1"/>
        <pt x="842" y="1588" on="1"/>
        <pt x="842" y="226" on="1"/>
      </contour>
      <contour>
        <pt x="284" y="368" on="1"/>
        <pt x="700" y="368" on="1"/>
        <pt x="700" y="1447" on="1"/>
        <pt x="284" y="1447" on="1"/>
      </contour>
    </TTGlyph>
    <TTGlyph name="uni06F2" xMin="142" yMin="226" xMax="842" yMax="1588">
      <contour>
        <pt x="142" y="226" on="1"/>
        <pt x="142" y="1588" on="1"/>
        <pt x="842" y="1588" on="1"/>
        <pt x="842" y="226" on="1"/>
      </contour>
      <contour>
        <pt x="284" y="368" on="1"/>
        <pt x="700" y="368" on="1"/>
        <pt x="700" y="1447" on="1"/>
        <pt x="284" y="1447" on="1"/>
      </contour>
    </TTGlyph>
    <TTGlyph name="uni06F3" xMin="142" yMin="226" xMax="842" yMax="1588">
      <contour>
        <pt x="142" y="226" on="1"/>
        <pt x="142" y="1588" on="1"/>
        <pt x="842" y="1588" on="1"/>
        <pt x="842" y="226" on="1"/>
      </contour>
      <contour>
        <pt x="284" y="368" on="1"/>
        <pt x="700" y="368" on="1"/>
        <pt x="700" y="1447" on="1"/>
        <pt x="284" y="1447" on="1"/>
      </contour>
    </TTGlyph>
    <TTGlyph name="uni06F4" xMin="142" yMin="226" xMax="842" yMax="1588">
      <contour>
        <pt x="142" y="226" on="1"/>
        <pt x="142" y="1588" on="1"/>
        <pt x="842" y="1588" on="1"/>
        <pt x="842" y="226" on="1"/>
      </contour>
      <contour>
        <pt x="284" y="368" on="1"/>
        <pt x="700" y="368" on="1"/>
        <pt x="700" y="1447" on="1"/>
        <pt x="284" y="1447" on="1"/>
      </contour>
    </TTGlyph>
    <TTGlyph name="uni06F5" xMin="142" yMin="226" xMax="842" yMax="1588">
      <contour>
        <pt x="142" y="226" on="1"/>
        <pt x="142" y="1588" on="1"/>
        <pt x="842" y="1588" on="1"/>
        <pt x="842" y="226" on="1"/>
      </contour>
      <contour>
        <pt x="284" y="368" on="1"/>
        <pt x="700" y="368" on="1"/>
        <pt x="700" y="1447" on="1"/>
        <pt x="284" y="1447" on="1"/>
      </contour>
    </TTGlyph>
    <TTGlyph name="uni06F6" xMin="142" yMin="226" xMax="842" yMax="1588">
      <contour>
        <pt x="142" y="226" on="1"/>
        <pt x="142" y="1588" on="1"/>
        <pt x="842" y="1588" on="1"/>
        <pt x="842" y="226" on="1"/>
      </contour>
      <contour>
        <pt x="284" y="368" on="1"/>
        <pt x="700" y="368" on="1"/>
        <pt x="700" y="1447" on="1"/>
        <pt x="284" y="1447" on="1"/>
      </contour>
    </TTGlyph>
    <TTGlyph name="uni06F7" xMin="142" yMin="226" xMax="842" yMax="1588">
      <contour>
        <pt x="142" y="226" on="1"/>
        <pt x="142" y="1588" on="1"/>
        <pt x="842" y="1588" on="1"/>
        <pt x="842" y="226" on="1"/>
      </contour>
      <contour>
        <pt x="284" y="368" on="1"/>
        <pt x="700" y="368" on="1"/>
        <pt x="700" y="1447" on="1"/>
        <pt x="284" y="1447" on="1"/>
      </contour>
    </TTGlyph>
    <TTGlyph name="uni06F8" xMin="142" yMin="226" xMax="842" yMax="1588">
      <contour>
        <pt x="142" y="226" on="1"/>
        <pt x="142" y="1588" on="1"/>
        <pt x="842" y="1588" on="1"/>
        <pt x="842" y="226" on="1"/>
      </contour>
      <contour>
        <pt x="284" y="368" on="1"/>
        <pt x="700" y="368" on="1"/>
        <pt x="700" y="1447" on="1"/>
        <pt x="284" y="1447" on="1"/>
      </contour>
    </TTGlyph>
    <TTGlyph name="uni06F9" xMin="142" yMin="226" xMax="842" yMax="1588">
      <contour>
        <pt x="142" y="226" on="1"/>
        <pt x="142" y="1588" on="1"/>
        <pt x="842" y="1588" on="1"/>
        <pt x="842" y="226" on="1"/>
      </contour>
      <contour>
        <pt x="284" y="368" on="1"/>
        <pt x="700" y="368" on="1"/>
        <pt x="700" y="1447" on="1"/>
        <pt x="284" y="1447" on="1"/>
      </contour>
    </TTGlyph>
    <TTGlyph name="uni2010" xMin="154" yMin="-106" xMax="5078" yMax="1531">
      <contour>
        <pt x="5078" y="456" on="1"/>
        <pt x="5078" y="414" on="0"/>
        <pt x="5040" y="334" on="1"/>
        <pt x="5007" y="267" on="0"/>
        <pt x="4981" y="236" on="1"/>
        <pt x="4965" y="216" on="0"/>
        <pt x="4917" y="208" on="1"/>
        <pt x="4878" y="202" on="0"/>
        <pt x="4838" y="197" on="1"/>
        <pt x="4736" y="170" on="0"/>
        <pt x="4520" y="131" on="1"/>
        <pt x="3553" y="37" on="0"/>
        <pt x="3588" y="37" on="1"/>
        <pt x="2780" y="6" on="1"/>
        <pt x="2659" y="6" on="0"/>
        <pt x="2481" y="60" on="1"/>
        <pt x="2400" y="84" on="0"/>
        <pt x="2336" y="199" on="0"/>
        <pt x="2320" y="325" on="1"/>
        <pt x="2310" y="419" on="0"/>
        <pt x="2290" y="605" on="0"/>
        <pt x="2269" y="789" on="1"/>
        <pt x="2259" y="870" on="0"/>
        <pt x="2238" y="1024" on="1"/>
        <pt x="2236" y="1042" on="0"/>
        <pt x="2218" y="1093" on="1"/>
        <pt x="2201" y="1140" on="0"/>
        <pt x="2201" y="1153" on="1"/>
        <pt x="2201" y="1199" on="0"/>
        <pt x="2265" y="1285" on="1"/>
        <pt x="2285" y="1285" on="0"/>
        <pt x="2299" y="1262" on="1"/>
        <pt x="2324" y="1189" on="0"/>
        <pt x="2341" y="1036" on="1"/>
        <pt x="2364" y="829" on="0"/>
        <pt x="2372" y="791" on="1"/>
        <pt x="2373" y="777" on="0"/>
        <pt x="2400" y="501" on="1"/>
        <pt x="2414" y="356" on="0"/>
        <pt x="2469" y="270" on="1"/>
        <pt x="2482" y="249" on="0"/>
        <pt x="2581" y="213" on="1"/>
        <pt x="2672" y="180" on="0"/>
        <pt x="2688" y="180" on="1"/>
        <pt x="2699" y="180" on="0"/>
        <pt x="2994" y="160" on="0"/>
        <pt x="3005" y="160" on="1"/>
        <pt x="3250" y="160" on="0"/>
        <pt x="3870" y="214" on="1"/>
        <pt x="4382" y="259" on="0"/>
        <pt x="4581" y="285" on="1"/>
        <pt x="4692" y="309" on="0"/>
        <pt x="4917" y="354" on="1"/>
        <pt x="4924" y="361" on="0"/>
        <pt x="4924" y="374" on="1"/>
        <pt x="4924" y="464" on="0"/>
        <pt x="4705" y="483" on="1"/>
        <pt x="3635" y="354" on="1"/>
        <pt x="3622" y="354" on="0"/>
        <pt x="3084" y="333" on="0"/>
        <pt x="3071" y="333" on="1"/>
        <pt x="3005" y="333" on="0"/>
        <pt x="2870" y="360" on="1"/>
        <pt x="2718" y="389" on="0"/>
        <pt x="2703" y="419" on="1"/>
        <pt x="2699" y="447" on="0"/>
        <pt x="2706" y="505" on="1"/>
        <pt x="2780" y="724" on="0"/>
        <pt x="3091" y="927" on="1"/>
        <pt x="3356" y="1101" on="0"/>
        <pt x="3612" y="1162" on="1"/>
        <pt x="3612" y="1158" on="0"/>
        <pt x="3624" y="1142" on="0"/>
        <pt x="3624" y="1127" on="1"/>
        <pt x="3624" y="1107" on="0"/>
        <pt x="3604" y="1068" on="1"/>
        <pt x="3583" y="1026" on="0"/>
        <pt x="3560" y="1013" on="1"/>
        <pt x="3476" y="985" on="0"/>
        <pt x="3294" y="904" on="1"/>
        <pt x="3185" y="846" on="0"/>
        <pt x="3076" y="790" on="1"/>
        <pt x="2944" y="710" on="0"/>
        <pt x="2825" y="573" on="1"/>
        <pt x="2825" y="562" on="0"/>
        <pt x="2854" y="541" on="1"/>
        <pt x="2882" y="528" on="0"/>
        <pt x="2944" y="510" on="1"/>
        <pt x="3081" y="487" on="0"/>
        <pt x="3389" y="487" on="1"/>
        <pt x="3401" y="487" on="0"/>
        <pt x="3826" y="508" on="0"/>
        <pt x="3840" y="508" on="1"/>
        <pt x="4776" y="620" on="1"/>
        <pt x="4868" y="620" on="0"/>
        <pt x="4953" y="590" on="1"/>
        <pt x="5078" y="545" on="0"/>
      </contour>
      <contour>
        <pt x="3246" y="1501" on="1"/>
        <pt x="3246" y="1446" on="0"/>
        <pt x="3181" y="1411" on="1"/>
        <pt x="2770" y="1191" on="0"/>
        <pt x="2535" y="1010" on="1"/>
        <pt x="2479" y="1010" on="1"/>
        <pt x="2479" y="1014" on="0"/>
        <pt x="2467" y="1035" on="0"/>
        <pt x="2467" y="1050" on="1"/>
        <pt x="2467" y="1102" on="0"/>
        <pt x="2511" y="1128" on="1"/>
        <pt x="3181" y="1531" on="0"/>
        <pt x="3191" y="1530" on="1"/>
        <pt x="3234" y="1530" on="1"/>
        <pt x="3234" y="1527" on="0"/>
        <pt x="3246" y="1516" on="0"/>
      </contour>
      <contour>
        <pt x="1853" y="1480" on="1"/>
        <pt x="1853" y="1461" on="0"/>
        <pt x="1828" y="1422" on="1"/>
        <pt x="1801" y="1380" on="0"/>
        <pt x="1778" y="1371" on="1"/>
        <pt x="1231" y="1149" on="0"/>
        <pt x="816" y="945" on="1"/>
        <pt x="632" y="845" on="0"/>
        <pt x="291" y="661" on="1"/>
        <pt x="276" y="676" on="0"/>
        <pt x="276" y="697" on="1"/>
        <pt x="276" y="798" on="0"/>
        <pt x="535" y="919" on="1"/>
        <pt x="635" y="972" on="0"/>
        <pt x="832" y="1073" on="1"/>
        <pt x="897" y="1112" on="0"/>
        <pt x="1026" y="1179" on="1"/>
        <pt x="1411" y="1347" on="0"/>
        <pt x="1839" y="1511" on="1"/>
        <pt x="1853" y="1497" on="0"/>
      </contour>
      <contour>
        <pt x="1311" y="472" on="1"/>
        <pt x="1311" y="446" on="0"/>
        <pt x="1285" y="407" on="1"/>
        <pt x="1257" y="365" on="0"/>
        <pt x="1229" y="365" on="1"/>
        <pt x="1189" y="365" on="0"/>
        <pt x="1154" y="404" on="1"/>
        <pt x="1126" y="437" on="0"/>
        <pt x="1126" y="456" on="1"/>
        <pt x="1126" y="487" on="0"/>
        <pt x="1189" y="569" on="0"/>
        <pt x="1213" y="569" on="1"/>
        <pt x="1241" y="569" on="0"/>
        <pt x="1277" y="528" on="1"/>
        <pt x="1311" y="490" on="0"/>
      </contour>
      <contour>
        <pt x="2119" y="390" on="1"/>
        <pt x="2119" y="315" on="0"/>
        <pt x="2115" y="297" on="1"/>
        <pt x="2105" y="253" on="0"/>
        <pt x="2053" y="172" on="1"/>
        <pt x="2014" y="112" on="0"/>
        <pt x="1899" y="61" on="1"/>
        <pt x="1813" y="26" on="0"/>
        <pt x="1727" y="-7" on="1"/>
        <pt x="1578" y="-72" on="0"/>
        <pt x="1408" y="-79" on="1"/>
        <pt x="1399" y="-80" on="0"/>
        <pt x="1350" y="-96" on="0"/>
        <pt x="1323" y="-96" on="0"/>
        <pt x="1216" y="-106" on="0"/>
        <pt x="1203" y="-106" on="1"/>
        <pt x="711" y="-106" on="0"/>
        <pt x="473" y="9" on="1"/>
        <pt x="389" y="50" on="0"/>
        <pt x="154" y="286" on="1"/>
        <pt x="154" y="320" on="1"/>
        <pt x="167" y="333" on="0"/>
        <pt x="184" y="333" on="1"/>
        <pt x="189" y="333" on="0"/>
        <pt x="315" y="261" on="1"/>
        <pt x="454" y="179" on="0"/>
        <pt x="529" y="152" on="1"/>
        <pt x="640" y="111" on="0"/>
        <pt x="876" y="79" on="1"/>
        <pt x="1101" y="47" on="0"/>
        <pt x="1254" y="47" on="1"/>
        <pt x="1266" y="47" on="0"/>
        <pt x="1307" y="63" on="0"/>
        <pt x="1315" y="64" on="1"/>
        <pt x="1390" y="69" on="0"/>
        <pt x="1611" y="101" on="1"/>
        <pt x="1670" y="109" on="0"/>
        <pt x="1828" y="171" on="1"/>
        <pt x="2027" y="251" on="0"/>
        <pt x="2027" y="308" on="1"/>
        <pt x="2027" y="319" on="0"/>
        <pt x="1925" y="482" on="0"/>
        <pt x="1925" y="492" on="1"/>
        <pt x="1925" y="508" on="0"/>
        <pt x="1947" y="556" on="1"/>
        <pt x="1972" y="610" on="0"/>
        <pt x="1991" y="610" on="1"/>
        <pt x="2037" y="610" on="0"/>
        <pt x="2115" y="464" on="1"/>
        <pt x="2119" y="455" on="0"/>
      </contour>
    </TTGlyph>
    <TTGlyph name="uni2011" xMin="154" yMin="-106" xMax="5078" yMax="1531">
      <contour>
        <pt x="5078" y="456" on="1"/>
        <pt x="5078" y="414" on="0"/>
        <pt x="5040" y="334" on="1"/>
        <pt x="5007" y="267" on="0"/>
        <pt x="4981" y="236" on="1"/>
        <pt x="4965" y="216" on="0"/>
        <pt x="4917" y="208" on="1"/>
        <pt x="4878" y="202" on="0"/>
        <pt x="4838" y="197" on="1"/>
        <pt x="4736" y="170" on="0"/>
        <pt x="4520" y="131" on="1"/>
        <pt x="3553" y="37" on="0"/>
        <pt x="3588" y="37" on="1"/>
        <pt x="2780" y="6" on="1"/>
        <pt x="2659" y="6" on="0"/>
        <pt x="2481" y="60" on="1"/>
        <pt x="2400" y="84" on="0"/>
        <pt x="2336" y="199" on="0"/>
        <pt x="2320" y="325" on="1"/>
        <pt x="2310" y="419" on="0"/>
        <pt x="2290" y="605" on="0"/>
        <pt x="2269" y="789" on="1"/>
        <pt x="2259" y="870" on="0"/>
        <pt x="2238" y="1024" on="1"/>
        <pt x="2236" y="1042" on="0"/>
        <pt x="2218" y="1093" on="1"/>
        <pt x="2201" y="1140" on="0"/>
        <pt x="2201" y="1153" on="1"/>
        <pt x="2201" y="1199" on="0"/>
        <pt x="2265" y="1285" on="1"/>
        <pt x="2285" y="1285" on="0"/>
        <pt x="2299" y="1262" on="1"/>
        <pt x="2324" y="1189" on="0"/>
        <pt x="2341" y="1036" on="1"/>
        <pt x="2364" y="829" on="0"/>
        <pt x="2372" y="791" on="1"/>
        <pt x="2373" y="777" on="0"/>
        <pt x="2400" y="501" on="1"/>
        <pt x="2414" y="356" on="0"/>
        <pt x="2469" y="270" on="1"/>
        <pt x="2482" y="249" on="0"/>
        <pt x="2581" y="213" on="1"/>
        <pt x="2672" y="180" on="0"/>
        <pt x="2688" y="180" on="1"/>
        <pt x="2699" y="180" on="0"/>
        <pt x="2994" y="160" on="0"/>
        <pt x="3005" y="160" on="1"/>
        <pt x="3250" y="160" on="0"/>
        <pt x="3870" y="214" on="1"/>
        <pt x="4382" y="259" on="0"/>
        <pt x="4581" y="285" on="1"/>
        <pt x="4692" y="309" on="0"/>
        <pt x="4917" y="354" on="1"/>
        <pt x="4924" y="361" on="0"/>
        <pt x="4924" y="374" on="1"/>
        <pt x="4924" y="464" on="0"/>
        <pt x="4705" y="483" on="1"/>
        <pt x="3635" y="354" on="1"/>
        <pt x="3622" y="354" on="0"/>
        <pt x="3084" y="333" on="0"/>
        <pt x="3071" y="333" on="1"/>
        <pt x="3005" y="333" on="0"/>
        <pt x="2870" y="360" on="1"/>
        <pt x="2718" y="389" on="0"/>
        <pt x="2703" y="419" on="1"/>
        <pt x="2699" y="447" on="0"/>
        <pt x="2706" y="505" on="1"/>
        <pt x="2780" y="724" on="0"/>
        <pt x="3091" y="927" on="1"/>
        <pt x="3356" y="1101" on="0"/>
        <pt x="3612" y="1162" on="1"/>
        <pt x="3612" y="1158" on="0"/>
        <pt x="3624" y="1142" on="0"/>
        <pt x="3624" y="1127" on="1"/>
        <pt x="3624" y="1107" on="0"/>
        <pt x="3604" y="1068" on="1"/>
        <pt x="3583" y="1026" on="0"/>
        <pt x="3560" y="1013" on="1"/>
        <pt x="3476" y="985" on="0"/>
        <pt x="3294" y="904" on="1"/>
        <pt x="3185" y="846" on="0"/>
        <pt x="3076" y="790" on="1"/>
        <pt x="2944" y="710" on="0"/>
        <pt x="2825" y="573" on="1"/>
        <pt x="2825" y="562" on="0"/>
        <pt x="2854" y="541" on="1"/>
        <pt x="2882" y="528" on="0"/>
        <pt x="2944" y="510" on="1"/>
        <pt x="3081" y="487" on="0"/>
        <pt x="3389" y="487" on="1"/>
        <pt x="3401" y="487" on="0"/>
        <pt x="3826" y="508" on="0"/>
        <pt x="3840" y="508" on="1"/>
        <pt x="4776" y="620" on="1"/>
        <pt x="4868" y="620" on="0"/>
        <pt x="4953" y="590" on="1"/>
        <pt x="5078" y="545" on="0"/>
      </contour>
      <contour>
        <pt x="3246" y="1501" on="1"/>
        <pt x="3246" y="1446" on="0"/>
        <pt x="3181" y="1411" on="1"/>
        <pt x="2770" y="1191" on="0"/>
        <pt x="2535" y="1010" on="1"/>
        <pt x="2479" y="1010" on="1"/>
        <pt x="2479" y="1014" on="0"/>
        <pt x="2467" y="1035" on="0"/>
        <pt x="2467" y="1050" on="1"/>
        <pt x="2467" y="1102" on="0"/>
        <pt x="2511" y="1128" on="1"/>
        <pt x="3181" y="1531" on="0"/>
        <pt x="3191" y="1530" on="1"/>
        <pt x="3234" y="1530" on="1"/>
        <pt x="3234" y="1527" on="0"/>
        <pt x="3246" y="1516" on="0"/>
      </contour>
      <contour>
        <pt x="1853" y="1480" on="1"/>
        <pt x="1853" y="1461" on="0"/>
        <pt x="1828" y="1422" on="1"/>
        <pt x="1801" y="1380" on="0"/>
        <pt x="1778" y="1371" on="1"/>
        <pt x="1231" y="1149" on="0"/>
        <pt x="816" y="945" on="1"/>
        <pt x="632" y="845" on="0"/>
        <pt x="291" y="661" on="1"/>
        <pt x="276" y="676" on="0"/>
        <pt x="276" y="697" on="1"/>
        <pt x="276" y="798" on="0"/>
        <pt x="535" y="919" on="1"/>
        <pt x="635" y="972" on="0"/>
        <pt x="832" y="1073" on="1"/>
        <pt x="897" y="1112" on="0"/>
        <pt x="1026" y="1179" on="1"/>
        <pt x="1411" y="1347" on="0"/>
        <pt x="1839" y="1511" on="1"/>
        <pt x="1853" y="1497" on="0"/>
      </contour>
      <contour>
        <pt x="1311" y="472" on="1"/>
        <pt x="1311" y="446" on="0"/>
        <pt x="1285" y="407" on="1"/>
        <pt x="1257" y="365" on="0"/>
        <pt x="1229" y="365" on="1"/>
        <pt x="1189" y="365" on="0"/>
        <pt x="1154" y="404" on="1"/>
        <pt x="1126" y="437" on="0"/>
        <pt x="1126" y="456" on="1"/>
        <pt x="1126" y="487" on="0"/>
        <pt x="1189" y="569" on="0"/>
        <pt x="1213" y="569" on="1"/>
        <pt x="1241" y="569" on="0"/>
        <pt x="1277" y="528" on="1"/>
        <pt x="1311" y="490" on="0"/>
      </contour>
      <contour>
        <pt x="2119" y="390" on="1"/>
        <pt x="2119" y="315" on="0"/>
        <pt x="2115" y="297" on="1"/>
        <pt x="2105" y="253" on="0"/>
        <pt x="2053" y="172" on="1"/>
        <pt x="2014" y="112" on="0"/>
        <pt x="1899" y="61" on="1"/>
        <pt x="1813" y="26" on="0"/>
        <pt x="1727" y="-7" on="1"/>
        <pt x="1578" y="-72" on="0"/>
        <pt x="1408" y="-79" on="1"/>
        <pt x="1399" y="-80" on="0"/>
        <pt x="1350" y="-96" on="0"/>
        <pt x="1323" y="-96" on="0"/>
        <pt x="1216" y="-106" on="0"/>
        <pt x="1203" y="-106" on="1"/>
        <pt x="711" y="-106" on="0"/>
        <pt x="473" y="9" on="1"/>
        <pt x="389" y="50" on="0"/>
        <pt x="154" y="286" on="1"/>
        <pt x="154" y="320" on="1"/>
        <pt x="167" y="333" on="0"/>
        <pt x="184" y="333" on="1"/>
        <pt x="189" y="333" on="0"/>
        <pt x="315" y="261" on="1"/>
        <pt x="454" y="179" on="0"/>
        <pt x="529" y="152" on="1"/>
        <pt x="640" y="111" on="0"/>
        <pt x="876" y="79" on="1"/>
        <pt x="1101" y="47" on="0"/>
        <pt x="1254" y="47" on="1"/>
        <pt x="1266" y="47" on="0"/>
        <pt x="1307" y="63" on="0"/>
        <pt x="1315" y="64" on="1"/>
        <pt x="1390" y="69" on="0"/>
        <pt x="1611" y="101" on="1"/>
        <pt x="1670" y="109" on="0"/>
        <pt x="1828" y="171" on="1"/>
        <pt x="2027" y="251" on="0"/>
        <pt x="2027" y="308" on="1"/>
        <pt x="2027" y="319" on="0"/>
        <pt x="1925" y="482" on="0"/>
        <pt x="1925" y="492" on="1"/>
        <pt x="1925" y="508" on="0"/>
        <pt x="1947" y="556" on="1"/>
        <pt x="1972" y="610" on="0"/>
        <pt x="1991" y="610" on="1"/>
        <pt x="2037" y="610" on="0"/>
        <pt x="2115" y="464" on="1"/>
        <pt x="2119" y="455" on="0"/>
      </contour>
    </TTGlyph>
    <TTGlyph name="uniE000" xMin="0" yMin="0" xMax="1855" yMax="1855">
      <contour>
        <pt x="0" y="1855" on="1"/>
        <pt x="1855" y="1855" on="1"/>
        <pt x="1855" y="0" on="1"/>
        <pt x="0" y="0" on="1"/>
      </contour>
    </TTGlyph>
    <TTGlyph name="uniFB51" xMin="134" yMin="-387" xMax="1445" yMax="1528">
      <contour>
        <pt x="1445" y="1435" on="1"/>
        <pt x="1445" y="1393" on="0"/>
        <pt x="1408" y="1367" on="1"/>
        <pt x="1379" y="1347" on="0"/>
        <pt x="1233" y="1275" on="1"/>
        <pt x="1142" y="1227" on="0"/>
        <pt x="957" y="1139" on="1"/>
        <pt x="933" y="1163" on="1"/>
        <pt x="938" y="1195" on="0"/>
        <pt x="958" y="1236" on="1"/>
        <pt x="1124" y="1334" on="0"/>
        <pt x="1387" y="1466" on="1"/>
        <pt x="1432" y="1466" on="1"/>
        <pt x="1445" y="1452" on="0"/>
      </contour>
      <contour>
        <pt x="963" y="1410" on="1"/>
        <pt x="963" y="1370" on="0"/>
        <pt x="848" y="1307" on="1"/>
        <pt x="742" y="1251" on="0"/>
        <pt x="712" y="1252" on="1"/>
        <pt x="637" y="1252" on="1"/>
        <pt x="637" y="1255" on="0"/>
        <pt x="626" y="1298" on="0"/>
        <pt x="626" y="1311" on="1"/>
        <pt x="666" y="1330" on="0"/>
        <pt x="748" y="1380" on="1"/>
        <pt x="725" y="1405" on="0"/>
        <pt x="697" y="1405" on="1"/>
        <pt x="673" y="1405" on="0"/>
        <pt x="622" y="1354" on="1"/>
        <pt x="577" y="1354" on="1"/>
        <pt x="564" y="1367" on="0"/>
        <pt x="564" y="1389" on="1"/>
        <pt x="564" y="1425" on="0"/>
        <pt x="639" y="1478" on="1"/>
        <pt x="708" y="1528" on="0"/>
        <pt x="738" y="1528" on="1"/>
        <pt x="762" y="1528" on="0"/>
        <pt x="858" y="1484" on="1"/>
        <pt x="963" y="1436" on="0"/>
      </contour>
      <contour>
        <pt x="1291" y="242" on="1"/>
        <pt x="1291" y="33" on="0"/>
        <pt x="1101" y="33" on="1"/>
        <pt x="1048" y="33" on="0"/>
        <pt x="1029" y="39" on="1"/>
        <pt x="979" y="55" on="0"/>
        <pt x="878" y="125" on="1"/>
        <pt x="870" y="29" on="0"/>
        <pt x="863" y="-67" on="1"/>
        <pt x="852" y="-190" on="0"/>
        <pt x="784" y="-260" on="1"/>
        <pt x="720" y="-326" on="0"/>
        <pt x="612" y="-363" on="1"/>
        <pt x="545" y="-387" on="0"/>
        <pt x="457" y="-387" on="1"/>
        <pt x="323" y="-387" on="0"/>
        <pt x="236" y="-322" on="1"/>
        <pt x="134" y="-248" on="0"/>
        <pt x="134" y="-110" on="1"/>
        <pt x="134" y="-54" on="0"/>
        <pt x="180" y="52" on="1"/>
        <pt x="231" y="169" on="0"/>
        <pt x="281" y="196" on="1"/>
        <pt x="318" y="196" on="1"/>
        <pt x="318" y="159" on="1"/>
        <pt x="318" y="149" on="0"/>
        <pt x="239" y="5" on="1"/>
        <pt x="236" y="-3" on="0"/>
        <pt x="236" y="-33" on="1"/>
        <pt x="236" y="-131" on="0"/>
        <pt x="327" y="-186" on="1"/>
        <pt x="402" y="-233" on="0"/>
        <pt x="498" y="-233" on="1"/>
        <pt x="558" y="-233" on="0"/>
        <pt x="659" y="-188" on="1"/>
        <pt x="779" y="-135" on="0"/>
        <pt x="779" y="-74" on="1"/>
        <pt x="666" y="918" on="1"/>
        <pt x="666" y="970" on="0"/>
        <pt x="730" y="1056" on="1"/>
        <pt x="743" y="1056" on="0"/>
        <pt x="765" y="1022" on="1"/>
        <pt x="783" y="843" on="0"/>
        <pt x="847" y="582" on="1"/>
        <pt x="898" y="373" on="0"/>
        <pt x="925" y="321" on="1"/>
        <pt x="990" y="197" on="0"/>
        <pt x="1127" y="197" on="1"/>
        <pt x="1188" y="197" on="0"/>
        <pt x="1188" y="222" on="1"/>
        <pt x="1188" y="235" on="0"/>
        <pt x="1106" y="338" on="0"/>
        <pt x="1106" y="350" on="1"/>
        <pt x="1106" y="385" on="0"/>
        <pt x="1150" y="473" on="1"/>
        <pt x="1195" y="473" on="1"/>
        <pt x="1237" y="450" on="0"/>
        <pt x="1267" y="361" on="1"/>
        <pt x="1291" y="289" on="0"/>
      </contour>
      <contour>
        <pt x="1219" y="-249" on="1"/>
        <pt x="1219" y="-289" on="0"/>
        <pt x="1176" y="-326" on="1"/>
        <pt x="1142" y="-356" on="0"/>
        <pt x="1127" y="-356" on="1"/>
        <pt x="1097" y="-356" on="0"/>
        <pt x="1057" y="-333" on="1"/>
        <pt x="1015" y="-308" on="0"/>
        <pt x="1015" y="-279" on="1"/>
        <pt x="1015" y="-256" on="0"/>
        <pt x="1089" y="-172" on="0"/>
        <pt x="1122" y="-172" on="1"/>
        <pt x="1142" y="-172" on="0"/>
        <pt x="1219" y="-230" on="0"/>
      </contour>
    </TTGlyph>
    <TTGlyph name="uniFB52" xMin="167" yMin="-839" xMax="3597" yMax="1812">
      <contour>
        <pt x="3556" y="1776" on="1"/>
        <pt x="3556" y="1734" on="0"/>
        <pt x="3356" y="1600" on="1"/>
        <pt x="3201" y="1495" on="0"/>
        <pt x="3121" y="1454" on="1"/>
        <pt x="3085" y="1466" on="0"/>
        <pt x="3085" y="1505" on="1"/>
        <pt x="3085" y="1547" on="0"/>
        <pt x="3110" y="1565" on="1"/>
        <pt x="3128" y="1579" on="0"/>
        <pt x="3509" y="1812" on="1"/>
        <pt x="3543" y="1812" on="1"/>
        <pt x="3556" y="1798" on="0"/>
      </contour>
      <contour>
        <pt x="3597" y="1264" on="1"/>
        <pt x="3597" y="1249" on="0"/>
        <pt x="3590" y="1242" on="1"/>
        <pt x="3581" y="1231" on="0"/>
        <pt x="3581" y="1230" on="1"/>
        <pt x="3572" y="1224" on="0"/>
        <pt x="3409" y="1163" on="1"/>
        <pt x="3364" y="1140" on="0"/>
        <pt x="3275" y="1096" on="1"/>
        <pt x="3241" y="1096" on="1"/>
        <pt x="3235" y="1108" on="0"/>
        <pt x="3241" y="1135" on="1"/>
        <pt x="3249" y="1170" on="0"/>
        <pt x="3249" y="1177" on="1"/>
        <pt x="3249" y="1187" on="0"/>
        <pt x="3208" y="1253" on="0"/>
        <pt x="3208" y="1270" on="1"/>
        <pt x="3208" y="1320" on="0"/>
        <pt x="3291" y="1398" on="1"/>
        <pt x="3370" y="1475" on="0"/>
        <pt x="3407" y="1475" on="1"/>
        <pt x="3460" y="1475" on="0"/>
        <pt x="3472" y="1420" on="1"/>
        <pt x="3474" y="1409" on="0"/>
        <pt x="3474" y="1327" on="1"/>
        <pt x="3474" y="1297" on="1"/>
        <pt x="3479" y="1291" on="0"/>
        <pt x="3503" y="1294" on="1"/>
        <pt x="3547" y="1298" on="0"/>
        <pt x="3585" y="1298" on="1"/>
        <pt x="3585" y="1295" on="0"/>
        <pt x="3597" y="1279" on="0"/>
      </contour>
      <contour>
        <pt x="3105" y="1746" on="1"/>
        <pt x="3105" y="1696" on="0"/>
        <pt x="2967" y="1610" on="1"/>
        <pt x="2897" y="1571" on="0"/>
        <pt x="2827" y="1533" on="1"/>
        <pt x="2726" y="1466" on="0"/>
        <pt x="2598" y="1393" on="1"/>
        <pt x="2583" y="1407" on="0"/>
        <pt x="2583" y="1439" on="1"/>
        <pt x="2583" y="1485" on="0"/>
        <pt x="2665" y="1539" on="1"/>
        <pt x="2733" y="1579" on="0"/>
        <pt x="2801" y="1620" on="1"/>
        <pt x="2900" y="1685" on="0"/>
        <pt x="3091" y="1792" on="1"/>
        <pt x="3105" y="1777" on="0"/>
      </contour>
      <contour>
        <pt x="3515" y="179" on="1"/>
        <pt x="3515" y="129" on="0"/>
        <pt x="3451" y="1" on="1"/>
        <pt x="3441" y="1" on="0"/>
        <pt x="3415" y="34" on="1"/>
        <pt x="3320" y="822" on="0"/>
        <pt x="3320" y="906" on="1"/>
        <pt x="3320" y="947" on="0"/>
        <pt x="3382" y="1061" on="0"/>
        <pt x="3409" y="1074" on="1"/>
      </contour>
      <contour>
        <pt x="3156" y="865" on="1"/>
        <pt x="3156" y="843" on="0"/>
        <pt x="3083" y="758" on="0"/>
        <pt x="3060" y="758" on="1"/>
        <pt x="3047" y="758" on="0"/>
        <pt x="3004" y="778" on="0"/>
        <pt x="2992" y="778" on="1"/>
        <pt x="2980" y="778" on="0"/>
        <pt x="2933" y="737" on="0"/>
        <pt x="2921" y="737" on="1"/>
        <pt x="2882" y="737" on="0"/>
        <pt x="2852" y="776" on="1"/>
        <pt x="2829" y="806" on="0"/>
        <pt x="2829" y="824" on="1"/>
        <pt x="2829" y="846" on="0"/>
        <pt x="2897" y="931" on="0"/>
        <pt x="2916" y="931" on="1"/>
        <pt x="2925" y="931" on="0"/>
        <pt x="2974" y="901" on="0"/>
        <pt x="2988" y="901" on="1"/>
        <pt x="3002" y="901" on="0"/>
        <pt x="3057" y="952" on="0"/>
        <pt x="3069" y="952" on="1"/>
        <pt x="3088" y="952" on="0"/>
        <pt x="3156" y="884" on="0"/>
      </contour>
      <contour>
        <pt x="2756" y="1119" on="1"/>
        <pt x="2745" y="1103" on="0"/>
        <pt x="2724" y="1078" on="1"/>
        <pt x="2702" y="1070" on="0"/>
        <pt x="2608" y="1022" on="1"/>
        <pt x="2530" y="983" on="0"/>
        <pt x="2516" y="983" on="1"/>
        <pt x="2433" y="983" on="1"/>
        <pt x="2409" y="1008" on="1"/>
        <pt x="2417" y="1042" on="0"/>
        <pt x="2464" y="1061" on="1"/>
        <pt x="2526" y="1085" on="0"/>
        <pt x="2543" y="1103" on="1"/>
        <pt x="2543" y="1128" on="1"/>
        <pt x="2540" y="1128" on="0"/>
        <pt x="2521" y="1136" on="0"/>
        <pt x="2507" y="1136" on="1"/>
        <pt x="2489" y="1136" on="0"/>
        <pt x="2426" y="1096" on="1"/>
        <pt x="2369" y="1096" on="1"/>
        <pt x="2378" y="1175" on="0"/>
        <pt x="2446" y="1223" on="1"/>
        <pt x="2497" y="1259" on="0"/>
        <pt x="2537" y="1259" on="1"/>
        <pt x="2550" y="1259" on="0"/>
        <pt x="2630" y="1225" on="1"/>
        <pt x="2720" y="1185" on="0"/>
        <pt x="2756" y="1176" on="1"/>
      </contour>
      <contour>
        <pt x="2317" y="1602" on="1"/>
        <pt x="2317" y="1572" on="0"/>
        <pt x="2284" y="1549" on="1"/>
        <pt x="2259" y="1533" on="0"/>
        <pt x="2055" y="1406" on="1"/>
        <pt x="1913" y="1318" on="0"/>
        <pt x="1822" y="1239" on="1"/>
        <pt x="1778" y="1239" on="1"/>
        <pt x="1764" y="1252" on="1"/>
        <pt x="1764" y="1319" on="1"/>
        <pt x="1898" y="1412" on="0"/>
        <pt x="2031" y="1506" on="1"/>
        <pt x="2172" y="1602" on="0"/>
        <pt x="2281" y="1658" on="1"/>
        <pt x="2317" y="1641" on="0"/>
      </contour>
      <contour>
        <pt x="2307" y="604" on="1"/>
        <pt x="2307" y="560" on="0"/>
        <pt x="2261" y="492" on="0"/>
        <pt x="2230" y="492" on="1"/>
        <pt x="2197" y="492" on="0"/>
        <pt x="2158" y="535" on="1"/>
        <pt x="2122" y="574" on="0"/>
        <pt x="2122" y="594" on="1"/>
        <pt x="2122" y="625" on="0"/>
        <pt x="2166" y="668" on="1"/>
        <pt x="2205" y="706" on="0"/>
        <pt x="2220" y="706" on="1"/>
        <pt x="2253" y="706" on="0"/>
        <pt x="2282" y="663" on="1"/>
        <pt x="2307" y="626" on="0"/>
      </contour>
      <contour>
        <pt x="2962" y="-235" on="1"/>
        <pt x="2962" y="-264" on="0"/>
        <pt x="2922" y="-303" on="1"/>
        <pt x="2885" y="-338" on="0"/>
        <pt x="2870" y="-338" on="1"/>
        <pt x="2858" y="-338" on="0"/>
        <pt x="2805" y="-307" on="0"/>
        <pt x="2793" y="-307" on="1"/>
        <pt x="2780" y="-307" on="0"/>
        <pt x="2703" y="-368" on="0"/>
        <pt x="2691" y="-368" on="1"/>
        <pt x="2673" y="-368" on="0"/>
        <pt x="2583" y="-289" on="0"/>
        <pt x="2583" y="-271" on="1"/>
        <pt x="2583" y="-251" on="0"/>
        <pt x="2661" y="-163" on="0"/>
        <pt x="2680" y="-163" on="1"/>
        <pt x="2691" y="-163" on="0"/>
        <pt x="2752" y="-204" on="0"/>
        <pt x="2767" y="-204" on="1"/>
        <pt x="2780" y="-204" on="0"/>
        <pt x="2857" y="-143" on="0"/>
        <pt x="2870" y="-143" on="1"/>
        <pt x="2893" y="-143" on="0"/>
        <pt x="2962" y="-221" on="0"/>
      </contour>
      <contour>
        <pt x="1856" y="655" on="1"/>
        <pt x="1856" y="639" on="0"/>
        <pt x="1842" y="547" on="1"/>
        <pt x="1837" y="517" on="0"/>
        <pt x="1802" y="482" on="1"/>
        <pt x="1765" y="482" on="1"/>
        <pt x="1747" y="607" on="0"/>
        <pt x="1719" y="679" on="1"/>
        <pt x="1713" y="696" on="0"/>
        <pt x="1670" y="751" on="1"/>
        <pt x="1631" y="802" on="0"/>
        <pt x="1631" y="813" on="1"/>
        <pt x="1631" y="881" on="0"/>
        <pt x="1687" y="881" on="1"/>
        <pt x="1753" y="881" on="0"/>
        <pt x="1809" y="784" on="1"/>
        <pt x="1856" y="704" on="0"/>
      </contour>
      <contour>
        <pt x="1416" y="1254" on="1"/>
        <pt x="1416" y="1234" on="0"/>
        <pt x="1382" y="1188" on="0"/>
        <pt x="1365" y="1188" on="1"/>
        <pt x="1355" y="1188" on="0"/>
        <pt x="1291" y="1229" on="0"/>
        <pt x="1278" y="1229" on="1"/>
        <pt x="1291" y="1229" on="0"/>
        <pt x="1132" y="1094" on="1"/>
        <pt x="964" y="953" on="0"/>
        <pt x="836" y="922" on="1"/>
        <pt x="822" y="934" on="1"/>
        <pt x="822" y="972" on="1"/>
        <pt x="879" y="1010" on="0"/>
        <pt x="1000" y="1108" on="1"/>
        <pt x="1171" y="1246" on="0"/>
        <pt x="1171" y="1275" on="1"/>
        <pt x="1171" y="1287" on="0"/>
        <pt x="1134" y="1309" on="1"/>
        <pt x="1086" y="1339" on="0"/>
        <pt x="1072" y="1352" on="1"/>
        <pt x="1048" y="1377" on="0"/>
        <pt x="1048" y="1428" on="1"/>
        <pt x="1048" y="1418" on="0"/>
        <pt x="1061" y="1471" on="1"/>
        <pt x="1162" y="1614" on="0"/>
        <pt x="1259" y="1607" on="1"/>
        <pt x="1323" y="1549" on="0"/>
        <pt x="1323" y="1466" on="1"/>
        <pt x="1323" y="1444" on="0"/>
        <pt x="1316" y="1389" on="1"/>
        <pt x="1320" y="1382" on="0"/>
        <pt x="1375" y="1316" on="1"/>
        <pt x="1416" y="1267" on="0"/>
      </contour>
      <contour>
        <pt x="3187" y="241" on="1"/>
        <pt x="3187" y="220" on="0"/>
        <pt x="3121" y="54" on="1"/>
        <pt x="3120" y="52" on="0"/>
        <pt x="3082" y="23" on="1"/>
        <pt x="3068" y="23" on="0"/>
        <pt x="2980" y="0" on="0"/>
        <pt x="2967" y="0" on="1"/>
        <pt x="2907" y="0" on="0"/>
        <pt x="2836" y="38" on="1"/>
        <pt x="2756" y="79" on="0"/>
        <pt x="2720" y="143" on="1"/>
        <pt x="2675" y="102" on="0"/>
        <pt x="2580" y="34" on="1"/>
        <pt x="2555" y="20" on="0"/>
        <pt x="2507" y="20" on="1"/>
        <pt x="2430" y="20" on="0"/>
        <pt x="2292" y="133" on="0"/>
        <pt x="2286" y="133" on="1"/>
        <pt x="2274" y="133" on="0"/>
        <pt x="2254" y="113" on="1"/>
        <pt x="2228" y="88" on="0"/>
        <pt x="2222" y="85" on="1"/>
        <pt x="2172" y="56" on="0"/>
        <pt x="2108" y="43" on="1"/>
        <pt x="1936" y="10" on="0"/>
        <pt x="1737" y="10" on="1"/>
        <pt x="1574" y="10" on="1"/>
        <pt x="1557" y="2" on="1"/>
        <pt x="1580" y="-97" on="0"/>
        <pt x="1580" y="-154" on="1"/>
        <pt x="1580" y="-368" on="0"/>
        <pt x="1426" y="-368" on="1"/>
        <pt x="1382" y="-368" on="0"/>
        <pt x="1320" y="-338" on="1"/>
        <pt x="1249" y="-303" on="0"/>
        <pt x="1215" y="-253" on="1"/>
        <pt x="1193" y="-222" on="0"/>
        <pt x="1171" y="-164" on="1"/>
        <pt x="1143" y="-91" on="0"/>
        <pt x="1133" y="-71" on="1"/>
        <pt x="1107" y="-81" on="0"/>
        <pt x="1061" y="-102" on="1"/>
        <pt x="1048" y="-77" on="0"/>
        <pt x="1048" y="-18" on="1"/>
        <pt x="958" y="-18" on="0"/>
        <pt x="779" y="-9" on="1"/>
        <pt x="750" y="-86" on="0"/>
        <pt x="687" y="-244" on="1"/>
        <pt x="677" y="-247" on="0"/>
        <pt x="665" y="-247" on="1"/>
        <pt x="617" y="-247" on="0"/>
        <pt x="568" y="-196" on="1"/>
        <pt x="526" y="-152" on="0"/>
        <pt x="508" y="-99" on="1"/>
        <pt x="505" y="-91" on="0"/>
        <pt x="491" y="65" on="1"/>
        <pt x="473" y="92" on="0"/>
        <pt x="433" y="92" on="1"/>
        <pt x="399" y="92" on="0"/>
        <pt x="264" y="33" on="0"/>
        <pt x="261" y="14" on="1"/>
        <pt x="259" y="1" on="0"/>
        <pt x="259" y="-92" on="1"/>
        <pt x="310" y="-655" on="1"/>
        <pt x="310" y="-689" on="0"/>
        <pt x="296" y="-783" on="1"/>
        <pt x="292" y="-815" on="0"/>
        <pt x="266" y="-839" on="1"/>
        <pt x="256" y="-839" on="0"/>
        <pt x="231" y="-806" on="1"/>
        <pt x="167" y="-290" on="0"/>
        <pt x="167" y="-122" on="1"/>
        <pt x="167" y="7" on="0"/>
        <pt x="204" y="80" on="1"/>
        <pt x="244" y="161" on="0"/>
        <pt x="354" y="231" on="1"/>
        <pt x="360" y="234" on="0"/>
        <pt x="455" y="247" on="1"/>
        <pt x="527" y="257" on="0"/>
        <pt x="559" y="327" on="1"/>
        <pt x="595" y="327" on="1"/>
        <pt x="640" y="240" on="0"/>
        <pt x="742" y="188" on="1"/>
        <pt x="832" y="143" on="0"/>
        <pt x="925" y="143" on="1"/>
        <pt x="1060" y="143" on="0"/>
        <pt x="1143" y="156" on="1"/>
        <pt x="1172" y="161" on="0"/>
        <pt x="1184" y="199" on="1"/>
        <pt x="1204" y="263" on="0"/>
        <pt x="1204" y="264" on="1"/>
        <pt x="1232" y="321" on="0"/>
        <pt x="1297" y="437" on="1"/>
        <pt x="1310" y="460" on="0"/>
        <pt x="1366" y="516" on="1"/>
        <pt x="1435" y="583" on="0"/>
        <pt x="1462" y="583" on="1"/>
        <pt x="1506" y="583" on="0"/>
        <pt x="1531" y="509" on="1"/>
        <pt x="1549" y="453" on="0"/>
        <pt x="1549" y="394" on="1"/>
        <pt x="1549" y="294" on="0"/>
        <pt x="1456" y="150" on="1"/>
        <pt x="1468" y="143" on="0"/>
        <pt x="1513" y="143" on="1"/>
        <pt x="1902" y="143" on="0"/>
        <pt x="2208" y="207" on="1"/>
        <pt x="2226" y="211" on="0"/>
        <pt x="2279" y="250" on="1"/>
        <pt x="2328" y="287" on="0"/>
        <pt x="2358" y="287" on="1"/>
        <pt x="2367" y="287" on="0"/>
        <pt x="2494" y="184" on="0"/>
        <pt x="2542" y="184" on="1"/>
        <pt x="2560" y="184" on="0"/>
        <pt x="2665" y="230" on="0"/>
        <pt x="2675" y="241" on="1"/>
        <pt x="2675" y="283" on="0"/>
        <pt x="2634" y="459" on="0"/>
        <pt x="2634" y="465" on="1"/>
        <pt x="2634" y="492" on="0"/>
        <pt x="2648" y="579" on="1"/>
        <pt x="2649" y="592" on="0"/>
        <pt x="2691" y="635" on="1"/>
        <pt x="2717" y="593" on="0"/>
        <pt x="2788" y="314" on="0"/>
        <pt x="2827" y="256" on="1"/>
        <pt x="2888" y="164" on="0"/>
        <pt x="3003" y="164" on="1"/>
        <pt x="3074" y="164" on="0"/>
        <pt x="3074" y="205" on="1"/>
        <pt x="3074" y="217" on="0"/>
        <pt x="2983" y="346" on="0"/>
        <pt x="2983" y="358" on="1"/>
        <pt x="2983" y="386" on="0"/>
        <pt x="3030" y="471" on="0"/>
        <pt x="3049" y="471" on="1"/>
        <pt x="3110" y="471" on="0"/>
        <pt x="3154" y="366" on="1"/>
        <pt x="3187" y="286" on="0"/>
      </contour>
      <contour>
        <pt x="3402" y="1294" on="1"/>
        <pt x="3355" y="1340" on="0"/>
        <pt x="3343" y="1340" on="1"/>
        <pt x="3331" y="1303" on="1"/>
        <pt x="3356" y="1290" on="0"/>
      </contour>
      <contour>
        <pt x="1220" y="1425" on="1"/>
        <pt x="1220" y="1461" on="1"/>
        <pt x="1210" y="1472" on="0"/>
        <pt x="1171" y="1472" on="1"/>
        <pt x="1187" y="1425" on="0"/>
      </contour>
      <contour>
        <pt x="1457" y="323" on="1"/>
        <pt x="1457" y="365" on="0"/>
        <pt x="1411" y="389" on="1"/>
        <pt x="1285" y="287" on="0"/>
        <pt x="1279" y="206" on="1"/>
        <pt x="1305" y="211" on="0"/>
        <pt x="1374" y="247" on="1"/>
        <pt x="1457" y="292" on="0"/>
      </contour>
      <contour>
        <pt x="1467" y="-170" on="1"/>
        <pt x="1427" y="-90" on="0"/>
        <pt x="1263" y="-84" on="1"/>
        <pt x="1275" y="-109" on="0"/>
        <pt x="1296" y="-140" on="1"/>
        <pt x="1302" y="-143" on="0"/>
        <pt x="1351" y="-172" on="1"/>
        <pt x="1387" y="-194" on="0"/>
        <pt x="1401" y="-194" on="1"/>
        <pt x="1419" y="-194" on="0"/>
      </contour>
    </TTGlyph>
    <TTGlyph name="uniFB53" xMin="444" yMin="-681" xMax="3485" yMax="1663">
      <contour>
        <pt x="3229" y="1514" on="1"/>
        <pt x="3229" y="1499" on="0"/>
        <pt x="3204" y="1460" on="1"/>
        <pt x="3168" y="1404" on="0"/>
        <pt x="3083" y="1367" on="1"/>
        <pt x="3008" y="1335" on="0"/>
        <pt x="2943" y="1335" on="1"/>
        <pt x="2934" y="1335" on="0"/>
        <pt x="2864" y="1356" on="0"/>
        <pt x="2850" y="1356" on="1"/>
        <pt x="2816" y="1356" on="0"/>
        <pt x="2802" y="1334" on="1"/>
        <pt x="2768" y="1277" on="0"/>
        <pt x="2766" y="1274" on="1"/>
        <pt x="2730" y="1274" on="1"/>
        <pt x="2717" y="1287" on="0"/>
        <pt x="2717" y="1304" on="1"/>
        <pt x="2717" y="1330" on="0"/>
        <pt x="2766" y="1396" on="1"/>
        <pt x="2815" y="1458" on="0"/>
        <pt x="2843" y="1474" on="1"/>
        <pt x="2876" y="1475" on="0"/>
        <pt x="2934" y="1490" on="1"/>
        <pt x="2950" y="1499" on="0"/>
        <pt x="2986" y="1547" on="1"/>
        <pt x="3026" y="1600" on="0"/>
        <pt x="3047" y="1616" on="1"/>
        <pt x="3078" y="1642" on="0"/>
        <pt x="3132" y="1642" on="1"/>
        <pt x="3177" y="1642" on="0"/>
        <pt x="3206" y="1588" on="1"/>
        <pt x="3229" y="1545" on="0"/>
      </contour>
      <contour>
        <pt x="2716" y="1570" on="1"/>
        <pt x="2716" y="1539" on="0"/>
        <pt x="2689" y="1486" on="0"/>
        <pt x="2621" y="1465" on="1"/>
        <pt x="2598" y="1457" on="0"/>
        <pt x="2512" y="1423" on="1"/>
        <pt x="2444" y="1397" on="0"/>
        <pt x="2431" y="1397" on="1"/>
        <pt x="2403" y="1397" on="0"/>
        <pt x="2380" y="1420" on="1"/>
        <pt x="2380" y="1466" on="1"/>
        <pt x="2431" y="1484" on="0"/>
        <pt x="2482" y="1517" on="1"/>
        <pt x="2488" y="1540" on="0"/>
        <pt x="2451" y="1540" on="1"/>
        <pt x="2434" y="1540" on="0"/>
        <pt x="2386" y="1500" on="1"/>
        <pt x="2339" y="1500" on="1"/>
        <pt x="2339" y="1543" on="1"/>
        <pt x="2339" y="1582" on="0"/>
        <pt x="2411" y="1625" on="1"/>
        <pt x="2474" y="1663" on="0"/>
        <pt x="2502" y="1663" on="1"/>
        <pt x="2521" y="1663" on="0"/>
      </contour>
      <contour>
        <pt x="3444" y="265" on="1"/>
        <pt x="3444" y="197" on="0"/>
        <pt x="3378" y="88" on="1"/>
        <pt x="3365" y="68" on="0"/>
        <pt x="3338" y="48" on="1"/>
        <pt x="3279" y="33" on="0"/>
        <pt x="3163" y="20" on="1"/>
        <pt x="3160" y="20" on="0"/>
        <pt x="3129" y="4" on="0"/>
        <pt x="3116" y="4" on="1"/>
        <pt x="3085" y="4" on="0"/>
        <pt x="3038" y="25" on="1"/>
        <pt x="2989" y="47" on="0"/>
        <pt x="2976" y="68" on="1"/>
        <pt x="2952" y="106" on="0"/>
        <pt x="2938" y="244" on="1"/>
        <pt x="2918" y="383" on="0"/>
        <pt x="2887" y="654" on="1"/>
        <pt x="2882" y="722" on="0"/>
        <pt x="2865" y="899" on="1"/>
        <pt x="2850" y="1051" on="0"/>
        <pt x="2850" y="1063" on="1"/>
        <pt x="2850" y="1113" on="0"/>
        <pt x="2916" y="1202" on="1"/>
        <pt x="2956" y="1155" on="0"/>
        <pt x="2968" y="1041" on="1"/>
        <pt x="2974" y="945" on="0"/>
        <pt x="2979" y="849" on="1"/>
        <pt x="2980" y="730" on="0"/>
        <pt x="3010" y="492" on="1"/>
        <pt x="3018" y="387" on="0"/>
        <pt x="3026" y="284" on="1"/>
        <pt x="3042" y="178" on="0"/>
        <pt x="3152" y="178" on="1"/>
        <pt x="3205" y="178" on="0"/>
        <pt x="3323" y="198" on="1"/>
        <pt x="3332" y="206" on="0"/>
        <pt x="3332" y="219" on="1"/>
        <pt x="3332" y="230" on="0"/>
        <pt x="3250" y="366" on="0"/>
        <pt x="3250" y="378" on="1"/>
        <pt x="3250" y="423" on="0"/>
        <pt x="3304" y="495" on="1"/>
        <pt x="3370" y="482" on="0"/>
        <pt x="3411" y="393" on="1"/>
        <pt x="3444" y="324" on="0"/>
      </contour>
      <contour>
        <pt x="3301" y="-149" on="1"/>
        <pt x="3301" y="-178" on="0"/>
        <pt x="3277" y="-218" on="1"/>
        <pt x="3251" y="-262" on="0"/>
        <pt x="3224" y="-262" on="1"/>
        <pt x="3198" y="-262" on="0"/>
        <pt x="3116" y="-203" on="0"/>
        <pt x="3116" y="-185" on="1"/>
        <pt x="3116" y="-167" on="0"/>
        <pt x="3142" y="-122" on="1"/>
        <pt x="3172" y="-67" on="0"/>
        <pt x="3198" y="-67" on="1"/>
        <pt x="3229" y="-67" on="0"/>
        <pt x="3266" y="-100" on="1"/>
        <pt x="3301" y="-131" on="0"/>
      </contour>
      <contour>
        <pt x="1928" y="1427" on="1"/>
        <pt x="1928" y="1393" on="0"/>
        <pt x="1819" y="1331" on="1"/>
        <pt x="1760" y="1301" on="0"/>
        <pt x="1701" y="1271" on="1"/>
        <pt x="1543" y="1185" on="0"/>
        <pt x="1393" y="1080" on="1"/>
        <pt x="1358" y="1080" on="1"/>
        <pt x="1345" y="1093" on="0"/>
        <pt x="1345" y="1120" on="1"/>
        <pt x="1345" y="1180" on="0"/>
        <pt x="1389" y="1208" on="1"/>
        <pt x="1507" y="1284" on="0"/>
        <pt x="1671" y="1379" on="1"/>
        <pt x="1845" y="1478" on="0"/>
        <pt x="1864" y="1478" on="1"/>
        <pt x="1917" y="1478" on="1"/>
        <pt x="1917" y="1474" on="0"/>
        <pt x="1928" y="1442" on="0"/>
      </contour>
      <contour>
        <pt x="3485" y="-383" on="1"/>
        <pt x="3468" y="-399" on="0"/>
        <pt x="3441" y="-422" on="1"/>
        <pt x="3281" y="-490" on="0"/>
        <pt x="2967" y="-620" on="1"/>
        <pt x="2943" y="-595" on="0"/>
        <pt x="2943" y="-579" on="1"/>
        <pt x="2943" y="-535" on="0"/>
        <pt x="2986" y="-512" on="1"/>
        <pt x="3359" y="-312" on="0"/>
        <pt x="3410" y="-313" on="1"/>
        <pt x="3472" y="-313" on="1"/>
        <pt x="3485" y="-326" on="1"/>
      </contour>
      <contour>
        <pt x="1222" y="1356" on="1"/>
        <pt x="1222" y="1330" on="0"/>
        <pt x="1208" y="1277" on="1"/>
        <pt x="1201" y="1251" on="0"/>
        <pt x="1158" y="1226" on="1"/>
        <pt x="1104" y="1194" on="0"/>
        <pt x="1012" y="1160" on="1"/>
        <pt x="927" y="1130" on="0"/>
        <pt x="905" y="1130" on="1"/>
        <pt x="813" y="1130" on="0"/>
        <pt x="813" y="1238" on="1"/>
        <pt x="813" y="1273" on="0"/>
        <pt x="885" y="1356" on="1"/>
        <pt x="895" y="1323" on="0"/>
        <pt x="922" y="1262" on="1"/>
        <pt x="949" y="1262" on="1"/>
        <pt x="970" y="1314" on="0"/>
        <pt x="1022" y="1416" on="1"/>
        <pt x="1049" y="1398" on="0"/>
        <pt x="1062" y="1364" on="1"/>
        <pt x="1080" y="1314" on="0"/>
        <pt x="1086" y="1303" on="1"/>
        <pt x="1115" y="1304" on="0"/>
        <pt x="1122" y="1346" on="1"/>
        <pt x="1135" y="1408" on="0"/>
        <pt x="1153" y="1437" on="1"/>
        <pt x="1199" y="1437" on="1"/>
        <pt x="1222" y="1391" on="0"/>
      </contour>
      <contour>
        <pt x="2645" y="286" on="1"/>
        <pt x="2645" y="217" on="0"/>
        <pt x="2641" y="202" on="1"/>
        <pt x="2631" y="166" on="0"/>
        <pt x="2621" y="130" on="1"/>
        <pt x="2608" y="86" on="0"/>
        <pt x="2589" y="67" on="1"/>
        <pt x="2556" y="34" on="0"/>
        <pt x="2409" y="11" on="1"/>
        <pt x="2294" y="-6" on="0"/>
        <pt x="2215" y="-6" on="1"/>
        <pt x="2100" y="-6" on="0"/>
        <pt x="2075" y="48" on="1"/>
        <pt x="2073" y="64" on="0"/>
        <pt x="2077" y="104" on="1"/>
        <pt x="2082" y="151" on="0"/>
        <pt x="2082" y="166" on="1"/>
        <pt x="2082" y="205" on="0"/>
        <pt x="2048" y="212" on="0"/>
        <pt x="2026" y="212" on="1"/>
        <pt x="1910" y="212" on="0"/>
        <pt x="1679" y="120" on="1"/>
        <pt x="1609" y="105" on="0"/>
        <pt x="1538" y="90" on="1"/>
        <pt x="1450" y="71" on="0"/>
        <pt x="1419" y="16" on="1"/>
        <pt x="1415" y="-9" on="0"/>
        <pt x="1402" y="-63" on="1"/>
        <pt x="1393" y="-95" on="0"/>
        <pt x="1340" y="-167" on="1"/>
        <pt x="1296" y="-228" on="0"/>
        <pt x="1117" y="-287" on="1"/>
        <pt x="945" y="-344" on="0"/>
        <pt x="828" y="-344" on="1"/>
        <pt x="680" y="-344" on="0"/>
        <pt x="570" y="-267" on="1"/>
        <pt x="444" y="-179" on="0"/>
        <pt x="444" y="-31" on="1"/>
        <pt x="444" y="41" on="0"/>
        <pt x="495" y="159" on="1"/>
        <pt x="556" y="304" on="0"/>
        <pt x="637" y="320" on="1"/>
        <pt x="637" y="274" on="1"/>
        <pt x="638" y="261" on="0"/>
        <pt x="546" y="48" on="0"/>
        <pt x="546" y="34" on="1"/>
        <pt x="546" y="-46" on="0"/>
        <pt x="633" y="-116" on="1"/>
        <pt x="714" y="-180" on="0"/>
        <pt x="787" y="-180" on="1"/>
        <pt x="993" y="-180" on="0"/>
        <pt x="1113" y="-147" on="1"/>
        <pt x="1158" y="-134" on="0"/>
        <pt x="1225" y="-101" on="1"/>
        <pt x="1325" y="-51" on="0"/>
        <pt x="1325" y="-11" on="1"/>
        <pt x="1325" y="45" on="0"/>
        <pt x="1202" y="45" on="1"/>
        <pt x="1189" y="45" on="0"/>
        <pt x="1194" y="34" on="0"/>
        <pt x="1181" y="34" on="1"/>
        <pt x="1121" y="34" on="0"/>
        <pt x="1074" y="64" on="1"/>
        <pt x="1017" y="100" on="0"/>
        <pt x="1017" y="163" on="1"/>
        <pt x="1017" y="220" on="0"/>
        <pt x="1078" y="321" on="1"/>
        <pt x="1147" y="434" on="0"/>
        <pt x="1212" y="434" on="1"/>
        <pt x="1261" y="434" on="0"/>
        <pt x="1327" y="333" on="1"/>
        <pt x="1366" y="270" on="0"/>
        <pt x="1403" y="208" on="1"/>
        <pt x="1581" y="228" on="0"/>
        <pt x="1724" y="288" on="1"/>
        <pt x="1713" y="319" on="0"/>
        <pt x="1658" y="349" on="1"/>
        <pt x="1613" y="373" on="0"/>
        <pt x="1596" y="373" on="1"/>
        <pt x="1538" y="373" on="0"/>
        <pt x="1452" y="321" on="1"/>
        <pt x="1438" y="333" on="0"/>
        <pt x="1428" y="333" on="1"/>
        <pt x="1428" y="376" on="1"/>
        <pt x="1427" y="419" on="0"/>
        <pt x="1532" y="491" on="1"/>
        <pt x="1629" y="557" on="0"/>
        <pt x="1657" y="557" on="1"/>
        <pt x="1665" y="557" on="0"/>
        <pt x="1733" y="515" on="1"/>
        <pt x="1810" y="469" on="0"/>
        <pt x="1843" y="457" on="1"/>
        <pt x="2145" y="352" on="0"/>
        <pt x="2282" y="352" on="1"/>
        <pt x="2294" y="352" on="0"/>
        <pt x="2314" y="352" on="1"/>
        <pt x="2336" y="351" on="0"/>
        <pt x="2345" y="351" on="1"/>
        <pt x="2369" y="327" on="1"/>
        <pt x="2326" y="254" on="0"/>
        <pt x="2317" y="245" on="1"/>
        <pt x="2279" y="206" on="0"/>
        <pt x="2195" y="191" on="1"/>
        <pt x="2219" y="147" on="0"/>
        <pt x="2267" y="147" on="1"/>
        <pt x="2328" y="147" on="0"/>
        <pt x="2425" y="165" on="1"/>
        <pt x="2553" y="189" on="0"/>
        <pt x="2553" y="224" on="1"/>
        <pt x="2553" y="287" on="0"/>
        <pt x="2467" y="899" on="1"/>
        <pt x="2466" y="913" on="0"/>
        <pt x="2442" y="967" on="1"/>
        <pt x="2420" y="1018" on="0"/>
        <pt x="2420" y="1038" on="1"/>
        <pt x="2420" y="1144" on="0"/>
        <pt x="2506" y="1263" on="1"/>
        <pt x="2532" y="1249" on="0"/>
        <pt x="2545" y="1156" on="1"/>
        <pt x="2557" y="1072" on="0"/>
        <pt x="2614" y="1067" on="1"/>
        <pt x="2614" y="1031" on="1"/>
        <pt x="2614" y="1018" on="0"/>
        <pt x="2574" y="892" on="0"/>
        <pt x="2574" y="879" on="1"/>
      </contour>
      <contour>
        <pt x="1253" y="772" on="1"/>
        <pt x="1253" y="732" on="0"/>
        <pt x="1186" y="659" on="0"/>
        <pt x="1161" y="659" on="1"/>
        <pt x="1150" y="659" on="0"/>
        <pt x="1097" y="690" on="0"/>
        <pt x="1084" y="690" on="1"/>
        <pt x="1073" y="690" on="0"/>
        <pt x="1001" y="618" on="0"/>
        <pt x="987" y="618" on="1"/>
        <pt x="949" y="618" on="0"/>
        <pt x="909" y="664" on="1"/>
        <pt x="874" y="703" on="0"/>
        <pt x="874" y="721" on="1"/>
        <pt x="874" y="752" on="0"/>
        <pt x="917" y="790" on="1"/>
        <pt x="956" y="823" on="0"/>
        <pt x="972" y="823" on="1"/>
        <pt x="989" y="823" on="0"/>
        <pt x="1041" y="782" on="0"/>
        <pt x="1053" y="782" on="1"/>
        <pt x="1066" y="782" on="0"/>
        <pt x="1148" y="854" on="0"/>
        <pt x="1161" y="854" on="1"/>
        <pt x="1185" y="854" on="0"/>
        <pt x="1253" y="790" on="0"/>
      </contour>
      <contour>
        <pt x="1407" y="-410" on="1"/>
        <pt x="1407" y="-468" on="0"/>
        <pt x="1188" y="-552" on="1"/>
        <pt x="1079" y="-596" on="0"/>
        <pt x="868" y="-681" on="1"/>
        <pt x="844" y="-656" on="0"/>
        <pt x="844" y="-641" on="1"/>
        <pt x="844" y="-587" on="0"/>
        <pt x="1061" y="-494" on="1"/>
        <pt x="1205" y="-434" on="0"/>
        <pt x="1349" y="-375" on="1"/>
        <pt x="1393" y="-375" on="1"/>
        <pt x="1407" y="-388" on="0"/>
      </contour>
      <contour>
        <pt x="3106" y="1493" on="1"/>
        <pt x="3081" y="1519" on="1"/>
        <pt x="3036" y="1497" on="0"/>
        <pt x="3036" y="1469" on="1"/>
        <pt x="3082" y="1469" on="1"/>
      </contour>
      <contour>
        <pt x="1221" y="211" on="1"/>
        <pt x="1198" y="259" on="0"/>
        <pt x="1173" y="259" on="1"/>
        <pt x="1162" y="221" on="1"/>
        <pt x="1164" y="221" on="0"/>
        <pt x="1203" y="211" on="0"/>
      </contour>
    </TTGlyph>
    <TTGlyph name="uniFB54" xMin="148" yMin="-755" xMax="3884" yMax="1824">
      <contour>
        <pt x="3864" y="1121" on="1"/>
        <pt x="3864" y="1086" on="0"/>
        <pt x="3766" y="1031" on="1"/>
        <pt x="3706" y="1002" on="0"/>
        <pt x="3647" y="972" on="1"/>
        <pt x="3524" y="897" on="0"/>
        <pt x="3367" y="811" on="1"/>
        <pt x="3353" y="822" on="0"/>
        <pt x="3343" y="822" on="1"/>
        <pt x="3343" y="866" on="1"/>
        <pt x="3342" y="899" on="0"/>
        <pt x="3545" y="1013" on="1"/>
        <pt x="3681" y="1085" on="0"/>
        <pt x="3817" y="1158" on="1"/>
        <pt x="3864" y="1158" on="1"/>
      </contour>
      <contour>
        <pt x="2452" y="1788" on="1"/>
        <pt x="2452" y="1722" on="0"/>
        <pt x="1915" y="1406" on="1"/>
        <pt x="1869" y="1406" on="1"/>
        <pt x="1869" y="1474" on="1"/>
        <pt x="2153" y="1684" on="0"/>
        <pt x="2361" y="1810" on="1"/>
        <pt x="2386" y="1824" on="0"/>
        <pt x="2438" y="1824" on="1"/>
        <pt x="2439" y="1823" on="0"/>
        <pt x="2441" y="1821" on="1"/>
        <pt x="2452" y="1811" on="0"/>
      </contour>
      <contour>
        <pt x="2441" y="1353" on="1"/>
        <pt x="2441" y="1330" on="0"/>
        <pt x="2392" y="1229" on="0"/>
        <pt x="2376" y="1223" on="1"/>
        <pt x="2342" y="1210" on="0"/>
        <pt x="2229" y="1159" on="1"/>
        <pt x="2138" y="1118" on="0"/>
        <pt x="2124" y="1118" on="1"/>
        <pt x="2052" y="1118" on="0"/>
        <pt x="2052" y="1210" on="1"/>
        <pt x="2052" y="1239" on="0"/>
        <pt x="2073" y="1288" on="1"/>
        <pt x="2096" y="1342" on="0"/>
        <pt x="2120" y="1343" on="1"/>
        <pt x="2133" y="1331" on="0"/>
        <pt x="2144" y="1331" on="1"/>
        <pt x="2144" y="1268" on="1"/>
        <pt x="2162" y="1250" on="0"/>
        <pt x="2177" y="1250" on="1"/>
        <pt x="2193" y="1275" on="0"/>
        <pt x="2235" y="1379" on="0"/>
        <pt x="2250" y="1404" on="1"/>
        <pt x="2274" y="1392" on="0"/>
        <pt x="2287" y="1362" on="1"/>
        <pt x="2303" y="1323" on="0"/>
        <pt x="2324" y="1303" on="1"/>
        <pt x="2338" y="1316" on="0"/>
        <pt x="2348" y="1373" on="1"/>
        <pt x="2357" y="1423" on="0"/>
        <pt x="2384" y="1435" on="1"/>
        <pt x="2441" y="1420" on="0"/>
      </contour>
      <contour>
        <pt x="2984" y="140" on="1"/>
        <pt x="2984" y="90" on="0"/>
        <pt x="2940" y="2" on="1"/>
        <pt x="2888" y="17" on="0"/>
        <pt x="2884" y="170" on="1"/>
        <pt x="2880" y="294" on="0"/>
        <pt x="2855" y="542" on="1"/>
        <pt x="2830" y="782" on="0"/>
        <pt x="2830" y="780" on="1"/>
        <pt x="2830" y="929" on="0"/>
        <pt x="2910" y="974" on="1"/>
      </contour>
      <contour>
        <pt x="3884" y="7" on="1"/>
        <pt x="3884" y="-123" on="0"/>
        <pt x="3594" y="-489" on="0"/>
        <pt x="3490" y="-489" on="1"/>
        <pt x="3481" y="-489" on="0"/>
        <pt x="3345" y="-499" on="0"/>
        <pt x="3332" y="-499" on="1"/>
        <pt x="3265" y="-499" on="0"/>
        <pt x="3157" y="-470" on="1"/>
        <pt x="3052" y="-442" on="0"/>
        <pt x="3005" y="-413" on="1"/>
        <pt x="3041" y="-376" on="0"/>
        <pt x="3066" y="-376" on="1"/>
        <pt x="3078" y="-376" on="0"/>
        <pt x="3212" y="-397" on="0"/>
        <pt x="3224" y="-397" on="1"/>
        <pt x="3356" y="-397" on="0"/>
        <pt x="3515" y="-321" on="1"/>
        <pt x="3716" y="-226" on="0"/>
        <pt x="3793" y="-63" on="1"/>
        <pt x="3786" y="-18" on="1"/>
        <pt x="3728" y="-80" on="0"/>
        <pt x="3685" y="-80" on="1"/>
        <pt x="3629" y="-80" on="0"/>
        <pt x="3585" y="-26" on="1"/>
        <pt x="3547" y="22" on="0"/>
        <pt x="3547" y="74" on="1"/>
        <pt x="3547" y="142" on="0"/>
        <pt x="3586" y="224" on="1"/>
        <pt x="3637" y="329" on="0"/>
        <pt x="3711" y="329" on="1"/>
        <pt x="3785" y="329" on="0"/>
        <pt x="3842" y="184" on="1"/>
        <pt x="3884" y="70" on="0"/>
      </contour>
      <contour>
        <pt x="2502" y="754" on="1"/>
        <pt x="2502" y="720" on="0"/>
        <pt x="2470" y="686" on="1"/>
        <pt x="2441" y="657" on="0"/>
        <pt x="2425" y="657" on="1"/>
        <pt x="2403" y="657" on="0"/>
        <pt x="2319" y="709" on="1"/>
        <pt x="2318" y="762" on="0"/>
        <pt x="2343" y="805" on="1"/>
        <pt x="2370" y="852" on="0"/>
        <pt x="2411" y="852" on="1"/>
        <pt x="2447" y="852" on="0"/>
        <pt x="2478" y="809" on="1"/>
        <pt x="2502" y="774" on="0"/>
      </contour>
      <contour>
        <pt x="1755" y="1210" on="1"/>
        <pt x="1755" y="1207" on="0"/>
        <pt x="1722" y="1139" on="1"/>
        <pt x="1686" y="1150" on="0"/>
        <pt x="1607" y="1210" on="1"/>
        <pt x="1550" y="1158" on="0"/>
        <pt x="1436" y="1070" on="1"/>
        <pt x="1219" y="933" on="0"/>
        <pt x="1165" y="934" on="1"/>
        <pt x="1112" y="934" on="1"/>
        <pt x="1100" y="936" on="0"/>
        <pt x="1100" y="959" on="1"/>
        <pt x="1100" y="997" on="0"/>
        <pt x="1266" y="1091" on="1"/>
        <pt x="1459" y="1201" on="0"/>
        <pt x="1510" y="1267" on="1"/>
        <pt x="1496" y="1303" on="0"/>
        <pt x="1408" y="1364" on="1"/>
        <pt x="1401" y="1380" on="0"/>
        <pt x="1401" y="1398" on="1"/>
        <pt x="1401" y="1460" on="0"/>
        <pt x="1477" y="1526" on="1"/>
        <pt x="1550" y="1591" on="0"/>
        <pt x="1611" y="1591" on="1"/>
        <pt x="1621" y="1591" on="0"/>
        <pt x="1629" y="1588" on="1"/>
        <pt x="1651" y="1579" on="0"/>
        <pt x="1668" y="1530" on="1"/>
        <pt x="1683" y="1485" on="0"/>
        <pt x="1680" y="1450" on="1"/>
        <pt x="1678" y="1436" on="0"/>
        <pt x="1668" y="1402" on="1"/>
        <pt x="1659" y="1372" on="0"/>
        <pt x="1659" y="1357" on="1"/>
        <pt x="1659" y="1342" on="0"/>
        <pt x="1665" y="1330" on="1"/>
        <pt x="1674" y="1312" on="0"/>
        <pt x="1719" y="1274" on="1"/>
        <pt x="1755" y="1244" on="0"/>
      </contour>
      <contour>
        <pt x="3086" y="-236" on="1"/>
        <pt x="3056" y="-295" on="0"/>
        <pt x="2960" y="-314" on="1"/>
        <pt x="2842" y="-338" on="0"/>
        <pt x="2786" y="-385" on="1"/>
        <pt x="2739" y="-385" on="1"/>
        <pt x="2739" y="-377" on="0"/>
        <pt x="2769" y="-327" on="0"/>
        <pt x="2769" y="-315" on="1"/>
        <pt x="2769" y="-306" on="0"/>
        <pt x="2728" y="-249" on="0"/>
        <pt x="2728" y="-233" on="1"/>
        <pt x="2728" y="-203" on="0"/>
        <pt x="2791" y="-133" on="1"/>
        <pt x="2857" y="-59" on="0"/>
        <pt x="2902" y="-59" on="1"/>
        <pt x="2933" y="-59" on="0"/>
        <pt x="2984" y="-105" on="0"/>
        <pt x="2984" y="-135" on="1"/>
        <pt x="2984" y="-154" on="0"/>
        <pt x="2946" y="-192" on="0"/>
        <pt x="2928" y="-192" on="1"/>
        <pt x="2905" y="-192" on="0"/>
        <pt x="2864" y="-151" on="1"/>
        <pt x="2857" y="-151" on="0"/>
        <pt x="2830" y="-178" on="1"/>
        <pt x="2840" y="-203" on="0"/>
        <pt x="2898" y="-221" on="1"/>
        <pt x="2942" y="-233" on="0"/>
        <pt x="2973" y="-233" on="1"/>
        <pt x="3071" y="-233" on="0"/>
      </contour>
      <contour>
        <pt x="3127" y="-571" on="1"/>
        <pt x="3127" y="-618" on="0"/>
        <pt x="3093" y="-629" on="1"/>
        <pt x="2734" y="-755" on="0"/>
        <pt x="2732" y="-755" on="1"/>
        <pt x="2690" y="-755" on="1"/>
        <pt x="2677" y="-742" on="0"/>
        <pt x="2677" y="-724" on="1"/>
        <pt x="2677" y="-681" on="0"/>
        <pt x="2844" y="-620" on="1"/>
        <pt x="2962" y="-580" on="0"/>
        <pt x="3080" y="-541" on="1"/>
        <pt x="3114" y="-541" on="1"/>
        <pt x="3127" y="-554" on="0"/>
      </contour>
      <contour>
        <pt x="988" y="1221" on="1"/>
        <pt x="988" y="1173" on="0"/>
        <pt x="841" y="1110" on="1"/>
        <pt x="717" y="1057" on="0"/>
        <pt x="690" y="1057" on="1"/>
        <pt x="675" y="1057" on="0"/>
        <pt x="650" y="1079" on="1"/>
        <pt x="650" y="1127" on="1"/>
        <pt x="688" y="1142" on="0"/>
        <pt x="762" y="1195" on="1"/>
        <pt x="743" y="1221" on="0"/>
        <pt x="721" y="1221" on="1"/>
        <pt x="708" y="1221" on="0"/>
        <pt x="662" y="1189" on="1"/>
        <pt x="612" y="1154" on="0"/>
        <pt x="591" y="1149" on="1"/>
        <pt x="578" y="1150" on="0"/>
        <pt x="578" y="1174" on="1"/>
        <pt x="578" y="1216" on="0"/>
        <pt x="653" y="1280" on="1"/>
        <pt x="724" y="1343" on="0"/>
        <pt x="757" y="1343" on="1"/>
        <pt x="757" y="1343" on="0"/>
        <pt x="964" y="1267" on="1"/>
        <pt x="988" y="1253" on="0"/>
      </contour>
      <contour>
        <pt x="2646" y="299" on="1"/>
        <pt x="2646" y="261" on="0"/>
        <pt x="2625" y="186" on="1"/>
        <pt x="2602" y="101" on="0"/>
        <pt x="2578" y="87" on="1"/>
        <pt x="2497" y="40" on="0"/>
        <pt x="2201" y="19" on="1"/>
        <pt x="2193" y="18" on="0"/>
        <pt x="2143" y="2" on="0"/>
        <pt x="2129" y="2" on="1"/>
        <pt x="2152" y="2" on="0"/>
        <pt x="2035" y="7" on="1"/>
        <pt x="1949" y="11" on="0"/>
        <pt x="1898" y="5" on="1"/>
        <pt x="1903" y="-5" on="0"/>
        <pt x="1946" y="-66" on="1"/>
        <pt x="1981" y="-114" on="0"/>
        <pt x="1981" y="-131" on="1"/>
        <pt x="1981" y="-231" on="0"/>
        <pt x="1933" y="-312" on="1"/>
        <pt x="1878" y="-407" on="0"/>
        <pt x="1791" y="-407" on="1"/>
        <pt x="1692" y="-407" on="0"/>
        <pt x="1529" y="-207" on="0"/>
        <pt x="1532" y="-88" on="1"/>
        <pt x="1473" y="-90" on="0"/>
        <pt x="1445" y="-36" on="0"/>
        <pt x="1431" y="-8" on="1"/>
        <pt x="1272" y="-8" on="0"/>
        <pt x="1079" y="2" on="0"/>
        <pt x="1095" y="2" on="1"/>
        <pt x="1061" y="2" on="0"/>
        <pt x="1048" y="-15" on="1"/>
        <pt x="1025" y="-49" on="0"/>
        <pt x="1015" y="-56" on="1"/>
        <pt x="999" y="-59" on="0"/>
        <pt x="952" y="-59" on="1"/>
        <pt x="939" y="-59" on="0"/>
        <pt x="775" y="-39" on="0"/>
        <pt x="762" y="-39" on="1"/>
        <pt x="752" y="-39" on="0"/>
        <pt x="689" y="-102" on="1"/>
        <pt x="620" y="-172" on="0"/>
        <pt x="585" y="-189" on="1"/>
        <pt x="494" y="-235" on="0"/>
        <pt x="328" y="-271" on="1"/>
        <pt x="271" y="-272" on="0"/>
        <pt x="162" y="-284" on="1"/>
        <pt x="148" y="-271" on="1"/>
        <pt x="148" y="-234" on="1"/>
        <pt x="278" y="-182" on="0"/>
        <pt x="519" y="-74" on="1"/>
        <pt x="551" y="-59" on="0"/>
        <pt x="583" y="-45" on="1"/>
        <pt x="631" y="-22" on="0"/>
        <pt x="656" y="9" on="1"/>
        <pt x="651" y="45" on="0"/>
        <pt x="652" y="111" on="1"/>
        <pt x="660" y="147" on="0"/>
        <pt x="712" y="231" on="1"/>
        <pt x="777" y="340" on="0"/>
        <pt x="829" y="340" on="1"/>
        <pt x="838" y="340" on="0"/>
        <pt x="898" y="286" on="1"/>
        <pt x="966" y="226" on="0"/>
        <pt x="1005" y="209" on="1"/>
        <pt x="1069" y="181" on="0"/>
        <pt x="1182" y="161" on="1"/>
        <pt x="1270" y="145" on="0"/>
        <pt x="1305" y="145" on="1"/>
        <pt x="1361" y="145" on="1"/>
        <pt x="1503" y="145" on="0"/>
        <pt x="1543" y="168" on="1"/>
        <pt x="1559" y="176" on="0"/>
        <pt x="1686" y="400" on="1"/>
        <pt x="1804" y="606" on="0"/>
        <pt x="1873" y="606" on="1"/>
        <pt x="1927" y="606" on="0"/>
        <pt x="1964" y="501" on="1"/>
        <pt x="1990" y="426" on="0"/>
        <pt x="1990" y="386" on="1"/>
        <pt x="1990" y="286" on="0"/>
        <pt x="1888" y="152" on="1"/>
        <pt x="1906" y="145" on="0"/>
        <pt x="1981" y="145" on="1"/>
        <pt x="2052" y="145" on="0"/>
        <pt x="2466" y="188" on="1"/>
        <pt x="2483" y="190" on="0"/>
        <pt x="2534" y="228" on="0"/>
        <pt x="2534" y="242" on="1"/>
        <pt x="2534" y="256" on="0"/>
        <pt x="2461" y="373" on="0"/>
        <pt x="2461" y="386" on="1"/>
        <pt x="2461" y="415" on="0"/>
        <pt x="2478" y="450" on="1"/>
        <pt x="2497" y="493" on="0"/>
        <pt x="2523" y="493" on="1"/>
        <pt x="2570" y="493" on="0"/>
        <pt x="2613" y="398" on="1"/>
        <pt x="2646" y="324" on="0"/>
      </contour>
      <contour>
        <pt x="3740" y="96" on="1"/>
        <pt x="3725" y="142" on="0"/>
        <pt x="3708" y="174" on="1"/>
        <pt x="3661" y="174" on="1"/>
        <pt x="3661" y="171" on="0"/>
        <pt x="3649" y="150" on="0"/>
        <pt x="3649" y="135" on="1"/>
        <pt x="3649" y="120" on="0"/>
        <pt x="3684" y="84" on="0"/>
        <pt x="3700" y="84" on="1"/>
        <pt x="3715" y="84" on="0"/>
        <pt x="3737" y="96" on="0"/>
      </contour>
      <contour>
        <pt x="1581" y="1420" on="1"/>
        <pt x="1581" y="1456" on="0"/>
        <pt x="1566" y="1456" on="1"/>
        <pt x="1556" y="1456" on="0"/>
        <pt x="1540" y="1441" on="1"/>
        <pt x="1581" y="1400" on="0"/>
      </contour>
      <contour>
        <pt x="1878" y="329" on="1"/>
        <pt x="1878" y="344" on="0"/>
        <pt x="1845" y="410" on="1"/>
        <pt x="1809" y="410" on="1"/>
        <pt x="1732" y="296" on="0"/>
        <pt x="1695" y="219" on="1"/>
        <pt x="1731" y="219" on="1"/>
        <pt x="1772" y="239" on="0"/>
        <pt x="1812" y="260" on="1"/>
        <pt x="1878" y="298" on="0"/>
      </contour>
      <contour>
        <pt x="1857" y="-210" on="1"/>
        <pt x="1857" y="-174" on="1"/>
        <pt x="1724" y="-90" on="0"/>
        <pt x="1677" y="-90" on="1"/>
        <pt x="1645" y="-90" on="1"/>
        <pt x="1643" y="-96" on="0"/>
        <pt x="1643" y="-101" on="1"/>
        <pt x="1643" y="-147" on="0"/>
        <pt x="1701" y="-193" on="1"/>
        <pt x="1753" y="-233" on="0"/>
        <pt x="1786" y="-233" on="1"/>
        <pt x="1820" y="-233" on="0"/>
      </contour>
      <contour>
        <pt x="831" y="125" on="1"/>
        <pt x="831" y="163" on="0"/>
        <pt x="788" y="206" on="1"/>
        <pt x="772" y="192" on="0"/>
        <pt x="772" y="176" on="1"/>
        <pt x="772" y="150" on="0"/>
      </contour>
    </TTGlyph>
    <TTGlyph name="uniFB55" xMin="266" yMin="-534" xMax="5201" yMax="1625">
      <contour>
        <pt x="5201" y="1395" on="1"/>
        <pt x="5201" y="1357" on="0"/>
        <pt x="5167" y="1334" on="1"/>
        <pt x="5136" y="1320" on="0"/>
        <pt x="5106" y="1305" on="1"/>
        <pt x="4925" y="1209" on="0"/>
        <pt x="4560" y="1012" on="1"/>
        <pt x="4546" y="1026" on="0"/>
        <pt x="4546" y="1047" on="1"/>
        <pt x="4546" y="1105" on="0"/>
        <pt x="4589" y="1134" on="1"/>
        <pt x="4710" y="1212" on="0"/>
        <pt x="4916" y="1323" on="1"/>
        <pt x="5116" y="1431" on="0"/>
        <pt x="5135" y="1431" on="1"/>
        <pt x="5188" y="1431" on="1"/>
        <pt x="5201" y="1418" on="0"/>
      </contour>
      <contour>
        <pt x="3921" y="1585" on="1"/>
        <pt x="3921" y="1540" on="0"/>
        <pt x="3801" y="1467" on="1"/>
        <pt x="3737" y="1433" on="0"/>
        <pt x="3673" y="1398" on="1"/>
        <pt x="3549" y="1317" on="0"/>
        <pt x="3300" y="1155" on="1"/>
        <pt x="3299" y="1158" on="0"/>
        <pt x="3280" y="1171" on="1"/>
        <pt x="3266" y="1180" on="0"/>
        <pt x="3266" y="1196" on="1"/>
        <pt x="3266" y="1253" on="0"/>
        <pt x="3330" y="1294" on="1"/>
        <pt x="3548" y="1432" on="0"/>
        <pt x="3884" y="1625" on="1"/>
        <pt x="3921" y="1625" on="0"/>
      </contour>
      <contour>
        <pt x="5098" y="224" on="1"/>
        <pt x="5101" y="214" on="0"/>
        <pt x="5101" y="202" on="1"/>
        <pt x="5101" y="152" on="0"/>
        <pt x="5037" y="23" on="0"/>
        <pt x="5004" y="2" on="1"/>
        <pt x="4954" y="-31" on="0"/>
        <pt x="4889" y="-36" on="1"/>
        <pt x="4668" y="-53" on="0"/>
        <pt x="4648" y="-53" on="1"/>
        <pt x="4663" y="-53" on="0"/>
        <pt x="4577" y="-57" on="1"/>
        <pt x="4535" y="-59" on="0"/>
        <pt x="4508" y="-50" on="1"/>
        <pt x="4389" y="-5" on="0"/>
        <pt x="4128" y="131" on="1"/>
        <pt x="3893" y="254" on="0"/>
        <pt x="3884" y="254" on="1"/>
        <pt x="3848" y="254" on="1"/>
        <pt x="3831" y="157" on="0"/>
        <pt x="3826" y="137" on="1"/>
        <pt x="3810" y="71" on="0"/>
        <pt x="3782" y="32" on="1"/>
        <pt x="3673" y="-1" on="0"/>
        <pt x="3527" y="-19" on="1"/>
        <pt x="3266" y="-53" on="0"/>
        <pt x="3127" y="-53" on="1"/>
        <pt x="3114" y="-53" on="0"/>
        <pt x="2921" y="-43" on="0"/>
        <pt x="2907" y="-43" on="1"/>
        <pt x="2833" y="-43" on="0"/>
        <pt x="2754" y="23" on="1"/>
        <pt x="2679" y="88" on="0"/>
        <pt x="2634" y="183" on="1"/>
        <pt x="2606" y="183" on="1"/>
        <pt x="2516" y="58" on="0"/>
        <pt x="2400" y="25" on="1"/>
        <pt x="2345" y="8" on="0"/>
        <pt x="2196" y="8" on="1"/>
        <pt x="2184" y="8" on="0"/>
        <pt x="2187" y="-2" on="0"/>
        <pt x="2176" y="-2" on="1"/>
        <pt x="2168" y="-2" on="0"/>
        <pt x="2070" y="49" on="0"/>
        <pt x="2058" y="61" on="1"/>
        <pt x="2053" y="82" on="0"/>
        <pt x="2064" y="129" on="1"/>
        <pt x="2078" y="183" on="0"/>
        <pt x="2103" y="202" on="1"/>
        <pt x="2205" y="161" on="0"/>
        <pt x="2257" y="161" on="1"/>
        <pt x="2316" y="161" on="0"/>
        <pt x="2426" y="197" on="1"/>
        <pt x="2579" y="247" on="0"/>
        <pt x="2579" y="320" on="1"/>
        <pt x="2579" y="330" on="0"/>
        <pt x="2518" y="576" on="0"/>
        <pt x="2518" y="596" on="1"/>
        <pt x="2518" y="637" on="0"/>
        <pt x="2540" y="703" on="1"/>
        <pt x="2546" y="703" on="0"/>
        <pt x="2562" y="714" on="1"/>
        <pt x="2585" y="714" on="0"/>
        <pt x="2606" y="681" on="1"/>
        <pt x="2646" y="526" on="0"/>
        <pt x="2686" y="371" on="1"/>
        <pt x="2742" y="187" on="0"/>
        <pt x="2833" y="154" on="1"/>
        <pt x="2910" y="125" on="0"/>
        <pt x="3004" y="120" on="1"/>
        <pt x="2996" y="120" on="0"/>
        <pt x="3168" y="120" on="1"/>
        <pt x="3378" y="120" on="0"/>
        <pt x="3440" y="125" on="1"/>
        <pt x="3571" y="136" on="0"/>
        <pt x="3727" y="180" on="1"/>
        <pt x="3727" y="216" on="1"/>
        <pt x="3726" y="306" on="0"/>
        <pt x="3402" y="441" on="1"/>
        <pt x="3336" y="469" on="0"/>
        <pt x="3320" y="502" on="1"/>
        <pt x="3307" y="531" on="0"/>
        <pt x="3307" y="591" on="1"/>
        <pt x="3307" y="744" on="0"/>
        <pt x="3631" y="973" on="1"/>
        <pt x="3818" y="1090" on="0"/>
        <pt x="4005" y="1208" on="1"/>
        <pt x="4062" y="1248" on="0"/>
        <pt x="4580" y="1574" on="1"/>
        <pt x="4617" y="1574" on="1"/>
        <pt x="4617" y="1486" on="1"/>
        <pt x="4617" y="1462" on="0"/>
        <pt x="4595" y="1445" on="1"/>
        <pt x="4514" y="1373" on="0"/>
        <pt x="4400" y="1312" on="1"/>
        <pt x="4378" y="1305" on="0"/>
        <pt x="4338" y="1285" on="1"/>
        <pt x="4264" y="1230" on="0"/>
        <pt x="3859" y="976" on="1"/>
        <pt x="3554" y="784" on="0"/>
        <pt x="3419" y="648" on="1"/>
        <pt x="3468" y="597" on="0"/>
        <pt x="3572" y="562" on="1"/>
        <pt x="3658" y="534" on="0"/>
        <pt x="3744" y="505" on="1"/>
        <pt x="3826" y="462" on="0"/>
        <pt x="3989" y="383" on="1"/>
        <pt x="4091" y="338" on="0"/>
        <pt x="4230" y="253" on="1"/>
        <pt x="4358" y="177" on="0"/>
        <pt x="4421" y="152" on="1"/>
        <pt x="4526" y="111" on="0"/>
        <pt x="4653" y="111" on="1"/>
        <pt x="4812" y="111" on="0"/>
        <pt x="4837" y="113" on="1"/>
        <pt x="4983" y="125" on="0"/>
        <pt x="4996" y="182" on="1"/>
        <pt x="4873" y="847" on="1"/>
        <pt x="4881" y="935" on="0"/>
        <pt x="4948" y="1041" on="1"/>
        <pt x="4984" y="1041" on="1"/>
        <pt x="4986" y="1036" on="0"/>
        <pt x="4992" y="949" on="1"/>
        <pt x="4996" y="881" on="0"/>
        <pt x="5076" y="868" on="1"/>
        <pt x="5081" y="855" on="0"/>
        <pt x="5081" y="840" on="1"/>
        <pt x="5081" y="810" on="0"/>
        <pt x="5026" y="701" on="0"/>
        <pt x="5026" y="684" on="1"/>
      </contour>
      <contour>
        <pt x="3143" y="530" on="1"/>
        <pt x="3143" y="462" on="0"/>
        <pt x="3100" y="368" on="1"/>
        <pt x="3063" y="368" on="1"/>
        <pt x="3055" y="437" on="0"/>
        <pt x="3027" y="564" on="1"/>
        <pt x="3023" y="577" on="0"/>
        <pt x="2978" y="642" on="1"/>
        <pt x="2938" y="701" on="0"/>
        <pt x="2938" y="719" on="1"/>
        <pt x="2938" y="741" on="0"/>
        <pt x="2970" y="786" on="0"/>
        <pt x="2995" y="786" on="1"/>
        <pt x="3051" y="786" on="0"/>
        <pt x="3103" y="662" on="1"/>
        <pt x="3143" y="564" on="0"/>
      </contour>
      <contour>
        <pt x="2538" y="938" on="1"/>
        <pt x="2539" y="898" on="0"/>
        <pt x="2513" y="854" on="1"/>
        <pt x="2486" y="807" on="0"/>
        <pt x="2457" y="807" on="1"/>
        <pt x="2420" y="807" on="0"/>
        <pt x="2334" y="863" on="0"/>
        <pt x="2334" y="889" on="1"/>
        <pt x="2334" y="918" on="0"/>
        <pt x="2360" y="958" on="1"/>
        <pt x="2389" y="1001" on="0"/>
        <pt x="2416" y="1001" on="1"/>
        <pt x="2451" y="1001" on="0"/>
      </contour>
      <contour>
        <pt x="1863" y="1217" on="1"/>
        <pt x="1863" y="1155" on="0"/>
        <pt x="1817" y="1155" on="1"/>
        <pt x="1804" y="1155" on="0"/>
        <pt x="1727" y="1217" on="0"/>
        <pt x="1714" y="1217" on="1"/>
        <pt x="1703" y="1217" on="0"/>
        <pt x="1655" y="1166" on="1"/>
        <pt x="1595" y="1100" on="0"/>
        <pt x="1564" y="1076" on="1"/>
        <pt x="1519" y="1041" on="0"/>
        <pt x="1324" y="940" on="0"/>
        <pt x="1305" y="940" on="1"/>
        <pt x="1284" y="940" on="0"/>
        <pt x="1259" y="965" on="1"/>
        <pt x="1297" y="1017" on="0"/>
        <pt x="1422" y="1103" on="1"/>
        <pt x="1558" y="1197" on="0"/>
        <pt x="1607" y="1253" on="1"/>
        <pt x="1600" y="1262" on="0"/>
        <pt x="1541" y="1322" on="1"/>
        <pt x="1495" y="1369" on="0"/>
        <pt x="1495" y="1385" on="1"/>
        <pt x="1495" y="1421" on="0"/>
        <pt x="1555" y="1499" on="1"/>
        <pt x="1623" y="1585" on="0"/>
        <pt x="1673" y="1585" on="1"/>
        <pt x="1734" y="1585" on="0"/>
        <pt x="1750" y="1484" on="1"/>
        <pt x="1773" y="1348" on="0"/>
        <pt x="1773" y="1347" on="1"/>
        <pt x="1782" y="1330" on="0"/>
        <pt x="1831" y="1289" on="1"/>
        <pt x="1863" y="1262" on="0"/>
      </contour>
      <contour>
        <pt x="2783" y="-296" on="1"/>
        <pt x="2665" y="-379" on="0"/>
        <pt x="2515" y="-440" on="1"/>
        <pt x="2396" y="-487" on="0"/>
        <pt x="2276" y="-534" on="1"/>
        <pt x="2262" y="-520" on="0"/>
        <pt x="2262" y="-498" on="1"/>
        <pt x="2262" y="-445" on="0"/>
        <pt x="2298" y="-425" on="1"/>
        <pt x="2401" y="-372" on="0"/>
        <pt x="2729" y="-227" on="0"/>
        <pt x="2749" y="-227" on="1"/>
        <pt x="2763" y="-227" on="0"/>
        <pt x="2780" y="-239" on="0"/>
        <pt x="2783" y="-239" on="1"/>
      </contour>
      <contour>
        <pt x="993" y="1529" on="1"/>
        <pt x="993" y="1481" on="0"/>
        <pt x="890" y="1421" on="1"/>
        <pt x="827" y="1389" on="0"/>
        <pt x="765" y="1357" on="1"/>
        <pt x="698" y="1317" on="0"/>
        <pt x="571" y="1240" on="1"/>
        <pt x="529" y="1218" on="0"/>
        <pt x="486" y="1196" on="1"/>
        <pt x="427" y="1162" on="0"/>
        <pt x="418" y="1135" on="1"/>
        <pt x="369" y="1135" on="1"/>
        <pt x="369" y="1139" on="0"/>
        <pt x="358" y="1155" on="0"/>
        <pt x="358" y="1170" on="1"/>
        <pt x="358" y="1225" on="0"/>
        <pt x="383" y="1242" on="1"/>
        <pt x="507" y="1326" on="0"/>
        <pt x="935" y="1564" on="1"/>
        <pt x="970" y="1564" on="1"/>
        <pt x="993" y="1540" on="0"/>
      </contour>
      <contour>
        <pt x="1965" y="418" on="1"/>
        <pt x="1965" y="406" on="0"/>
        <pt x="1955" y="354" on="1"/>
        <pt x="1943" y="296" on="0"/>
        <pt x="1941" y="279" on="1"/>
        <pt x="1936" y="233" on="0"/>
        <pt x="1892" y="196" on="1"/>
        <pt x="1874" y="181" on="0"/>
        <pt x="1825" y="167" on="1"/>
        <pt x="1770" y="152" on="0"/>
        <pt x="1728" y="126" on="0"/>
        <pt x="1695" y="52" on="1"/>
        <pt x="1655" y="-35" on="0"/>
        <pt x="1520" y="-153" on="1"/>
        <pt x="1377" y="-278" on="0"/>
        <pt x="1295" y="-278" on="1"/>
        <pt x="1211" y="-278" on="0"/>
        <pt x="1052" y="-254" on="1"/>
        <pt x="862" y="-226" on="0"/>
        <pt x="839" y="-193" on="1"/>
        <pt x="839" y="-158" on="1"/>
        <pt x="863" y="-135" on="0"/>
        <pt x="880" y="-135" on="1"/>
        <pt x="889" y="-135" on="0"/>
        <pt x="1060" y="-176" on="0"/>
        <pt x="1075" y="-176" on="1"/>
        <pt x="1215" y="-176" on="0"/>
        <pt x="1349" y="-104" on="1"/>
        <pt x="1492" y="-29" on="0"/>
        <pt x="1587" y="105" on="1"/>
        <pt x="1552" y="129" on="0"/>
        <pt x="1533" y="129" on="1"/>
        <pt x="1526" y="129" on="0"/>
        <pt x="1510" y="120" on="0"/>
        <pt x="1505" y="120" on="1"/>
        <pt x="1450" y="120" on="0"/>
        <pt x="1361" y="206" on="0"/>
        <pt x="1361" y="254" on="1"/>
        <pt x="1361" y="303" on="0"/>
        <pt x="1415" y="408" on="1"/>
        <pt x="1478" y="530" on="0"/>
        <pt x="1541" y="530" on="1"/>
        <pt x="1596" y="530" on="0"/>
        <pt x="1643" y="445" on="1"/>
        <pt x="1672" y="390" on="0"/>
        <pt x="1700" y="334" on="1"/>
        <pt x="1717" y="315" on="0"/>
        <pt x="1766" y="315" on="1"/>
        <pt x="1863" y="315" on="0"/>
        <pt x="1863" y="377" on="1"/>
        <pt x="1863" y="391" on="0"/>
        <pt x="1836" y="426" on="1"/>
        <pt x="1816" y="454" on="0"/>
        <pt x="1795" y="482" on="1"/>
        <pt x="1771" y="519" on="0"/>
        <pt x="1771" y="587" on="1"/>
        <pt x="1771" y="684" on="0"/>
        <pt x="1822" y="684" on="1"/>
        <pt x="1868" y="684" on="0"/>
        <pt x="1922" y="552" on="1"/>
        <pt x="1965" y="443" on="0"/>
      </contour>
      <contour>
        <pt x="1924" y="-222" on="1"/>
        <pt x="1924" y="-249" on="0"/>
        <pt x="1888" y="-294" on="1"/>
        <pt x="1850" y="-339" on="0"/>
        <pt x="1822" y="-339" on="1"/>
        <pt x="1812" y="-339" on="0"/>
        <pt x="1719" y="-279" on="0"/>
        <pt x="1709" y="-262" on="1"/>
        <pt x="1732" y="-224" on="0"/>
        <pt x="1754" y="-185" on="1"/>
        <pt x="1779" y="-145" on="0"/>
        <pt x="1807" y="-145" on="1"/>
        <pt x="1822" y="-145" on="0"/>
        <pt x="1871" y="-173" on="1"/>
        <pt x="1924" y="-203" on="0"/>
      </contour>
      <contour>
        <pt x="676" y="694" on="1"/>
        <pt x="676" y="654" on="0"/>
        <pt x="622" y="582" on="1"/>
        <pt x="605" y="578" on="0"/>
        <pt x="546" y="609" on="1"/>
        <pt x="481" y="644" on="0"/>
        <pt x="481" y="678" on="1"/>
        <pt x="481" y="696" on="0"/>
        <pt x="513" y="740" on="1"/>
        <pt x="545" y="786" on="0"/>
        <pt x="563" y="786" on="1"/>
        <pt x="606" y="786" on="0"/>
        <pt x="642" y="753" on="1"/>
        <pt x="676" y="722" on="0"/>
      </contour>
      <contour>
        <pt x="1075" y="202" on="1"/>
        <pt x="1075" y="139" on="0"/>
        <pt x="1009" y="21" on="1"/>
        <pt x="972" y="-45" on="0"/>
        <pt x="898" y="-81" on="1"/>
        <pt x="842" y="-108" on="0"/>
        <pt x="746" y="-137" on="1"/>
        <pt x="656" y="-166" on="0"/>
        <pt x="635" y="-166" on="1"/>
        <pt x="563" y="-166" on="1"/>
        <pt x="450" y="-166" on="0"/>
        <pt x="360" y="-95" on="1"/>
        <pt x="266" y="-21" on="0"/>
        <pt x="266" y="85" on="1"/>
        <pt x="266" y="147" on="0"/>
        <pt x="314" y="261" on="1"/>
        <pt x="364" y="378" on="0"/>
        <pt x="403" y="396" on="1"/>
        <pt x="439" y="396" on="1"/>
        <pt x="439" y="339" on="1"/>
        <pt x="440" y="331" on="0"/>
        <pt x="378" y="218" on="0"/>
        <pt x="378" y="177" on="1"/>
        <pt x="378" y="86" on="0"/>
        <pt x="468" y="36" on="1"/>
        <pt x="538" y="-2" on="0"/>
        <pt x="619" y="-2" on="1"/>
        <pt x="672" y="-2" on="0"/>
        <pt x="820" y="45" on="1"/>
        <pt x="983" y="98" on="0"/>
        <pt x="983" y="136" on="1"/>
        <pt x="983" y="147" on="0"/>
        <pt x="860" y="427" on="0"/>
        <pt x="860" y="438" on="1"/>
        <pt x="860" y="451" on="0"/>
        <pt x="893" y="550" on="1"/>
        <pt x="949" y="550" on="1"/>
        <pt x="1029" y="434" on="0"/>
        <pt x="1050" y="352" on="1"/>
        <pt x="1075" y="259" on="0"/>
      </contour>
      <contour>
        <pt x="1666" y="1402" on="1"/>
        <pt x="1666" y="1430" on="0"/>
        <pt x="1655" y="1441" on="1"/>
        <pt x="1639" y="1441" on="0"/>
        <pt x="1639" y="1412" on="1"/>
        <pt x="1649" y="1412" on="0"/>
      </contour>
      <contour>
        <pt x="1555" y="296" on="1"/>
        <pt x="1555" y="301" on="0"/>
        <pt x="1544" y="339" on="0"/>
        <pt x="1544" y="345" on="1"/>
        <pt x="1507" y="345" on="1"/>
        <pt x="1494" y="319" on="0"/>
        <pt x="1518" y="296" on="1"/>
      </contour>
    </TTGlyph>
</ttFont>
